<?xml version="1.0" encoding="utf-8"?>
<COLLADA xmlns="http://www.collada.org/2005/11/COLLADASchema" version="1.4.1" xmlns:xsi="http://www.w3.org/2001/XMLSchema-instance">
  <asset>
    <contributor>
      <author>Blender User</author>
      <authoring_tool>Blender 4.4.0 commit date:2025-03-17, commit time:17:00, hash:05377985c527</authoring_tool>
    </contributor>
    <created>2026-04-01T18:22:11</created>
    <modified>2026-04-01T18:22:11</modified>
    <unit name="meter" meter="1"/>
    <up_axis>Z_UP</up_axis>
  </asset>
  <library_images/>
  <library_geometries>
    <geometry id="Cube_001-mesh" name="Cube.001">
      <mesh>
        <source id="Cube_001-mesh-positions">
          <float_array id="Cube_001-mesh-positions-array" count="813">-0.08125829 -0.07663196 0.6836742 -0.08953052 -0.08583223 0.8535271 -0.03847682 0.09929871 0.6204597 -0.08375978 0.06977856 0.8629401 0 -0.09267383 0.6642627 0 -0.1114203 0.8615035 0 0.1187102 0.6108694 0 0.08582043 0.8802498 -0.07440769 0.02691841 0.6472807 -0.08287817 -0.02616423 0.6656438 -0.09813261 -0.03839343 0.8649442 -0.09675788 0.01404231 0.8682821 0 0.01026535 0.9008315 0 -0.04036664 0.8963069 -0.08985364 -0.09157329 0.8082945 -0.0873326 -0.09464508 0.7545854 -0.07844698 0.09116643 0.7546728 -0.08333295 0.08521378 0.8087139 0 -0.1310152 0.8082945 0 -0.1304764 0.7545854 0 0.125237 0.7545854 0 0.1184709 0.8082945 -0.09522557 0.01989239 0.8082945 -0.08979111 0.01907473 0.7545854 -0.09332776 -0.03373175 0.7545854 -0.09754925 -0.03295516 0.8082945 -0.1772376 -0.06060266 -0.0482918 -0.2190136 -0.1557194 0.4994395 -0.08625495 0.1690406 -0.1327903 -0.1620513 0.05488401 0.5159915 -0.1569803 -0.07382375 0.07266616 -0.1273316 0.172605 0.09889042 -0.2261314 -0.1255919 0.2518876 -0.1718479 0.1983478 0.258239 -0.04958659 -0.0580222 0.6401837 -0.04958659 0.03996324 0.6248807 -0.2471406 -0.1429584 0.3726386 -0.1964125 0.1546469 0.3836559 -0.167109 -0.06721317 0.01218712 -0.1081726 0.187843 -0.04938608 -0.1772376 0.04569256 -0.1109884 -0.2190136 0.01716947 0.490244 -0.1569803 0.04939055 0.07266616 -0.2224479 0.01959705 0.2458376 -0.07012605 -0.009029448 0.6325322 -0.2440994 0.05260658 0.388333 -0.167109 0.06031489 -0.01859945 0 -0.06060266 -0.0482918 0 -0.1557193 0.4994395 0 0.1633564 -0.2032181 0 0.05488407 0.5159915 0 0.172605 0.09889042 0 -0.07382375 0.0726661 0 0.1983478 0.2557688 0 -0.1591536 0.2557688 0 -0.07831567 0.643353 0 0.06025671 0.6217114 0 0.1962629 0.3726386 0 -0.1550824 0.3726386 0 -0.06721317 0.01218712 0 0.187843 -0.04938608 -0.09511822 -0.1104376 0.5778928 -0.07430946 0.04414391 0.5778928 -0.09511822 -0.02598255 0.5778928 0 0.04414391 0.5778928 0 -0.1104375 0.5778928 -0.193727 0.01825368 -0.3467144 -0.1538044 -0.1121905 -0.3271454 0 0.148963 -0.3254359 -0.04817676 0.1474971 -0.2951126 0 -0.09857296 -0.3467144 0 0.02682298 -0.3467144 -0.1847524 0.0331878 -0.218416 0 -0.1523907 -0.1677402 -0.1811299 -0.1300134 -0.163639 0 0.1582807 -0.2686138 -0.06293606 0.1607064 -0.2120774 -0.1315365 -0.01818275 -0.6373326 -0.0953291 -0.071491 -0.6373326 -0.03920382 0.04453015 -0.6373326 -0.1034738 0.03982782 -0.6373326 -0.03105914 -0.06678867 -0.6373326 -0.002996504 -0.008778035 -0.6373326 -0.137519 -0.05158853 -0.7614694 -0.09491282 -0.1112186 -0.7435799 -0.02968889 0.019095 -0.7826753 -0.104907 0.01356822 -0.7810171 -0.01969474 -0.1056918 -0.7452381 0.01291722 -0.04053497 -0.7647857 -0.1066527 -0.02977895 -1.172154 -0.08068227 -0.06766808 -1.177296 -0.04042512 0.01479434 -1.166103 -0.08652412 0.01145219 -1.166557 -0.03458327 -0.06432592 -1.176843 -0.01445466 -0.02309465 -1.171246 -0.0319392 -0.1403258 -0.9009475 0.002516508 -0.06882017 -0.9105914 -0.1116534 -0.1465067 -0.9001138 -0.04274189 -0.003495573 -0.9194016 -0.1224561 -0.009676575 -0.918568 -0.1569119 -0.08118218 -0.9089241 -0.2967483 -0.098706 0.4958372 -0.2905836 -0.1169719 0.3924494 -0.2944921 0.00485903 0.4776746 -0.2883274 -0.01340687 0.3742867 -0.529579 -0.08877426 0.3785603 -0.5022248 -0.1013193 0.3004345 -0.523622 -0.006019949 0.3673578 -0.4962678 -0.01856499 0.289232 -0.8887323 -0.07383865 0.1793088 -0.8537981 -0.08399337 0.1481529 -0.8808739 -0.01837766 0.1744709 -0.8459397 -0.02853238 0.143315 -0.616242 -0.01753562 0.2365549 -0.6502866 -0.004138886 0.3123813 -0.6577952 -0.08815687 0.3234478 -0.6237506 -0.1015536 0.2476214 -0.1176571 -0.02304458 -1.273372 -0.08920055 -0.08683234 -1.273372 -0.04533225 0.0262435 -1.273372 -0.09572297 0.0224778 -1.273372 -0.03880989 -0.08306664 -1.273372 -0.01687574 -0.01551318 -1.273372 -0.05156308 0.2398392 -1.242041 -0.1043955 0.2389814 -1.242157 -0.1274641 0.2283998 -1.243594 -0.02179938 0.2301153 -1.243361 -0.008063971 0.2311027 -1.273372 -0.05143332 0.2453537 -1.273372 -0.1282317 0.2440685 -1.273372 -0.1616606 0.2285323 -1.273372 -1.028682 -0.09308266 0.08716559 -1.006211 -0.09687089 0.07145172 -1.021306 -0.006194889 0.08132672 -0.998835 -0.01596474 0.06633627 -0.9358784 -0.08564746 0.1498942 -0.9830246 -0.09745633 0.1204797 -0.9480906 -0.1034713 0.08411639 -0.9009444 -0.09373235 0.1161347 -0.880355 0.005655825 0.1086418 -0.9402322 -0.01535743 0.07966035 -0.9751663 -0.005189359 0.1152599 -0.9152891 0.01581722 0.1420195 -0.9750124 0.0374279 0.07786208 -0.9861578 0.01578855 0.07284772 -0.9996425 0.01496726 0.08494389 -0.9884037 0.03635239 0.0892145 -1.072625 -0.07881194 0.06405431 -1.056389 -0.08200997 0.04755491 -1.067399 -0.005460917 0.05807316 -1.051053 -0.01370865 0.04217422 0.08125835 -0.07663196 0.6836742 0.08953058 -0.08583223 0.8535271 0.03847682 0.09929871 0.6204597 0.08375984 0.06977856 0.8629401 0.07440775 0.02691847 0.6472807 0.08287817 -0.02616423 0.6656438 0.09813261 -0.03839343 0.8649442 0.09675788 0.01404231 0.8682821 0.0898537 -0.09157329 0.8082945 0.08733266 -0.09464508 0.7545854 0.07844704 0.09116643 0.7546728 0.08333301 0.08521378 0.8087139 0.09522557 0.01989239 0.8082945 0.08979111 0.01907473 0.7545854 0.09332776 -0.03373175 0.7545854 0.09754931 -0.03295516 0.8082945 0.1772376 -0.0606026 -0.0482918 0.2190136 -0.1557193 0.4994395 0.08625495 0.1690406 -0.1327903 0.1620513 0.05488407 0.5159915 0.1569803 -0.07382369 0.07266616 0.1273316 0.172605 0.09889042 0.2261314 -0.1255919 0.2518876 0.1718478 0.1983478 0.258239 0.04958665 -0.0580222 0.6401837 0.04958665 0.03996324 0.6248807 0.2471406 -0.1429584 0.3726386 0.1964125 0.154647 0.3836559 0.167109 -0.06721317 0.01218712 0.1081726 0.187843 -0.04938608 0.1772376 0.04569256 -0.1109884 0.2190136 0.01716947 0.490244 0.1569803 0.04939061 0.07266616 0.2224479 0.01959711 0.2458376 0.07012611 -0.009029448 0.6325322 0.2440994 0.05260658 0.388333 0.167109 0.06031489 -0.01859945 0.09511822 -0.1104375 0.5778928 0.07430946 0.04414391 0.5778928 0.09511822 -0.02598255 0.5778928 0.193727 0.01825368 -0.3467144 0.1538044 -0.1121904 -0.3271454 0.04817676 0.1474971 -0.2951126 0.1847524 0.0331878 -0.218416 0.1811299 -0.1300134 -0.163639 0.06293606 0.1607064 -0.2120774 0.1315365 -0.01818275 -0.6373326 0.09532916 -0.071491 -0.6373326 0.03920382 0.04453015 -0.6373326 0.1034739 0.03982782 -0.6373326 0.03105914 -0.06678867 -0.6373326 0.002996504 -0.008778035 -0.6373326 0.137519 -0.05158853 -0.7614694 0.09491288 -0.1112186 -0.7435799 0.02968895 0.019095 -0.7826753 0.104907 0.01356822 -0.7810171 0.01969474 -0.1056918 -0.7452381 -0.01291716 -0.04053497 -0.7647857 0.1066527 -0.02977895 -1.172154 0.08068233 -0.06766808 -1.177296 0.04042512 0.01479434 -1.166103 0.08652418 0.01145219 -1.166557 0.03458327 -0.06432592 -1.176843 0.01445466 -0.02309465 -1.171246 0.0319392 -0.1403258 -0.9009475 -0.002516448 -0.06882017 -0.9105914 0.1116535 -0.1465067 -0.9001138 0.04274189 -0.003495573 -0.9194016 0.1224561 -0.009676575 -0.918568 0.1569119 -0.08118212 -0.9089241 0.2967483 -0.098706 0.4958372 0.2905836 -0.1169719 0.3924494 0.2944921 0.00485903 0.4776746 0.2883274 -0.01340681 0.3742867 0.5295792 -0.08877426 0.3785603 0.5022248 -0.1013193 0.3004345 0.5236222 -0.00601989 0.3673578 0.4962678 -0.01856493 0.289232 0.8887324 -0.07383859 0.1793088 0.8537982 -0.08399325 0.1481529 0.880874 -0.0183776 0.1744709 0.8459398 -0.02853226 0.143315 0.6162421 -0.01753556 0.2365549 0.6502867 -0.004138827 0.3123813 0.6577953 -0.08815681 0.3234478 0.6237508 -0.1015535 0.2476214 0.1176571 -0.02304458 -1.273372 0.08920061 -0.08683234 -1.273372 0.04533225 0.0262435 -1.273372 0.09572297 0.02247786 -1.273372 0.03880989 -0.08306664 -1.273372 0.01687574 -0.01551318 -1.273372 0.05156308 0.2398392 -1.242041 0.1043955 0.2389814 -1.242157 0.1274641 0.2283998 -1.243594 0.02179938 0.2301153 -1.243361 0.008063971 0.2311027 -1.273372 0.05143332 0.2453537 -1.273372 0.1282317 0.2440685 -1.273372 0.1616606 0.2285323 -1.273372 1.028682 -0.09308254 0.08716559 1.006212 -0.09687077 0.07145172 1.021306 -0.006194829 0.08132672 0.9988351 -0.01596468 0.06633627 0.9358785 -0.0856474 0.1498942 0.9830247 -0.09745621 0.1204797 0.9480907 -0.1034713 0.08411639 0.9009445 -0.09373229 0.1161347 0.8803551 0.005655944 0.1086418 0.9402323 -0.01535737 0.07966035 0.9751664 -0.005189239 0.1152599 0.9152892 0.01581734 0.1420195 0.9750125 0.03742796 0.07786208 0.9861579 0.01578861 0.07284772 0.9996426 0.01496732 0.08494389 0.9884038 0.03635245 0.0892145 1.072625 -0.07881188 0.06405431 1.056389 -0.08200991 0.04755491 1.067399 -0.005460798 0.05807316 1.051053 -0.01370859 0.04217422</float_array>
          <technique_common>
            <accessor source="#Cube_001-mesh-positions-array" count="271" stride="3">
              <param name="X" type="float"/>
              <param name="Y" type="float"/>
              <param name="Z" type="float"/>
            </accessor>
          </technique_common>
        </source>
        <source id="Cube_001-mesh-normals">
          <float_array id="Cube_001-mesh-normals-array" count="1614">-0.9895613 -0.07559573 -0.1226937 -0.3808673 -0.8676643 0.3195291 -0.458051 0.8880106 -0.04032874 -0.24229 0.2549976 0.9360939 -0.2645649 -0.8895967 -0.3723213 -0.9996137 0.0266993 -0.007729649 -0.9013106 0.355954 -0.2468522 -0.297765 -0.2740741 0.9144504 -0.982961 0.1786838 0.04312396 -0.3398377 0.8564382 0.3886179 -0.9848577 0.1111217 -0.1330683 -0.3049638 -0.05253827 0.9509136 -0.4017129 -0.9151533 0.03348439 -0.3694864 0.9266954 0.06866937 -0.9939026 0.04370224 -0.1012311 -0.9943516 -0.09786504 -0.04107648 -0.9786071 0.178821 -0.1017405 -0.991216 -0.1301312 0.02359676 -0.04880267 -0.9948093 -0.08929032 -0.7789286 0.3866512 0.4937317 -0.9119933 0.4030235 -0.07642197 0 -0.9940794 -0.1086557 -0.9123342 0.2825931 -0.2962893 0 -0.9064069 -0.4224057 -0.8379995 -0.2779855 0.4695538 -0.3763099 0.8695679 -0.3197541 -0.9565476 0.2770754 -0.0908069 -0.1472998 -0.9884923 0.03443437 0 -0.9940794 -0.1086561 -0.7876071 0.5235038 -0.3249905 -0.9932921 0.05874615 0.09959751 -0.9854735 0.01796489 -0.1688766 -0.7942927 0.4038758 0.453854 -0.9353878 0 -0.3536238 -0.99316 0.02740025 0.1135007 -0.00732094 0.05311119 0.9985618 -0.1213012 0.9767184 -0.1769383 -0.06314599 0.9855961 -0.156885 2.56392e-4 0.9998409 0.01783698 0 0.9868025 -0.1619288 0 0.9947609 0.1022292 0 -0.7651538 0.6438475 -0.9817271 -0.07977747 -0.1727643 -0.1107834 0.7076093 0.6978654 0 -0.8660884 0.4998908 -0.5550584 0.1647034 0.8153423 0 0.9852797 0.1709499 -0.5667776 0.04375791 0.822708 0.0724774 -0.9905915 -0.1160847 0.9999468 0 -0.01031029 0.04809343 -0.9565331 -0.2876307 -0.6550254 0.7544389 -0.0419979 -0.8057566 0.5921137 -0.01255905 -0.08386766 -0.7901363 0.6071663 -0.9995823 0.0146833 0.0248937 -0.02604913 0.9933579 -0.1120778 -0.9004036 0.4290456 -0.07206493 0.8264256 0.5613141 -0.04412847 -0.1957656 0.944058 -0.265387 0.9909455 0.02304375 -0.1322727 -0.8738896 0.4227443 -0.2400088 -0.9242144 -0.3151988 -0.2155863 0.07231169 -0.9613889 -0.265523 0.8977032 -0.4203057 -0.1321816 -0.824754 -0.5307276 0.1952162 0.8790102 -0.4252213 0.2157033 0.07634097 -0.935391 0.3452765 -0.07179689 0.9812943 -0.1786241 -0.5780766 0.1739979 0.7972153 0 0 -1 -0.07633155 0.9943579 0.07366001 0.8269419 0.5601226 0.04929226 -0.9019137 0.4224995 -0.08969956 -0.7796803 -0.5739478 -0.2503651 -0.8243401 -0.5269134 0.2069438 -0.8988369 0.4372233 0.03046357 0.8207293 0.5458891 -0.168548 -0.07798141 0.9846042 -0.15644 0.8966357 -0.4422305 0.02183008 0.07625365 -0.9745567 0.2107715 -0.1229922 -0.985697 0.115215 -0.2089253 0.906588 0.366672 0.1979138 0.07535362 -0.9773188 -0.5047214 -0.8629169 0.02511483 0.07734817 0.9702304 -0.2294999 0.0359658 0.9844774 -0.1717868 -0.4381183 0.1645286 0.8837323 0.3774586 -0.150853 -0.9136565 -0.1226447 -0.9913764 0.04616469 -0.5171734 0.146831 0.8431918 0.3779518 -0.1540242 -0.9129233 -0.1259841 -0.9850526 0.1174704 -0.06183379 -0.9872523 0.1466614 0.3963209 -0.1511188 -0.9055898 -0.38954 0.1544078 0.9079741 0.07254165 0.9884153 -0.1333156 0 0 -1 0 0 -1 -0.9014586 -0.4021522 0.1601433 0.9001892 -0.4322093 -0.05342632 0.06919878 -0.9798797 0.1872097 0.9994995 0.02272397 -0.02200776 -0.3787619 0.814974 0.4385851 0.3128859 0.9351903 0.165896 -0.01647961 0.9847712 0.1730725 0 0 -1 0 0 -1 -0.007203042 0.3147988 0.9491311 -0.6526658 -0.1141582 0.7489962 0.1469138 0.3227725 0.935005 -0.2361777 -0.9660374 -0.1048417 0.2026368 0.9311586 -0.3031204 -0.5797703 0.1035297 0.8081757 0.2218567 -0.06897372 -0.9726367 0.6014414 -0.1832208 -0.7776236 0.4757438 -0.1637093 -0.8642148 -0.5500746 0.1496099 0.821605 -0.5437611 0.09349328 0.8340161 0.5173042 0.802579 0.2970915 0.1111011 0.9685107 0.2228084 -0.007998228 -0.9533509 0.3017587 0.02492356 -0.9660515 0.2571447 -0.6110287 0.451036 -0.6505463 -0.5126146 -0.8149772 -0.2702561 -0.6825845 0.2195255 0.6970558 0.3653295 0.2098184 -0.9069237 -0.7127385 4.27677e-4 -0.7014297 0.1710016 0.9354174 -0.3094396 -0.4383552 0.09725952 0.8935241 0.4139907 -0.1035892 -0.9043678 -0.151301 -0.1802721 -0.9719104 -0.6896274 0.07546013 -0.7202221 -0.9378882 0.03009444 -0.3456299 -0.7667323 -0.3998752 -0.5022165 -0.2858342 -0.7879769 -0.5453359 -0.03608834 -0.06753367 -0.9970641 -0.7112877 0.1926233 -0.6759925 -0.728125 -0.2512159 -0.6377496 -0.2883942 -0.7893334 -0.5420162 0.9892109 -0.09735882 -0.1094679 0.3808674 -0.8676642 0.3195291 0.3976332 0.9153823 -0.0629543 0.3089546 0.1618767 0.9371995 0.264565 -0.8895967 -0.3723213 0.9988095 0.04391801 -0.02123039 0.9795474 0.1542952 -0.1291512 0.297765 -0.2740741 0.9144503 0.9739232 0.2268614 -0.002753794 0.2338469 0.9356109 0.2644767 0.9916155 0.06641185 -0.1108525 0.3049638 -0.05253827 0.9509136 0.3795635 -0.9251192 -0.009279727 0.3694863 0.9266954 0.06866931 0.9946352 0.06661409 -0.07914143 0.9886372 -0.1297925 -0.07583016 0.9786071 0.178821 -0.1017405 0.991216 -0.130131 0.02359688 0 -0.9999874 -0.005023002 0.6243487 0.6772853 0.3891958 0.9697494 0.2052143 0.1321865 0 -0.9940795 -0.1086558 0.9123343 0.2825931 -0.2962893 0 -0.9064069 -0.4224057 0.8073209 0 0.5901127 -1.49445e-7 0.9960652 0.08862304 0.8860312 0.4036167 -0.2281279 0.1472998 -0.9884923 0.03443437 0 -0.9940794 -0.1086561 0.9043475 0.4256119 0.0317828 0.9847019 0.04089051 0.1693817 0.9854735 0.01796489 -0.1688766 0.9047944 0.2684813 0.3305523 0.9337752 0.008783042 -0.3577523 0.9862645 0 0.1651737 0.00732094 0.05311119 0.9985618 0.1213012 0.9767184 -0.1769383 0 0.9755185 -0.2199174 0.1826093 0.9390026 0.291424 0.002301394 0.9870967 -0.1601091 0 0.9947609 0.1022292 0 -0.7651539 0.6438475 0.9817271 -0.07977747 -0.1727643 0 0.7985168 0.6019726 0 -0.8660885 0.4998908 0.5148103 0.2101214 0.8311555 0 0.9852797 0.1709498 0.5667777 0.04375791 0.822708 -0.07291322 -0.9905433 -0.1162232 -0.9999468 0 -0.01031029 0.1244564 -0.9839275 -0.1280521 0.6976053 0.6779345 -0.2318441 0.8057565 0.5921136 -0.01255911 0 -0.8568286 0.5156012 0.9995823 0.0146833 0.0248937 0.02604913 0.9933579 -0.1120778 0.8979665 0.434391 -0.07043188 -0.8264257 0.5613141 -0.04412847 0.1957656 0.944058 -0.2653869 -0.9909455 0.02304363 -0.1322727 0.6295897 0.7644333 -0.1387746 0.9242144 -0.3151988 -0.2155861 -0.07177406 -0.9614508 -0.2654445 -0.8860849 -0.4446341 -0.1309733 0.8125332 -0.5518779 0.1876716 -0.8790102 -0.4252213 0.2157033 -0.06836467 -0.9343833 0.3496487 0.07179677 0.9812943 -0.1786241 0.5780767 0.1739979 0.7972152 0 0 -1 0.07633143 0.9943579 0.07366001 -0.8180778 0.5731607 0.04728198 0.9019137 0.4224992 -0.08969956 0.7796806 -0.5739474 -0.250365 0.8243404 -0.5269129 0.2069438 0.889238 0.455995 0.03639215 -0.8252438 0.5405247 -0.1637245 0.07579666 0.984924 -0.155498 -0.8966357 -0.4422305 0.02183008 -0.07625341 -0.9745567 0.2107715 0.1250314 -0.9782723 0.1653798 0.2089252 0.906588 0.366672 -0.1979138 0.07535362 -0.9773187 0.5047214 -0.8629169 0.02511483 -0.01988565 0.9860457 -0.1652827 -0.03596585 0.9844774 -0.1717868 0.4381181 0.1645287 0.8837324 -0.3826144 -0.1676743 -0.9085657 0.122645 -0.9913763 0.04616481 0.5140423 0.1570122 0.843272 -0.3779517 -0.1540244 -0.9129233 0.1259844 -0.9850526 0.1174707 0.06344676 -0.9886021 0.1365299 -0.3963206 -0.1511188 -0.9055899 0.3916897 0.1510592 0.9076123 -0.07254171 0.9884153 -0.1333156 0 0 -1 0 0 -1 0.8204876 -0.5693559 0.05132156 -0.9001892 -0.4322094 -0.05342626 -0.06919878 -0.9798797 0.1872097 -0.9994995 0.02272385 -0.02200776 0.3976142 0.8077418 0.4352657 -0.3128859 0.9351903 0.165896 0.01636904 0.9847412 0.173254 0 0 -1 0 0 -1 0.032386 0.3181144 0.947499 0.9932018 -0.05112242 0.1045786 -0.5226556 0.2475081 0.8158252 0.2361779 -0.9660373 -0.104842 -0.0433306 0.9710678 -0.23484 0.5911086 0.0956524 0.8009003 -0.2218567 -0.06897372 -0.9726367 -0.5765695 -0.1517274 -0.8028365 -0.4757438 -0.1637093 -0.8642147 0.5500746 0.1496098 0.8216051 0.4488546 0.1593238 0.8792869 -0.5030661 0.8105498 0.2998893 -0.3082982 0.9507087 0.03324371 0.007998049 -0.9533509 0.3017586 -0.02492344 -0.9660515 0.2571446 0.5955416 0.4594362 -0.6589754 0.5126147 -0.8149772 -0.270256 0.481822 0.3501042 0.8032898 -0.3653295 0.2098184 -0.9069237 0.7127386 4.27672e-4 -0.7014297 -0.1888872 0.9278525 -0.3215763 0.4383561 0.09725958 0.8935236 -0.4051191 -0.09443396 -0.9093738 0.151301 -0.1802721 -0.9719104 0.6896274 0.07546025 -0.7202221 0.9378882 0.03009444 -0.3456299 0.7667323 -0.3998752 -0.5022165 0.2858342 -0.7879768 -0.545336 0.03608834 -0.06753367 -0.9970641 0.7112877 0.1926233 -0.6759927 0.728125 -0.2512159 -0.6377496 0.2883943 -0.7893334 -0.5420162 -0.9892109 -0.09735906 -0.1094676 -0.2828168 -0.9512858 0.1227608 -0.3976331 0.9153823 -0.0629543 -0.3089546 0.1618766 0.9371995 -0.3666846 -0.8937292 -0.2584387 -0.9988095 0.04391801 -0.02123039 -0.9795474 0.1542949 -0.1291512 -0.2015087 -0.4308605 0.8796326 -0.9739232 0.2268614 -0.002753794 -0.2338469 0.9356109 0.2644766 -0.9916155 0.06641173 -0.1108524 -0.320662 -0.08430731 0.9434343 -0.3795635 -0.9251192 -0.009279727 -0.3956233 0.9112107 0.1147919 -0.9946352 0.06661391 -0.07914155 -0.9886372 -0.1297926 -0.07583028 -0.985268 0.1551258 -0.07199281 -0.9847116 -0.1721396 -0.02666425 0 -0.9999874 -0.005023002 -0.6243487 0.6772853 0.3891958 -0.9697494 0.2052143 0.1321865 0 -0.9940794 -0.1086558 -0.9122391 0.279041 -0.2999264 -0.1335634 -0.9371879 -0.3222417 -0.807321 0 0.5901127 0 0.9960652 0.08862322 -0.8860311 0.4036169 -0.2281279 -0.04844075 -0.9874316 -0.1504405 0 -0.9940794 -0.1086561 -0.9043475 0.4256118 0.03178286 -0.9847019 0.04089051 0.1693817 -0.9872868 0.02791053 -0.1564797 -0.9047945 0.2684813 0.3305523 -0.9337752 0.008783042 -0.3577523 -0.9862645 0 0.1651737 -0.1892603 0.1736149 0.9664566 -0.1307467 0.9783495 -0.1604293 0 0.9755185 -0.2199174 -0.1826094 0.9390025 0.2914242 -0.002301394 0.9870967 -0.1601091 0 0.9947609 0.1022292 -0.3678271 -0.834802 0.4096447 -0.9555722 -0.2775793 0.09915405 0 0.7985168 0.6019725 0 -0.8660885 0.4998908 -0.5148103 0.2101213 0.8311555 0 0.9852797 0.1709498 -0.5349847 0 0.8448618 0.07291328 -0.9905433 -0.1162232 0.8910322 -0.4310369 -0.1423686 -0.1244563 -0.9839275 -0.128052 -0.6976053 0.6779344 -0.2318441 -0.6887707 0.6715487 -0.2731618 0 -0.8568287 0.5156012 -0.9975715 0.001230955 0.06963825 -0.03107154 0.9965201 -0.07734453 -0.8979663 0.4343914 -0.07043194 0.8186881 0.5728082 -0.0405032 -0.06940215 0.9485637 -0.3088855 0.8247673 0.5601878 -0.07712769 -0.6295898 0.7644333 -0.1387748 -0.8225728 -0.5586974 -0.1059784 0.07177412 -0.9614508 -0.2654445 0.886085 -0.444634 -0.1309733 -0.8125329 -0.5518782 0.1876716 0.8960214 -0.3791513 0.2310627 0.06836491 -0.9343833 0.3496487 -0.07599985 0.9813246 -0.1767088 -0.1938334 0.2955919 0.9354433 0 0 -1 -0.07283145 0.9946648 0.07305854 0.8180778 0.5731607 0.04728198 -0.8899948 0.4468215 -0.09088486 -0.8130086 -0.5223484 -0.2572336 -0.8161065 -0.5364227 0.2149901 -0.8892379 0.4559953 0.03639209 0.8252438 0.5405248 -0.1637246 -0.07579678 0.984924 -0.155498 0.9019006 -0.4312199 0.02499246 0.07775771 -0.974317 0.2113291 -0.1250315 -0.9782722 0.1653797 -0.8065136 0.5720891 -0.1491636 -0.4795367 -0.1414356 -0.8660489 -0.5912749 -0.799475 0.10599 0.01988554 0.9860457 -0.1652827 0.03534662 0.9885985 -0.1463682 -0.4346235 0.1514653 0.8877841 0.3826144 -0.1676743 -0.9085656 -0.1316349 -0.9900145 0.05043274 -0.5140423 0.1570122 0.843272 0.3846387 -0.1341651 -0.913265 -0.152595 -0.9772333 0.1474106 -0.06344664 -0.9886021 0.1365302 0.3940338 -0.1545506 -0.9060086 -0.3916898 0.151059 0.9076125 0.0710476 0.9872383 -0.1425226 0 0 -1 0 0 -1 -0.8204876 -0.569356 0.05132156 0.9509603 -0.3087705 0.01830774 0.0731818 -0.9792755 0.1888487 0.9092153 -0.03248685 0.415057 -0.3976142 0.8077418 0.4352657 0.3075466 0.9359411 0.1715494 -0.01636904 0.9847411 0.173254 0 0 -1 0 0 -1 -0.032386 0.3181143 0.947499 -0.9932018 -0.05112248 0.1045786 0.5226555 0.2475081 0.8158254 -0.2698248 -0.959621 -0.07951247 0.04333049 0.9710678 -0.23484 -0.5911086 0.0956524 0.8009003 0.2035102 -0.08025103 -0.9757784 0.5765694 -0.1517274 -0.8028365 0.5723919 -0.09225273 -0.8147742 -0.5751903 0.1786721 0.7982684 -0.4488546 0.1593238 0.879287 0.5030662 0.8105497 0.2998893 0.3082982 0.9507087 0.03324371 0.0586701 -0.9553756 0.2895087 0.08889448 -0.965415 0.2450955 -0.5955415 0.4594362 -0.6589754 -0.2758173 -0.8880684 -0.3677763 -0.4818221 0.3501043 0.8032898 0.2194401 0.1115697 -0.9692257 -0.6993828 -0.008456766 -0.7146973 0.188887 0.9278525 -0.3215767 -0.4466324 0.1042755 0.8886203 0.4051183 -0.0944339 -0.9093742 0.9895613 -0.07559579 -0.1226938 0.2828169 -0.9512857 0.1227607 0.458051 0.8880106 -0.04032874 0.2422899 0.2549976 0.9360939 0.3666845 -0.8937292 -0.2584387 0.9996137 0.0266993 -0.007729649 0.9013105 0.3559542 -0.2468522 0.2015088 -0.4308605 0.8796327 0.982961 0.1786838 0.04312396 0.3398377 0.8564383 0.3886179 0.9848577 0.1111217 -0.1330684 0.320662 -0.08430731 0.9434343 0.4017131 -0.9151532 0.03348475 0.3956233 0.9112107 0.1147919 0.9939026 0.04370224 -0.1012311 0.9943517 -0.09786474 -0.04107636 0.985268 0.155126 -0.07199305 0.9847116 -0.1721395 -0.02666425 0.04880279 -0.9948093 -0.08929032 0.7789286 0.3866511 0.4937317 0.9119933 0.4030235 -0.07642197 0 -0.9940794 -0.1086557 0.9122391 0.2790412 -0.2999262 0.1335635 -0.9371879 -0.3222417 0.8379996 -0.2779854 0.4695538 0.3763096 0.8695679 -0.3197541 0.9565476 0.2770756 -0.09080713 0.04844087 -0.9874316 -0.1504405 0 -0.9940794 -0.1086561 0.7876071 0.5235038 -0.3249905 0.9932921 0.05874621 0.09959751 0.9872868 0.02791053 -0.1564797 0.7942926 0.4038758 0.453854 0.9353877 0 -0.3536238 0.9931601 0.02740025 0.1135007 0.1892603 0.1736149 0.9664566 0.1307467 0.9783495 -0.1604293 0.06314599 0.9855961 -0.156885 -2.56392e-4 0.9998409 0.01783698 0 0.9868025 -0.1619288 0 0.9947609 0.1022292 0.3678272 -0.8348019 0.4096447 0.9555722 -0.2775793 0.09915405 0.1107833 0.7076094 0.6978655 0 -0.8660885 0.4998908 0.5550585 0.1647034 0.8153422 -1.48182e-7 0.9852797 0.1709499 0.5349849 0 0.8448617 -0.07247716 -0.9905915 -0.1160846 -0.8910322 -0.431037 -0.1423686 -0.04809337 -0.9565331 -0.2876307 0.6550253 0.7544388 -0.04199796 0.6887707 0.6715487 -0.2731618 0.08386772 -0.7901362 0.6071663 0.9975715 0.001230955 0.06963825 0.03107154 0.9965201 -0.07734453 0.9004037 0.4290453 -0.07206481 -0.8186882 0.5728082 -0.0405032 0.06940203 0.9485637 -0.3088855 -0.8247673 0.5601876 -0.07712769 0.8738898 0.4227439 -0.2400088 0.8225729 -0.5586971 -0.1059785 -0.07231169 -0.9613888 -0.265523 -0.8977032 -0.4203057 -0.1321816 0.8247542 -0.530727 0.1952161 -0.8960214 -0.3791513 0.2310627 -0.07634079 -0.935391 0.3452765 0.07599979 0.9813246 -0.1767087 0.1938334 0.295592 0.9354433 0 0 -1 0.07283139 0.9946648 0.07305854 -0.826942 0.5601224 0.04929226 0.8899948 0.4468215 -0.09088486 0.8130087 -0.5223484 -0.2572335 0.8161068 -0.5364224 0.2149901 0.8988371 0.437223 0.03046363 -0.8207294 0.5458891 -0.168548 0.07798129 0.9846042 -0.15644 -0.9019006 -0.43122 0.02499246 -0.07775771 -0.974317 0.2113291 0.1229921 -0.985697 0.1152147 0.8065136 0.5720891 -0.1491636 0.4795367 -0.1414356 -0.8660488 0.5912749 -0.799475 0.10599 -0.07734829 0.9702304 -0.2294999 -0.03534668 0.9885985 -0.1463682 0.4346234 0.1514656 0.8877841 -0.3774586 -0.150853 -0.9136565 0.1316349 -0.9900145 0.05043274 0.5171734 0.146831 0.8431918 -0.3846387 -0.1341651 -0.9132649 0.1525949 -0.9772333 0.1474104 0.06183373 -0.9872522 0.1466616 -0.3940332 -0.1545509 -0.9060087 0.3895401 0.1544078 0.907974 -0.0710476 0.9872384 -0.1425226 0 0 -1 0 0 -1 0.9014587 -0.4021521 0.1601432 -0.9509603 -0.3087706 0.01830774 -0.0731815 -0.9792756 0.1888486 -0.9092153 -0.03248691 0.415057 0.3787623 0.8149738 0.4385851 -0.3075466 0.9359412 0.1715495 0.01647961 0.9847712 0.1730725 0 0 -1 0 0 -1 0.007203042 0.3147988 0.9491311 0.6526663 -0.1141582 0.7489959 -0.1469138 0.3227725 0.935005 0.2698254 -0.9596208 -0.07951265 -0.2026369 0.9311586 -0.3031204 0.5797703 0.1035297 0.8081757 -0.2035102 -0.08025103 -0.9757784 -0.6014414 -0.1832209 -0.7776236 -0.5723919 -0.09225273 -0.8147742 0.5751903 0.1786721 0.7982684 0.5437611 0.09349328 0.8340162 -0.5173043 0.802579 0.2970914 -0.1111011 0.9685107 0.2228084 -0.0586701 -0.9553756 0.2895087 -0.08889406 -0.965415 0.2450955 0.6110287 0.451036 -0.6505463 0.2758174 -0.8880684 -0.3677763 0.6825845 0.2195255 0.6970558 -0.2194401 0.1115697 -0.9692256 0.6993827 -0.008456766 -0.7146973 -0.171002 0.9354174 -0.3094393 0.4466333 0.1042755 0.8886199 -0.4139915 -0.1035893 -0.9043675</float_array>
          <technique_common>
            <accessor source="#Cube_001-mesh-normals-array" count="538" stride="3">
              <param name="X" type="float"/>
              <param name="Y" type="float"/>
              <param name="Z" type="float"/>
            </accessor>
          </technique_common>
        </source>
        <source id="Cube_001-mesh-map-0">
          <float_array id="Cube_001-mesh-map-0-array" count="3228">0.375 0.25 0.4660116 0.3370637 0.375 0.3316233 0.6250001 0.125 0.5535107 0.25 0.5369816 0.125 0.375 0.5 0.4783663 0.625 0.3750001 0.625 0.625 0.5 0.7174506 0.625 0.625 0.625 0.4636037 0.125 0.375 0.25 0.375 0.125 0.6250001 0.4156315 0.5442035 0.3363016 0.6250001 0.3311949 0.375 0.4082801 0.4767932 0.5000001 0.375 0.5 0.8750001 0.5000001 0.7815917 0.6250001 0.7938052 0.5000001 0.5428493 0.4108949 0.625 0.5 0.5490843 0.5 0.5490843 0.5 0.625 0.625 0.5373701 0.625 0.375 0.3316233 0.4710571 0.4083909 0.375 0.4082801 0.7815917 0.6250001 0.7093685 0.5 0.7938052 0.5000001 0.4609198 0.25 0.5369816 0.125 0.5535107 0.25 0.5373701 0.625 0.4767932 0.5000001 0.5490843 0.5 0.4710571 0.4083909 0.5442035 0.3363016 0.5428493 0.4108949 0.5535107 0.25 0.4660116 0.3370637 0.4609198 0.25 0.5490843 0.5 0.4710571 0.4083909 0.5428493 0.4108949 0.625 0.25 0.5442035 0.3363016 0.5535107 0.25 0.5887078 0.125 0.625 0.25 0.5887078 0.25 0.5887078 0.375 0.625 0.5 0.5887079 0.5 0.4389258 0.375 0.5028517 0.5 0.4389258 0.5 0.4389259 0.125 0.5028517 0.25 0.4389259 0.25 0.5524157 0.375 0.5028517 0.5 0.5028517 0.375 0.5524157 0.125 0.5028517 0.25 0.5028517 0.125 0.625 0.375 0.625 0.25 0.625 0.375 0.625 0.625 0.625 0.5 0.625 0.625 0.5524157 0.375 0.5887079 0.5 0.5524157 0.5 0.5887078 0.125 0.5524157 0.25 0.5524157 0.125 0.375 0.125 0.4389259 0.25 0.375 0.25 0.375 0.375 0.4389258 0.5 0.375 0.5 0.375 0.25 0.4389258 0.375 0.375 0.375 0.5887078 0.25 0.5524157 0.375 0.5524157 0.25 0.625 0.5 0.625 0.375 0.625 0.5 0.5028517 0.25 0.5524157 0.375 0.5028517 0.375 0.4389259 0.25 0.5028517 0.375 0.4389258 0.375 0.625 0.375 0.625 0.25 0.625 0.25 0.375 0.625 0.375 0.5 0.375 0.5 0.375 0.5 0.4389258 0.625 0.375 0.625 0.5524157 0.5 0.5887079 0.625 0.5524157 0.625 0.5028517 0.5 0.5524157 0.625 0.5028517 0.625 0.4389258 0.5 0.5028517 0.625 0.4389258 0.625 0.625 0.125 0.625 0.25 0.625 0.25 0.375 0.375 0.375 0.25 0.375 0.25 0.5887079 0.5 0.625 0.625 0.5887079 0.625 0.625 0.125 0.625 0.25 0.625 0.25 0.625 0.5 0.625 0.375 0.625 0.5 0.625 0.625 0.625 0.5 0.625 0.625 0.625 0.25 0.625 0.375 0.625 0.375 0.375 0.125 0.375 0.25 0.375 0.125 0 0 0 0 0 0 0.375 0.125 0.375 0.25 0.375 0.125 0.375 0.375 0.375 0.5 0.375 0.375 0.375 0.5 0.375 0.375 0.375 0.375 0.375 0.125 0.375 0.25 0.375 0.125 0.375 0.375 0.375 0.25 0.375 0.25 0.375 0.625 0.375 0.5 0.375 0.5 0.375 0.375 0.375 0.5 0.375 0.375 0 0 0 0 0 0 0.375 0.625 0.375 0.5 0.375 0.5 0 0 0 0 0 0 0.375 0.375 0.375 0.5 0.375 0.375 0.375 0.375 0.375 0.25 0.375 0.25 0.375 0.125 0.375 0.25 0.375 0.125 0 0 0 0 0 0 0.375 0.25 0.375 0.375 0.375 0.25 0 0 0 0 0 0 0.375 0.125 0.375 0.25 0.375 0.125 0.375 0.625 0.375 0.5 0.375 0.5 0.375 0.5 0.375 0.375 0.375 0.375 0.375 0.5 0.375 0.625 0.375 0.625 0.375 0.625 0.375 0.5 0.375 0.5 0 0 0 0 0 0 0.375 0.5 0.375 0.375 0.375 0.375 0.375 0.375 0.375 0.25 0.375 0.25 0.375 0.375 0.375 0.25 0.375 0.25 0.375 0.375 0.375 0.5 0.375 0.375 0 0 0 0 0 0 0.375 0.5 0.375 0.625 0.375 0.5 0 0 0 0 0 0 0.375 0.25 0.375 0.125 0.375 0.125 0.5887078 0.25 0.625 0.25 0.5887078 0.25 0.5887078 0.375 0.625 0.375 0.625 0.375 0.5887078 0.25 0.5887078 0.375 0.5887078 0.375 0.625 0.25 0.5887078 0.25 0.5887078 0.25 0.625 0.375 0.5887078 0.375 0.625 0.375 0.5887078 0.375 0.625 0.375 0.625 0.375 0.625 0.375 0.625 0.25 0.625 0.25 0.5887078 0.375 0.5887078 0.25 0.5887078 0.375 0.625 0.25 0.5887078 0.25 0.5887078 0.25 0.625 0.25 0.625 0.375 0.625 0.25 0.5887077 0.25 0.5887078 0.375 0.5887078 0.375 0.625 0.25 0.5887078 0.25 0.5887077 0.25 0.5887078 0.25 0.625 0.25 0.5887077 0.25 0.5887078 0.25 0.5887078 0.375 0.5887078 0.375 0.625 0.25 0.625 0.375 0.625 0.25 0.5887078 0.375 0.625 0.375 0.625 0.375 0.25 0.5 0.125 0.625 0.125 0.5 0.375 0.5 0.25 0.625 0.25 0.5 0.375 0.25 0.375 0.375 0.375 0.25 0 0 0 0 0 0 0.375 0.25 0.375 0.125 0.375 0.125 0 0 0 0 0 0 0.375 0.375 0.375 0.5 0.375 0.375 0 0 0 0 0 0 0.375 0.5 0.375 0.625 0.375 0.5 0.375 0.625 0.25 0.625 0.25 0.625 0.375 0.5 0.25 0.5 0.375 0.5 0.375 0.5 0.375 0.625 0.375 0.5 0.375 0.375 0.375 0.375 0.375 0.375 0 0 0 0 0 0 0.625 0.25 0.5887078 0.25 0.5887078 0.25 0.6249999 0.375 0.5887078 0.375 0.625 0.375 0.625 0.25 0.625 0.375 0.625 0.25 0.5887078 0.25 0.5887078 0.375 0.5887078 0.375 0.5887078 0.375 0.5887077 0.25 0.5887078 0.375 0.5887077 0.25 0.5887078 0.375 0.5887078 0.375 0.625 0.375 0.625 0.25 0.625 0.25 0.625 0.25 0.6249999 0.375 0.625 0.25 0.625 0.375 0.5887078 0.375 0.6249999 0.375 0.6249999 0.375 0.5887078 0.375 0.6249999 0.375 0.625 0.25 0.5887077 0.25 0.5887078 0.25 0.625 0.25 0.5887078 0.25 0.5887077 0.25 0.6249999 0.375 0.5887078 0.375 0.6249999 0.375 0.6249999 0.375 0.5887078 0.375 0.5887078 0.375 0.6249999 0.375 0.6249999 0.375 0.6249999 0.375 0.5887078 0.375 0.5887078 0.375 0.5887078 0.375 0.625 0.25 0.5887078 0.375 0.5887078 0.25 0.625 0.375 0.5887078 0.375 0.625 0.375 0.625 0.375 0.625 0.25 0.625 0.25 0.5887078 0.375 0.5887078 0.25 0.5887078 0.375 0.625 0.625 0.375 0.5 0.3750001 0.625 0.625 0.5 0.375 0.4082801 0.375 0.5 0.625 0.375 0.375 0.3316233 0.375 0.4082801 0.625 0.25 0.375 0.3316233 0.625 0.375 0.625 0.25 0.375 0.125 0.375 0.25 0.625 0.625 0.625 0.5 0.375 0.5 0.625 0.5 0.625 0.375 0.375 0.4082801 0.625 0.25 0.375 0.25 0.375 0.3316233 0.625 0.25 0.625 0.125 0.375 0.125 0.375 0.25 0.4660116 0.3370637 0.4609198 0.25 0.5535107 0.25 0.6250001 0.125 0.5369816 0.125 0.375 0.5 0.4783663 0.625 0.4767932 0.5000001 0.625 0.5 0.7174506 0.625 0.7093685 0.5 0.375 0.25 0.4636037 0.125 0.375 0.125 0.6250001 0.4156315 0.5442035 0.3363016 0.5428493 0.4108949 0.375 0.4082801 0.4767932 0.5000001 0.4710571 0.4083909 0.7815917 0.6250001 0.8750001 0.5000001 0.7938052 0.5000001 0.5428493 0.4108949 0.625 0.5 0.6250001 0.4156315 0.5490843 0.5 0.625 0.625 0.625 0.5 0.375 0.3316233 0.4710571 0.4083909 0.4660116 0.3370637 0.7093685 0.5 0.7815917 0.6250001 0.7938052 0.5000001 0.4609198 0.25 0.5369816 0.125 0.4636037 0.125 0.4767932 0.5000001 0.5373701 0.625 0.5490843 0.5 0.4710571 0.4083909 0.5442035 0.3363016 0.4660116 0.3370637 0.5535107 0.25 0.4660116 0.3370637 0.5442035 0.3363016 0.4710571 0.4083909 0.5490843 0.5 0.5428493 0.4108949 0.5442035 0.3363016 0.625 0.25 0.5535107 0.25 0.5887078 0.125 0.625 0.25 0.625 0.125 0.5887078 0.375 0.625 0.5 0.625 0.375 0.4389258 0.375 0.5028517 0.5 0.5028517 0.375 0.4389259 0.125 0.5028517 0.25 0.5028517 0.125 0.5028517 0.5 0.5524157 0.375 0.5028517 0.375 0.5028517 0.25 0.5524157 0.125 0.5028517 0.125 0.625 0.375 0.625 0.25 0.625 0.25 0.625 0.625 0.625 0.5 0.625 0.5 0.5524157 0.375 0.5887079 0.5 0.5887078 0.375 0.5524157 0.25 0.5887078 0.125 0.5524157 0.125 0.375 0.125 0.4389259 0.25 0.4389259 0.125 0.375 0.375 0.4389258 0.5 0.4389258 0.375 0.375 0.25 0.4389258 0.375 0.4389259 0.25 0.5524157 0.375 0.5887078 0.25 0.5524157 0.25 0.625 0.5 0.625 0.375 0.625 0.375 0.5028517 0.25 0.5524157 0.375 0.5524157 0.25 0.4389259 0.25 0.5028517 0.375 0.5028517 0.25 0.625 0.25 0.625 0.375 0.625 0.25 0.375 0.5 0.375 0.625 0.375 0.5 0.375 0.5 0.4389258 0.625 0.4389258 0.5 0.5524157 0.5 0.5887079 0.625 0.5887079 0.5 0.5028517 0.5 0.5524157 0.625 0.5524157 0.5 0.4389258 0.5 0.5028517 0.625 0.5028517 0.5 0.625 0.25 0.625 0.125 0.625 0.25 0.375 0.25 0.375 0.375 0.375 0.25 0.5887079 0.5 0.625 0.625 0.625 0.5 0.625 0.25 0.625 0.125 0.625 0.25 0.625 0.5 0.625 0.375 0.625 0.375 0.625 0.625 0.625 0.5 0.625 0.5 0.625 0.375 0.625 0.25 0.625 0.375 0.375 0.125 0.375 0.25 0.375 0.25 0 0 0 0 0 0 0.375 0.125 0.375 0.25 0.375 0.25 0.375 0.375 0.375 0.5 0.375 0.5 0.375 0.375 0.375 0.5 0.375 0.375 0.375 0.125 0.375 0.25 0.375 0.25 0.375 0.25 0.375 0.375 0.375 0.25 0.375 0.5 0.375 0.625 0.375 0.5 0.375 0.375 0.375 0.5 0.375 0.5 0 0 0 0 0 0 0.375 0.5 0.375 0.625 0.375 0.5 0 0 0 0 0 0 0.375 0.375 0.375 0.5 0.375 0.5 0.375 0.25 0.375 0.375 0.375 0.25 0.375 0.125 0.375 0.25 0.375 0.25 0 0 0 0 0 0 0.375 0.25 0.375 0.375 0.375 0.375 0 0 0 0 0 0 0.375 0.125 0.375 0.25 0.375 0.25 0.375 0.5 0.375 0.625 0.375 0.5 0.375 0.375 0.375 0.5 0.375 0.375 0.375 0.625 0.375 0.5 0.375 0.625 0.375 0.5 0.375 0.625 0.375 0.5 0 0 0 0 0 0 0.375 0.375 0.375 0.5 0.375 0.375 0.375 0.25 0.375 0.375 0.375 0.25 0.375 0.25 0.375 0.375 0.375 0.25 0.375 0.375 0.375 0.5 0.375 0.5 0 0 0 0 0 0 0.375 0.5 0.375 0.625 0.375 0.625 0 0 0 0 0 0 0.375 0.125 0.375 0.25 0.375 0.125 0.5887078 0.25 0.625 0.25 0.625 0.25 0.625 0.375 0.5887078 0.375 0.625 0.375 0.5887078 0.375 0.5887078 0.25 0.5887078 0.375 0.5887078 0.25 0.625 0.25 0.5887078 0.25 0.625 0.375 0.5887078 0.375 0.5887078 0.375 0.625 0.375 0.5887078 0.375 0.625 0.375 0.625 0.25 0.625 0.375 0.625 0.25 0.5887078 0.375 0.5887078 0.25 0.5887078 0.25 0.5887078 0.25 0.625 0.25 0.5887078 0.25 0.625 0.25 0.625 0.375 0.625 0.375 0.5887078 0.375 0.5887077 0.25 0.5887078 0.375 0.5887078 0.25 0.625 0.25 0.5887077 0.25 0.5887078 0.25 0.625 0.25 0.625 0.25 0.5887078 0.375 0.5887078 0.25 0.5887078 0.375 0.625 0.25 0.625 0.375 0.625 0.375 0.625 0.375 0.5887078 0.375 0.625 0.375 0.125 0.625 0.25 0.5 0.125 0.5 0.25 0.625 0.375 0.5 0.25 0.5 0.375 0.25 0.375 0.375 0.375 0.375 0 0 0 0 0 0 0.375 0.125 0.375 0.25 0.375 0.125 0 0 0 0 0 0 0.375 0.375 0.375 0.5 0.375 0.5 0 0 0 0 0 0 0.375 0.5 0.375 0.625 0.375 0.625 0.25 0.625 0.375 0.625 0.25 0.625 0.375 0.5 0.25 0.5 0.25 0.5 0.375 0.5 0.375 0.625 0.375 0.625 0.375 0.375 0.375 0.375 0.375 0.375 0 0 0 0 0 0 0.5887078 0.25 0.625 0.25 0.5887078 0.25 0.6249999 0.375 0.5887078 0.375 0.5887078 0.375 0.625 0.25 0.625 0.375 0.6249999 0.375 0.5887078 0.375 0.5887078 0.25 0.5887078 0.375 0.5887078 0.375 0.5887077 0.25 0.5887078 0.25 0.5887078 0.375 0.5887077 0.25 0.5887078 0.375 0.625 0.25 0.625 0.375 0.625 0.25 0.625 0.25 0.6249999 0.375 0.6249999 0.375 0.625 0.375 0.5887078 0.375 0.5887078 0.375 0.6249999 0.375 0.5887078 0.375 0.5887078 0.375 0.5887077 0.25 0.625 0.25 0.5887078 0.25 0.5887078 0.25 0.625 0.25 0.5887077 0.25 0.6249999 0.375 0.5887078 0.375 0.5887078 0.375 0.5887078 0.375 0.6249999 0.375 0.5887078 0.375 0.6249999 0.375 0.6249999 0.375 0.6249999 0.375 0.5887078 0.375 0.5887078 0.375 0.5887078 0.375 0.5887078 0.375 0.625 0.25 0.5887078 0.25 0.625 0.375 0.5887078 0.375 0.5887078 0.375 0.625 0.25 0.625 0.375 0.625 0.25 0.5887078 0.375 0.5887078 0.25 0.5887078 0.25 0.625 0.625 0.3750001 0.625 0.375 0.5 0.625 0.5 0.375 0.5 0.375 0.4082801 0.625 0.375 0.375 0.4082801 0.375 0.3316233 0.625 0.25 0.625 0.375 0.375 0.3316233 0.625 0.25 0.375 0.25 0.375 0.125 0.625 0.625 0.375 0.5 0.625 0.5 0.625 0.5 0.375 0.4082801 0.625 0.375 0.625 0.25 0.375 0.3316233 0.375 0.25 0.625 0.25 0.375 0.125 0.625 0.125 0.375 0.25 0.4609198 0.25 0.4660116 0.3370637 0.6250001 0.125 0.625 0.25 0.5535107 0.25 0.375 0.5 0.4767932 0.5000001 0.4783663 0.625 0.625 0.5 0.7093685 0.5 0.7174506 0.625 0.4636037 0.125 0.4609198 0.25 0.375 0.25 0.6250001 0.4156315 0.5428493 0.4108949 0.5442035 0.3363016 0.375 0.4082801 0.4710571 0.4083909 0.4767932 0.5000001 0.8750001 0.5000001 0.8750001 0.6250001 0.7815917 0.6250001 0.5428493 0.4108949 0.6250001 0.4156315 0.625 0.5 0.5490843 0.5 0.625 0.5 0.625 0.625 0.375 0.3316233 0.4660116 0.3370637 0.4710571 0.4083909 0.7815917 0.6250001 0.7174506 0.625 0.7093685 0.5 0.4609198 0.25 0.4636037 0.125 0.5369816 0.125 0.5373701 0.625 0.4783663 0.625 0.4767932 0.5000001 0.4710571 0.4083909 0.4660116 0.3370637 0.5442035 0.3363016 0.5535107 0.25 0.5442035 0.3363016 0.4660116 0.3370637 0.5490843 0.5 0.4767932 0.5000001 0.4710571 0.4083909 0.625 0.25 0.6250001 0.3311949 0.5442035 0.3363016 0.5887078 0.125 0.625 0.125 0.625 0.25 0.5887078 0.375 0.625 0.375 0.625 0.5 0.4389258 0.375 0.5028517 0.375 0.5028517 0.5 0.4389259 0.125 0.5028517 0.125 0.5028517 0.25 0.5524157 0.375 0.5524157 0.5 0.5028517 0.5 0.5524157 0.125 0.5524157 0.25 0.5028517 0.25 0.625 0.375 0.625 0.25 0.625 0.25 0.625 0.625 0.625 0.5 0.625 0.5 0.5524157 0.375 0.5887078 0.375 0.5887079 0.5 0.5887078 0.125 0.5887078 0.25 0.5524157 0.25 0.375 0.125 0.4389259 0.125 0.4389259 0.25 0.375 0.375 0.4389258 0.375 0.4389258 0.5 0.375 0.25 0.4389259 0.25 0.4389258 0.375 0.5887078 0.25 0.5887078 0.375 0.5524157 0.375 0.625 0.5 0.625 0.375 0.625 0.375 0.5028517 0.25 0.5524157 0.25 0.5524157 0.375 0.4389259 0.25 0.5028517 0.25 0.5028517 0.375 0.625 0.375 0.625 0.375 0.625 0.25 0.375 0.625 0.375 0.625 0.375 0.5 0.375 0.5 0.4389258 0.5 0.4389258 0.625 0.5524157 0.5 0.5887079 0.5 0.5887079 0.625 0.5028517 0.5 0.5524157 0.5 0.5524157 0.625 0.4389258 0.5 0.5028517 0.5 0.5028517 0.625 0.625 0.125 0.625 0.125 0.625 0.25 0.375 0.375 0.375 0.375 0.375 0.25 0.5887079 0.5 0.625 0.5 0.625 0.625 0.625 0.125 0.625 0.125 0.625 0.25 0.625 0.5 0.625 0.375 0.625 0.375 0.625 0.625 0.625 0.5 0.625 0.5 0.625 0.25 0.625 0.25 0.625 0.375 0.375 0.125 0.375 0.25 0.375 0.25 0 0 0 0 0 0 0.375 0.125 0.375 0.25 0.375 0.25 0.375 0.375 0.375 0.5 0.375 0.5 0.375 0.5 0.375 0.5 0.375 0.375 0.375 0.125 0.375 0.25 0.375 0.25 0.375 0.375 0.375 0.375 0.375 0.25 0.375 0.625 0.375 0.625 0.375 0.5 0.375 0.375 0.375 0.5 0.375 0.5 0 0 0 0 0 0 0.375 0.625 0.375 0.625 0.375 0.5 0 0 0 0 0 0 0.375 0.375 0.375 0.5 0.375 0.5 0.375 0.375 0.375 0.375 0.375 0.25 0.375 0.125 0.375 0.25 0.375 0.25 0 0 0 0 0 0 0.375 0.25 0.375 0.375 0.375 0.375 0 0 0 0 0 0 0.375 0.125 0.375 0.25 0.375 0.25 0.375 0.625 0.375 0.625 0.375 0.5 0.375 0.5 0.375 0.5 0.375 0.375 0.375 0.5 0.375 0.5 0.375 0.625 0.375 0.625 0.375 0.625 0.375 0.5 0 0 0 0 0 0 0.375 0.5 0.375 0.5 0.375 0.375 0.375 0.375 0.375 0.375 0.375 0.25 0.375 0.375 0.375 0.375 0.375 0.25 0.375 0.375 0.375 0.5 0.375 0.5 0 0 0 0 0 0 0.375 0.5 0.375 0.625 0.375 0.625 0 0 0 0 0 0 0.375 0.25 0.375 0.25 0.375 0.125 0.5887078 0.25 0.625 0.25 0.625 0.25 0.5887078 0.375 0.5887078 0.375 0.625 0.375 0.5887078 0.25 0.5887078 0.25 0.5887078 0.375 0.625 0.25 0.625 0.25 0.5887078 0.25 0.625 0.375 0.5887078 0.375 0.5887078 0.375 0.5887078 0.375 0.5887078 0.375 0.625 0.375 0.625 0.375 0.625 0.375 0.625 0.25 0.5887078 0.375 0.5887078 0.25 0.5887078 0.25 0.625 0.25 0.625 0.25 0.5887078 0.25 0.625 0.25 0.625 0.375 0.625 0.375 0.5887077 0.25 0.5887078 0.25 0.5887078 0.375 0.625 0.25 0.625 0.25 0.5887078 0.25 0.5887078 0.25 0.625 0.25 0.625 0.25 0.5887078 0.25 0.5887077 0.25 0.5887078 0.375 0.625 0.25 0.625 0.375 0.625 0.375 0.5887078 0.375 0.5887078 0.375 0.625 0.375 0.25 0.5 0.25 0.625 0.125 0.625 0.375 0.5 0.375 0.625 0.25 0.625 0.375 0.25 0.375 0.375 0.375 0.375 0 0 0 0 0 0 0.375 0.25 0.375 0.25 0.375 0.125 0 0 0 0 0 0 0.375 0.375 0.375 0.5 0.375 0.5 0 0 0 0 0 0 0.375 0.5 0.375 0.625 0.375 0.625 0.375 0.625 0.375 0.625 0.25 0.625 0.375 0.5 0.25 0.5 0.25 0.5 0.375 0.5 0.375 0.625 0.375 0.625 0.375 0.375 0.375 0.375 0.375 0.375 0 0 0 0 0 0 0.625 0.25 0.625 0.25 0.5887078 0.25 0.6249999 0.375 0.5887078 0.375 0.5887078 0.375 0.625 0.25 0.6249999 0.375 0.625 0.375 0.5887078 0.25 0.5887078 0.25 0.5887078 0.375 0.5887078 0.375 0.5887078 0.25 0.5887077 0.25 0.5887077 0.25 0.5887078 0.25 0.5887078 0.375 0.625 0.375 0.6249999 0.375 0.625 0.25 0.625 0.25 0.6249999 0.375 0.6249999 0.375 0.625 0.375 0.5887078 0.375 0.5887078 0.375 0.6249999 0.375 0.5887078 0.375 0.5887078 0.375 0.625 0.25 0.625 0.25 0.5887077 0.25 0.625 0.25 0.625 0.25 0.5887078 0.25 0.6249999 0.375 0.5887078 0.375 0.5887078 0.375 0.6249999 0.375 0.6249999 0.375 0.5887078 0.375 0.6249999 0.375 0.6249999 0.375 0.6249999 0.375 0.5887078 0.375 0.5887078 0.375 0.5887078 0.375 0.625 0.25 0.625 0.375 0.5887078 0.375 0.625 0.375 0.5887078 0.375 0.5887078 0.375 0.625 0.375 0.625 0.375 0.625 0.25 0.5887078 0.375 0.5887078 0.25 0.5887078 0.25 0.375 0.25 0.375 0.3316233 0.4660116 0.3370637 0.5535107 0.25 0.625 0.25 0.6250001 0.125 0.375 0.5 0.3750001 0.625 0.4783663 0.625 0.625 0.5 0.625 0.625 0.7174506 0.625 0.375 0.25 0.4609198 0.25 0.4636037 0.125 0.6250001 0.4156315 0.6250001 0.3311949 0.5442035 0.3363016 0.375 0.4082801 0.375 0.5 0.4767932 0.5000001 0.7815917 0.6250001 0.8750001 0.6250001 0.8750001 0.5000001 0.5428493 0.4108949 0.5490843 0.5 0.625 0.5 0.5490843 0.5 0.5373701 0.625 0.625 0.625 0.375 0.3316233 0.375 0.4082801 0.4710571 0.4083909 0.7093685 0.5 0.7174506 0.625 0.7815917 0.6250001 0.4609198 0.25 0.5535107 0.25 0.5369816 0.125 0.4767932 0.5000001 0.4783663 0.625 0.5373701 0.625 0.4710571 0.4083909 0.5428493 0.4108949 0.5442035 0.3363016 0.5535107 0.25 0.4609198 0.25 0.4660116 0.3370637 0.4710571 0.4083909 0.4767932 0.5000001 0.5490843 0.5 0.5442035 0.3363016 0.6250001 0.3311949 0.625 0.25 0.5887078 0.125 0.5887078 0.25 0.625 0.25 0.5887078 0.375 0.5887079 0.5 0.625 0.5 0.4389258 0.375 0.4389258 0.5 0.5028517 0.5 0.4389259 0.125 0.4389259 0.25 0.5028517 0.25 0.5028517 0.5 0.5524157 0.5 0.5524157 0.375 0.5028517 0.25 0.5524157 0.25 0.5524157 0.125 0.625 0.375 0.625 0.375 0.625 0.25 0.625 0.625 0.625 0.625 0.625 0.5 0.5524157 0.375 0.5524157 0.5 0.5887079 0.5 0.5524157 0.25 0.5887078 0.25 0.5887078 0.125 0.375 0.125 0.375 0.25 0.4389259 0.25 0.375 0.375 0.375 0.5 0.4389258 0.5 0.375 0.25 0.375 0.375 0.4389258 0.375 0.5524157 0.375 0.5887078 0.375 0.5887078 0.25 0.625 0.5 0.625 0.5 0.625 0.375 0.5028517 0.25 0.5028517 0.375 0.5524157 0.375 0.4389259 0.25 0.4389258 0.375 0.5028517 0.375 0.625 0.25 0.625 0.375 0.625 0.375 0.375 0.5 0.375 0.625 0.375 0.625 0.375 0.5 0.375 0.625 0.4389258 0.625 0.5524157 0.5 0.5524157 0.625 0.5887079 0.625 0.5028517 0.5 0.5028517 0.625 0.5524157 0.625 0.4389258 0.5 0.4389258 0.625 0.5028517 0.625 0.625 0.25 0.625 0.125 0.625 0.125 0.375 0.25 0.375 0.375 0.375 0.375 0.5887079 0.5 0.5887079 0.625 0.625 0.625 0.625 0.25 0.625 0.125 0.625 0.125 0.625 0.5 0.625 0.5 0.625 0.375 0.625 0.625 0.625 0.625 0.625 0.5 0.625 0.375 0.625 0.25 0.625 0.25 0.375 0.125 0.375 0.125 0.375 0.25 0 0 0 0 0 0 0.375 0.125 0.375 0.125 0.375 0.25 0.375 0.375 0.375 0.375 0.375 0.5 0.375 0.375 0.375 0.5 0.375 0.5 0.375 0.125 0.375 0.125 0.375 0.25 0.375 0.25 0.375 0.375 0.375 0.375 0.375 0.5 0.375 0.625 0.375 0.625 0.375 0.375 0.375 0.375 0.375 0.5 0 0 0 0 0 0 0.375 0.5 0.375 0.625 0.375 0.625 0 0 0 0 0 0 0.375 0.375 0.375 0.375 0.375 0.5 0.375 0.25 0.375 0.375 0.375 0.375 0.375 0.125 0.375 0.125 0.375 0.25 0 0 0 0 0 0 0.375 0.25 0.375 0.25 0.375 0.375 0 0 0 0 0 0 0.375 0.125 0.375 0.125 0.375 0.25 0.375 0.5 0.375 0.625 0.375 0.625 0.375 0.375 0.375 0.5 0.375 0.5 0.375 0.625 0.375 0.5 0.375 0.5 0.375 0.5 0.375 0.625 0.375 0.625 0 0 0 0 0 0 0.375 0.375 0.375 0.5 0.375 0.5 0.375 0.25 0.375 0.375 0.375 0.375 0.375 0.25 0.375 0.375 0.375 0.375 0.375 0.375 0.375 0.375 0.375 0.5 0 0 0 0 0 0 0.375 0.5 0.375 0.5 0.375 0.625 0 0 0 0 0 0 0.375 0.125 0.375 0.25 0.375 0.25 0.5887078 0.25 0.5887078 0.25 0.625 0.25 0.625 0.375 0.5887078 0.375 0.5887078 0.375 0.5887078 0.375 0.5887078 0.25 0.5887078 0.25 0.5887078 0.25 0.625 0.25 0.625 0.25 0.625 0.375 0.625 0.375 0.5887078 0.375 0.625 0.375 0.5887078 0.375 0.5887078 0.375 0.625 0.25 0.625 0.375 0.625 0.375 0.5887078 0.375 0.5887078 0.375 0.5887078 0.25 0.5887078 0.25 0.625 0.25 0.625 0.25 0.625 0.25 0.625 0.25 0.625 0.375 0.5887078 0.375 0.5887078 0.25 0.5887077 0.25 0.5887078 0.25 0.625 0.25 0.625 0.25 0.5887078 0.25 0.5887077 0.25 0.625 0.25 0.5887078 0.375 0.5887077 0.25 0.5887078 0.25 0.625 0.25 0.625 0.25 0.625 0.375 0.625 0.375 0.5887078 0.375 0.5887078 0.375 0.125 0.625 0.25 0.625 0.25 0.5 0.25 0.625 0.375 0.625 0.375 0.5 0.375 0.25 0.375 0.25 0.375 0.375 0 0 0 0 0 0 0.375 0.125 0.375 0.25 0.375 0.25 0 0 0 0 0 0 0.375 0.375 0.375 0.375 0.375 0.5 0 0 0 0 0 0 0.375 0.5 0.375 0.5 0.375 0.625 0.25 0.625 0.375 0.625 0.375 0.625 0.375 0.5 0.375 0.5 0.25 0.5 0.375 0.5 0.375 0.5 0.375 0.625 0.375 0.375 0.375 0.375 0.375 0.375 0 0 0 0 0 0 0.5887078 0.25 0.625 0.25 0.625 0.25 0.6249999 0.375 0.625 0.375 0.5887078 0.375 0.625 0.25 0.625 0.25 0.625 0.375 0.5887078 0.375 0.5887078 0.25 0.5887078 0.25 0.5887078 0.375 0.5887078 0.375 0.5887077 0.25 0.5887078 0.375 0.5887078 0.25 0.5887077 0.25 0.625 0.25 0.6249999 0.375 0.625 0.375 0.625 0.25 0.625 0.25 0.6249999 0.375 0.625 0.375 0.6249999 0.375 0.5887078 0.375 0.6249999 0.375 0.6249999 0.375 0.5887078 0.375 0.5887077 0.25 0.625 0.25 0.625 0.25 0.5887078 0.25 0.625 0.25 0.625 0.25 0.6249999 0.375 0.6249999 0.375 0.5887078 0.375 0.5887078 0.375 0.6249999 0.375 0.6249999 0.375 0.6249999 0.375 0.6249999 0.375 0.6249999 0.375 0.5887078 0.375 0.5887078 0.375 0.5887078 0.375 0.5887078 0.375 0.625 0.375 0.625 0.25 0.625 0.375 0.625 0.375 0.5887078 0.375 0.625 0.25 0.625 0.375 0.625 0.375 0.5887078 0.375 0.5887078 0.375 0.5887078 0.25</float_array>
          <technique_common>
            <accessor source="#Cube_001-mesh-map-0-array" count="1614" stride="2">
              <param name="S" type="float"/>
              <param name="T" type="float"/>
            </accessor>
          </technique_common>
        </source>
        <vertices id="Cube_001-mesh-vertices">
          <input semantic="POSITION" source="#Cube_001-mesh-positions"/>
        </vertices>
        <triangles count="538">
          <input semantic="VERTEX" source="#Cube_001-mesh-vertices" offset="0"/>
          <input semantic="NORMAL" source="#Cube_001-mesh-normals" offset="1"/>
          <input semantic="TEXCOORD" source="#Cube_001-mesh-map-0" offset="2" set="0"/>
          <p>0 0 0 24 0 1 9 0 2 5 1 3 14 1 4 18 1 5 2 2 6 20 2 7 6 2 8 3 3 9 12 3 10 7 3 11 19 4 12 0 4 13 4 4 14 11 5 15 25 5 16 10 5 17 8 6 18 16 6 19 2 6 20 1 7 21 13 7 22 10 7 23 22 8 24 3 8 25 17 8 26 17 9 27 7 9 28 21 9 29 9 10 30 23 10 31 8 10 32 13 11 33 11 11 34 10 11 35 15 12 36 18 12 37 14 12 38 21 13 39 16 13 40 17 13 41 23 14 42 25 14 43 22 14 44 14 15 45 24 15 46 15 15 47 17 16 48 23 16 49 22 16 50 1 17 51 25 17 52 14 17 53 58 18 54 27 18 55 36 18 56 45 19 57 29 19 58 37 19 59 46 20 60 31 20 61 39 20 62 59 21 63 30 21 64 38 21 65 43 22 66 31 22 67 42 22 68 54 23 69 30 23 70 52 23 71 63 24 72 34 24 73 44 24 74 64 25 75 35 25 76 56 25 77 43 26 78 37 26 79 33 26 80 58 27 81 32 27 82 54 27 83 47 28 84 38 28 85 26 28 86 40 29 87 39 29 88 28 29 89 26 30 90 46 30 91 40 30 92 36 31 93 43 31 94 32 31 95 62 32 96 44 32 97 35 32 98 30 33 99 43 33 100 42 33 101 38 34 102 42 34 103 46 34 104 41 35 105 101 35 106 27 35 107 75 36 108 69 36 109 76 36 110 28 37 111 60 37 112 49 37 113 33 38 114 57 38 115 53 38 116 31 39 117 53 39 118 51 39 119 39 40 120 51 40 121 60 40 122 65 41 123 34 41 124 61 41 125 72 42 126 67 42 127 74 42 128 37 43 129 50 43 130 57 43 131 48 44 132 61 44 133 27 44 134 29 45 135 63 45 136 62 45 137 50 46 138 62 46 139 64 46 140 27 47 141 63 47 142 41 47 143 70 48 144 78 48 145 81 48 146 70 49 147 82 49 148 71 49 149 73 50 150 67 50 151 70 50 152 72 51 153 69 51 154 66 51 155 28 52 156 72 52 157 40 52 158 47 53 159 74 53 160 73 53 161 40 54 162 74 54 163 26 54 164 49 55 165 76 55 166 28 55 167 77 56 168 86 56 169 83 56 170 82 57 171 85 57 172 79 57 173 68 58 174 80 58 175 69 58 176 71 59 177 79 59 178 68 59 179 66 60 180 80 60 181 77 60 182 66 61 183 78 61 184 67 61 185 95 62 186 90 62 187 93 62 188 96 63 189 93 63 190 94 63 191 78 64 192 83 64 193 84 64 194 81 65 195 88 65 196 82 65 197 81 66 198 84 66 199 87 66 200 79 67 201 86 67 202 80 67 203 92 68 204 125 68 205 89 68 206 120 69 207 128 69 208 119 69 209 98 70 210 92 70 211 99 70 212 98 71 213 94 71 214 91 71 215 99 72 216 89 72 217 100 72 218 100 73 219 90 73 220 97 73 221 83 74 222 97 74 223 84 74 224 83 75 225 99 75 226 100 75 227 85 76 228 96 76 229 98 76 230 86 77 231 98 77 232 99 77 233 87 78 234 96 78 235 88 78 236 84 79 237 95 79 238 87 79 239 102 80 240 105 80 241 106 80 242 45 81 243 103 81 244 41 81 245 36 82 246 104 82 247 45 82 248 27 83 249 102 83 250 36 83 251 114 84 252 112 84 253 111 84 254 104 85 255 107 85 256 103 85 257 103 86 258 105 86 259 101 86 260 104 87 261 106 87 262 108 87 263 136 88 264 132 88 265 137 88 266 115 89 267 111 89 268 109 89 269 116 90 270 112 90 271 113 90 272 115 91 273 110 91 274 116 91 275 106 92 276 115 92 277 116 92 278 106 93 279 113 93 280 108 93 281 105 94 282 114 94 283 115 94 284 108 95 285 114 95 286 107 95 287 117 96 288 121 96 289 118 96 290 120 97 291 122 97 292 117 97 293 90 98 294 117 98 295 118 98 296 93 99 297 122 99 298 94 99 299 90 100 300 121 100 301 93 100 302 122 101 303 126 101 304 94 101 305 125 102 306 129 102 307 130 102 308 126 103 309 128 103 310 123 103 311 124 104 312 128 104 313 129 104 314 119 105 315 127 105 316 122 105 317 120 106 318 130 106 319 129 106 320 92 107 321 123 107 322 124 107 323 117 108 324 125 108 325 130 108 326 91 109 327 126 109 328 123 109 329 131 110 330 148 110 331 132 110 332 141 111 333 134 111 334 133 111 335 136 112 336 133 112 337 131 112 338 137 113 339 134 113 340 140 113 341 112 114 342 138 114 343 139 114 344 138 115 345 140 115 346 139 115 347 111 116 348 135 116 349 109 116 350 135 117 351 141 117 352 136 117 353 111 118 354 139 118 355 142 118 356 142 119 357 143 119 358 146 119 359 109 120 360 138 120 361 110 120 362 135 121 363 137 121 364 138 121 365 146 122 366 144 122 367 145 122 368 141 123 369 144 123 370 140 123 371 141 124 372 146 124 373 145 124 374 140 125 375 143 125 376 139 125 377 147 126 378 150 126 379 148 126 380 133 127 381 150 127 382 149 127 383 133 128 384 147 128 385 131 128 386 134 129 387 148 129 388 150 129 389 56 130 390 2 130 391 6 130 392 35 131 393 8 131 394 2 131 395 44 132 396 9 132 397 8 132 398 34 133 399 9 133 400 44 133 401 34 134 402 4 134 403 0 134 404 56 135 405 35 135 406 2 135 407 35 136 408 44 136 409 8 136 410 34 137 411 0 137 412 9 137 413 34 138 414 55 138 415 4 138 416 151 139 417 165 139 418 160 139 419 159 140 420 5 140 421 18 140 422 153 141 423 20 141 424 161 141 425 154 142 426 12 142 427 158 142 428 151 143 429 19 143 430 4 143 431 158 144 432 166 144 433 163 144 434 155 145 435 161 145 436 164 145 437 13 146 438 152 146 439 157 146 440 163 147 441 154 147 442 158 147 443 162 148 444 7 148 445 154 148 446 156 149 447 164 149 448 165 149 449 158 150 450 13 150 451 157 150 452 160 151 453 18 151 454 19 151 455 161 152 456 21 152 457 162 152 458 164 153 459 166 153 460 165 153 461 159 154 462 165 154 463 166 154 464 164 155 465 162 155 466 163 155 467 166 156 468 152 156 469 159 156 470 58 157 471 168 157 472 48 157 473 186 158 474 170 158 475 182 158 476 187 159 477 172 159 478 183 159 479 59 160 480 171 160 481 52 160 482 172 161 483 184 161 484 183 161 485 171 162 486 54 162 487 52 162 488 190 163 489 175 163 490 188 163 491 64 164 492 176 164 493 189 164 494 184 165 495 178 165 496 186 165 497 173 166 498 58 166 499 54 166 500 47 167 501 179 167 502 59 167 503 181 168 504 180 168 505 187 168 506 167 169 507 187 169 508 179 169 509 184 170 510 177 170 511 173 170 512 189 171 513 185 171 514 190 171 515 171 172 516 184 172 517 173 172 518 179 173 519 183 173 520 171 173 521 221 174 522 182 174 523 168 174 524 193 175 525 75 175 526 196 175 527 169 176 528 60 176 529 180 176 530 174 177 531 57 177 532 178 177 533 172 178 534 53 178 535 174 178 536 180 179 537 51 179 538 172 179 539 175 180 540 65 180 541 188 180 542 192 181 543 194 181 544 195 181 545 178 182 546 50 182 547 170 182 548 188 183 549 48 183 550 168 183 551 170 184 552 190 184 553 182 184 554 50 185 555 189 185 556 170 185 557 190 186 558 168 186 559 182 186 560 70 187 561 198 187 562 192 187 563 202 188 564 70 188 565 71 188 566 73 189 567 192 189 568 195 189 569 194 190 570 193 190 571 196 190 572 194 191 573 169 191 574 181 191 575 47 192 576 195 192 577 167 192 578 195 193 579 181 193 580 167 193 581 196 194 582 49 194 583 169 194 584 197 195 585 206 195 586 200 195 587 205 196 588 202 196 589 199 196 590 200 197 591 68 197 592 193 197 593 199 198 594 71 198 595 68 198 596 191 199 597 200 199 598 193 199 599 198 200 600 191 200 601 192 200 602 215 201 603 210 201 604 217 201 605 216 202 606 213 202 607 215 202 608 198 203 609 203 203 610 197 203 611 208 204 612 201 204 613 202 204 614 201 205 615 204 205 616 198 205 617 206 206 618 199 206 619 200 206 620 245 207 621 212 207 622 209 207 623 248 208 624 240 208 625 239 208 626 212 209 627 218 209 628 219 209 629 218 210 630 214 210 631 216 210 632 209 211 633 219 211 634 220 211 635 210 212 636 220 212 637 217 212 638 217 213 639 203 213 640 204 213 641 203 214 642 219 214 643 206 214 644 205 215 645 216 215 646 208 215 647 206 216 648 218 216 649 205 216 650 216 217 651 207 217 652 208 217 653 215 218 654 204 218 655 207 218 656 222 219 657 225 219 658 221 219 659 223 220 660 186 220 661 182 220 662 224 221 663 177 221 664 186 221 665 222 222 666 168 222 667 177 222 668 234 223 669 232 223 670 233 223 671 227 224 672 224 224 673 223 224 674 225 225 675 223 225 676 221 225 677 224 226 678 226 226 679 222 226 680 252 227 681 256 227 682 257 227 683 235 228 684 231 228 685 234 228 686 232 229 687 236 229 688 233 229 689 230 230 690 235 230 691 236 230 692 226 231 693 235 231 694 225 231 695 233 232 696 226 232 697 228 232 698 225 233 699 234 233 700 227 233 701 234 234 702 228 234 703 227 234 704 241 235 705 237 235 706 238 235 707 242 236 708 240 236 709 237 236 710 210 237 711 237 237 712 209 237 713 242 238 714 213 238 715 214 238 716 241 239 717 210 239 718 213 239 719 246 240 720 242 240 721 214 240 722 245 241 723 249 241 724 244 241 725 248 242 726 246 242 727 243 242 728 244 243 729 248 243 730 243 243 731 247 244 732 239 244 733 242 244 734 240 245 735 250 245 736 237 245 737 212 246 738 243 246 739 211 246 740 237 247 741 245 247 742 209 247 743 211 248 744 246 248 745 214 248 746 268 249 747 251 249 748 252 249 749 261 250 750 254 250 751 260 250 752 256 251 753 253 251 754 261 251 755 254 252 756 257 252 757 260 252 758 232 253 759 258 253 760 230 253 761 260 254 762 258 254 763 259 254 764 255 255 765 231 255 766 229 255 767 255 256 768 261 256 769 262 256 770 231 257 771 259 257 772 232 257 773 262 258 774 263 258 775 259 258 776 258 259 777 229 259 778 230 259 779 257 260 780 255 260 781 258 260 782 266 261 783 264 261 784 263 261 785 264 262 786 261 262 787 260 262 788 261 263 789 266 263 790 262 263 791 263 264 792 260 264 793 259 264 794 270 265 795 267 265 796 268 265 797 253 266 798 270 266 799 254 266 800 267 267 801 253 267 802 251 267 803 254 268 804 268 268 805 252 268 806 56 269 807 6 269 808 153 269 809 176 270 810 153 270 811 155 270 812 185 271 813 155 271 814 156 271 815 175 272 816 185 272 817 156 272 818 175 273 819 151 273 820 4 273 821 56 274 822 153 274 823 176 274 824 176 275 825 155 275 826 185 275 827 175 276 828 156 276 829 151 276 830 175 277 831 4 277 832 55 277 833 0 278 834 15 278 835 24 278 836 5 279 837 1 279 838 14 279 839 2 280 840 16 280 841 20 280 842 3 281 843 11 281 844 12 281 845 19 282 846 15 282 847 0 282 848 11 283 849 22 283 850 25 283 851 8 284 852 23 284 853 16 284 854 1 285 855 5 285 856 13 285 857 22 286 858 11 286 859 3 286 860 17 287 861 3 287 862 7 287 863 9 288 864 24 288 865 23 288 866 13 289 867 12 289 868 11 289 869 15 290 870 19 290 871 18 290 872 21 291 873 20 291 874 16 291 875 23 292 876 24 292 877 25 292 878 14 293 879 25 293 880 24 293 881 17 294 882 16 294 883 23 294 884 1 295 885 10 295 886 25 295 887 58 296 888 48 296 889 27 296 890 45 297 891 41 297 892 29 297 893 46 298 894 42 298 895 31 298 896 59 299 897 52 299 898 30 299 899 43 300 900 33 300 901 31 300 902 54 301 903 32 301 904 30 301 905 63 302 906 61 302 907 34 302 908 64 303 909 62 303 910 35 303 911 43 304 912 45 304 913 37 304 914 58 305 915 36 305 916 32 305 917 47 306 918 59 306 919 38 306 920 40 307 921 46 307 922 39 307 923 26 308 924 38 308 925 46 308 926 36 309 927 45 309 928 43 309 929 62 310 930 63 310 931 44 310 932 30 311 933 32 311 934 43 311 935 38 312 936 30 312 937 42 312 938 41 313 939 103 313 940 101 313 941 75 314 942 68 314 943 69 314 944 28 315 945 39 315 946 60 315 947 33 316 948 37 316 949 57 316 950 31 317 951 33 317 952 53 317 953 39 318 954 31 318 955 51 318 956 65 319 957 55 319 958 34 319 959 72 320 960 66 320 961 67 320 962 37 321 963 29 321 964 50 321 965 48 322 966 65 322 967 61 322 968 29 323 969 41 323 970 63 323 971 50 324 972 29 324 973 62 324 974 27 325 975 61 325 976 63 325 977 70 326 978 67 326 979 78 326 980 70 327 981 81 327 982 82 327 983 73 328 984 74 328 985 67 328 986 72 329 987 76 329 988 69 329 989 28 330 990 76 330 991 72 330 992 47 331 993 26 331 994 74 331 995 40 332 996 72 332 997 74 332 998 49 333 999 75 333 1000 76 333 1001 77 334 1002 80 334 1003 86 334 1004 82 335 1005 88 335 1006 85 335 1007 68 336 1008 79 336 1009 80 336 1010 71 337 1011 82 337 1012 79 337 1013 66 338 1014 69 338 1015 80 338 1016 66 339 1017 77 339 1018 78 339 1019 95 340 1020 97 340 1021 90 340 1022 96 341 1023 95 341 1024 93 341 1025 78 342 1026 77 342 1027 83 342 1028 81 343 1029 87 343 1030 88 343 1031 81 344 1032 78 344 1033 84 344 1034 79 345 1035 85 345 1036 86 345 1037 92 346 1038 124 346 1039 125 346 1040 120 347 1041 129 347 1042 128 347 1043 98 348 1044 91 348 1045 92 348 1046 98 349 1047 96 349 1048 94 349 1049 99 350 1050 92 350 1051 89 350 1052 100 351 1053 89 351 1054 90 351 1055 83 352 1056 100 352 1057 97 352 1058 83 353 1059 86 353 1060 99 353 1061 85 354 1062 88 354 1063 96 354 1064 86 355 1065 85 355 1066 98 355 1067 87 356 1068 95 356 1069 96 356 1070 84 357 1071 97 357 1072 95 357 1073 102 358 1074 101 358 1075 105 358 1076 45 359 1077 104 359 1078 103 359 1079 36 360 1080 102 360 1081 104 360 1082 27 361 1083 101 361 1084 102 361 1085 114 362 1086 113 362 1087 112 362 1088 104 363 1089 108 363 1090 107 363 1091 103 364 1092 107 364 1093 105 364 1094 104 365 1095 102 365 1096 106 365 1097 136 366 1098 131 366 1099 132 366 1100 115 367 1101 114 367 1102 111 367 1103 116 368 1104 110 368 1105 112 368 1106 115 369 1107 109 369 1108 110 369 1109 106 370 1110 105 370 1111 115 370 1112 106 371 1113 116 371 1114 113 371 1115 105 372 1116 107 372 1117 114 372 1118 108 373 1119 113 373 1120 114 373 1121 117 374 1122 122 374 1123 121 374 1124 120 375 1125 119 375 1126 122 375 1127 90 376 1128 89 376 1129 117 376 1130 93 377 1131 121 377 1132 122 377 1133 90 378 1134 118 378 1135 121 378 1136 122 379 1137 127 379 1138 126 379 1139 125 380 1140 124 380 1141 129 380 1142 126 381 1143 127 381 1144 128 381 1145 124 382 1146 123 382 1147 128 382 1148 119 383 1149 128 383 1150 127 383 1151 120 384 1152 117 384 1153 130 384 1154 92 385 1155 91 385 1156 123 385 1157 117 386 1158 89 386 1159 125 386 1160 91 387 1161 94 387 1162 126 387 1163 131 388 1164 147 388 1165 148 388 1166 141 389 1167 140 389 1168 134 389 1169 136 390 1170 141 390 1171 133 390 1172 137 391 1173 132 391 1174 134 391 1175 112 392 1176 110 392 1177 138 392 1178 138 393 1179 137 393 1180 140 393 1181 111 394 1182 142 394 1183 135 394 1184 135 395 1185 142 395 1186 141 395 1187 111 396 1188 112 396 1189 139 396 1190 142 397 1191 139 397 1192 143 397 1193 109 398 1194 135 398 1195 138 398 1196 135 399 1197 136 399 1198 137 399 1199 146 400 1200 143 400 1201 144 400 1202 141 401 1203 145 401 1204 144 401 1205 141 402 1206 142 402 1207 146 402 1208 140 403 1209 144 403 1210 143 403 1211 147 404 1212 149 404 1213 150 404 1214 133 405 1215 134 405 1216 150 405 1217 133 406 1218 149 406 1219 147 406 1220 134 407 1221 132 407 1222 148 407 1223 151 408 1224 156 408 1225 165 408 1226 159 409 1227 152 409 1228 5 409 1229 153 410 1230 6 410 1231 20 410 1232 154 411 1233 7 411 1234 12 411 1235 151 412 1236 160 412 1237 19 412 1238 158 413 1239 157 413 1240 166 413 1241 155 414 1242 153 414 1243 161 414 1244 13 415 1245 5 415 1246 152 415 1247 163 416 1248 162 416 1249 154 416 1250 162 417 1251 21 417 1252 7 417 1253 156 418 1254 155 418 1255 164 418 1256 158 419 1257 12 419 1258 13 419 1259 160 420 1260 159 420 1261 18 420 1262 161 421 1263 20 421 1264 21 421 1265 164 422 1266 163 422 1267 166 422 1268 159 423 1269 160 423 1270 165 423 1271 164 424 1272 161 424 1273 162 424 1274 166 425 1275 157 425 1276 152 425 1277 58 426 1278 177 426 1279 168 426 1280 186 427 1281 178 427 1282 170 427 1283 187 428 1284 180 428 1285 172 428 1286 59 429 1287 179 429 1288 171 429 1289 172 430 1290 174 430 1291 184 430 1292 171 431 1293 173 431 1294 54 431 1295 190 432 1296 185 432 1297 175 432 1298 64 433 1299 56 433 1300 176 433 1301 184 434 1302 174 434 1303 178 434 1304 173 435 1305 177 435 1306 58 435 1307 47 436 1308 167 436 1309 179 436 1310 181 437 1311 169 437 1312 180 437 1313 167 438 1314 181 438 1315 187 438 1316 184 439 1317 186 439 1318 177 439 1319 189 440 1320 176 440 1321 185 440 1322 171 441 1323 183 441 1324 184 441 1325 179 442 1326 187 442 1327 183 442 1328 221 443 1329 223 443 1330 182 443 1331 193 444 1332 68 444 1333 75 444 1334 169 445 1335 49 445 1336 60 445 1337 174 446 1338 53 446 1339 57 446 1340 172 447 1341 51 447 1342 53 447 1343 180 448 1344 60 448 1345 51 448 1346 175 449 1347 55 449 1348 65 449 1349 192 450 1350 191 450 1351 194 450 1352 178 451 1353 57 451 1354 50 451 1355 188 452 1356 65 452 1357 48 452 1358 170 453 1359 189 453 1360 190 453 1361 50 454 1362 64 454 1363 189 454 1364 190 455 1365 188 455 1366 168 455 1367 70 456 1368 201 456 1369 198 456 1370 202 457 1371 201 457 1372 70 457 1373 73 458 1374 70 458 1375 192 458 1376 194 459 1377 191 459 1378 193 459 1379 194 460 1380 196 460 1381 169 460 1382 47 461 1383 73 461 1384 195 461 1385 195 462 1386 194 462 1387 181 462 1388 196 463 1389 75 463 1390 49 463 1391 197 464 1392 203 464 1393 206 464 1394 205 465 1395 208 465 1396 202 465 1397 200 466 1398 199 466 1399 68 466 1400 199 467 1401 202 467 1402 71 467 1403 191 468 1404 197 468 1405 200 468 1406 198 469 1407 197 469 1408 191 469 1409 215 470 1410 213 470 1411 210 470 1412 216 471 1413 214 471 1414 213 471 1415 198 472 1416 204 472 1417 203 472 1418 208 473 1419 207 473 1420 201 473 1421 201 474 1422 207 474 1423 204 474 1424 206 475 1425 205 475 1426 199 475 1427 245 476 1428 244 476 1429 212 476 1430 248 477 1431 249 477 1432 240 477 1433 212 478 1434 211 478 1435 218 478 1436 218 479 1437 211 479 1438 214 479 1439 209 480 1440 212 480 1441 219 480 1442 210 481 1443 209 481 1444 220 481 1445 217 482 1446 220 482 1447 203 482 1448 203 483 1449 220 483 1450 219 483 1451 205 484 1452 218 484 1453 216 484 1454 206 485 1455 219 485 1456 218 485 1457 216 486 1458 215 486 1459 207 486 1460 215 487 1461 217 487 1462 204 487 1463 222 488 1464 226 488 1465 225 488 1466 223 489 1467 224 489 1468 186 489 1469 224 490 1470 222 490 1471 177 490 1472 222 491 1473 221 491 1474 168 491 1475 234 492 1476 231 492 1477 232 492 1478 227 493 1479 228 493 1480 224 493 1481 225 494 1482 227 494 1483 223 494 1484 224 495 1485 228 495 1486 226 495 1487 252 496 1488 251 496 1489 256 496 1490 235 497 1491 229 497 1492 231 497 1493 232 498 1494 230 498 1495 236 498 1496 230 499 1497 229 499 1498 235 499 1499 226 500 1500 236 500 1501 235 500 1502 233 501 1503 236 501 1504 226 501 1505 225 502 1506 235 502 1507 234 502 1508 234 503 1509 233 503 1510 228 503 1511 241 504 1512 242 504 1513 237 504 1514 242 505 1515 239 505 1516 240 505 1517 210 506 1518 238 506 1519 237 506 1520 242 507 1521 241 507 1522 213 507 1523 241 508 1524 238 508 1525 210 508 1526 246 509 1527 247 509 1528 242 509 1529 245 510 1530 250 510 1531 249 510 1532 248 511 1533 247 511 1534 246 511 1535 244 512 1536 249 512 1537 248 512 1538 247 513 1539 248 513 1540 239 513 1541 240 514 1542 249 514 1543 250 514 1544 212 515 1545 244 515 1546 243 515 1547 237 516 1548 250 516 1549 245 516 1550 211 517 1551 243 517 1552 246 517 1553 268 518 1554 267 518 1555 251 518 1556 261 519 1557 253 519 1558 254 519 1559 256 520 1560 251 520 1561 253 520 1562 254 521 1563 252 521 1564 257 521 1565 232 522 1566 259 522 1567 258 522 1568 260 523 1569 257 523 1570 258 523 1571 255 524 1572 262 524 1573 231 524 1574 255 525 1575 256 525 1576 261 525 1577 231 526 1578 262 526 1579 259 526 1580 262 527 1581 266 527 1582 263 527 1583 258 528 1584 255 528 1585 229 528 1586 257 529 1587 256 529 1588 255 529 1589 266 530 1590 265 530 1591 264 530 1592 264 531 1593 265 531 1594 261 531 1595 261 532 1596 265 532 1597 266 532 1598 263 533 1599 264 533 1600 260 533 1601 270 534 1602 269 534 1603 267 534 1604 253 535 1605 269 535 1606 270 535 1607 267 536 1608 269 536 1609 253 536 1610 254 537 1611 270 537 1612 268 537 1613</p>
        </triangles>
      </mesh>
    </geometry>
  </library_geometries>
  <library_controllers>
    <controller id="Armature_Cube_001-skin" name="Armature">
      <skin source="#Cube_001-mesh">
        <bind_shape_matrix>1 0 0 -7.45058e-9 0 1 0 -0.06329426 0 0 1 0.1637282 0 0 0 1</bind_shape_matrix>
        <source id="Armature_Cube_001-skin-joints">
          <Name_array id="Armature_Cube_001-skin-joints-array" count="15">hip uppertorso head l_upperarm l_arm l_hand r_upperarm r_arm r_hand l_upperleg l_leg l_foot r_upperleg r_leg r_foot</Name_array>
          <technique_common>
            <accessor source="#Armature_Cube_001-skin-joints-array" count="15" stride="1">
              <param name="JOINT" type="name"/>
            </accessor>
          </technique_common>
        </source>
        <source id="Armature_Cube_001-skin-bind_poses">
          <float_array id="Armature_Cube_001-skin-bind_poses-array" count="240">-2.85147e-7 0.9919328 -0.1267656 0.02272093 -1.49109e-7 0.1267656 0.991933 0.1230473 1 2.84693e-7 0 0 0 0 0 1 -3.06534e-7 0.9920707 0.1256816 -0.02252662 -1.3933e-7 -0.1256816 0.9920708 -0.1778146 1 2.69536e-7 0 0 0 0 0 1 -2.78101e-7 0.9691963 -0.2462899 0.2524577 -1.58545e-7 0.2462899 0.9691963 -0.7031407 1 2.91526e-7 0 0 0 0 0 1 0.03635948 0.9992102 0.01604545 0.1210287 -0.9141525 0.03974258 -0.4034182 0.09783768 -0.4037374 1.21072e-7 0.9148753 -0.6638345 0 0 0 1 8.44114e-4 0.9999997 4.18196e-4 0.1096009 -0.9139739 9.41187e-4 -0.4057722 -0.2944483 -0.4057726 -3.96594e-5 0.9139744 -0.664496 0 0 0 1 0.04934513 0.9985669 -0.02072644 0.1591394 -0.8156453 0.02831166 -0.5778596 -0.5176311 -0.5764447 0.04541999 0.8158733 -0.7761989 0 0 0 1 0.03635954 -0.9992101 -0.01604545 -0.1210288 0.9141524 0.03974252 -0.4034184 0.09783774 0.4037373 1.39698e-7 0.9148751 -0.6638343 0 0 0 1 8.44124e-4 -0.9999997 -4.18173e-4 -0.1096009 0.9139739 9.41154e-4 -0.4057723 -0.2944483 0.4057725 -3.96297e-5 0.9139742 -0.6644959 0 0 0 1 0.04934513 -0.998567 0.02072644 -0.1591394 0.8156453 0.02831161 -0.5778597 -0.5176313 0.5764446 0.04541999 0.8158731 -0.7761989 0 0 0 1 -0.9977294 -0.001563966 -0.06719297 -0.1057551 0.06716322 -0.06075346 -0.9958909 -0.1880013 -0.002505064 -0.9981419 0.0607205 -0.03417003 0 0 0 1 -0.9999223 -1.62162e-4 -0.01167321 -0.07706743 0.01166653 -0.0499348 -0.9986847 -0.5196242 -4.01409e-4 -0.9987427 0.04993253 -0.03964662 0 0 0 1 -0.999969 -0.002360582 -0.00613749 -0.07178544 -1.85898e-5 0.9333354 -0.3589814 -0.2722162 0.006581783 -0.3589712 -0.933325 -0.9557054 0 0 0 1 -0.9977293 0.001563847 0.06719297 0.1057551 -0.06716549 -0.06075084 -0.9958907 -0.188001 0.002505123 -0.9981418 0.0607205 -0.03416997 0 0 0 1 -0.9999225 1.62152e-4 0.01167315 0.07706743 -0.0116688 -0.04993218 -0.9986847 -0.5196239 4.01491e-4 -0.9987427 0.04993253 -0.03964668 0 0 0 1 -0.999969 0.002360582 0.00613749 0.07178544 1.77812e-5 0.9333351 -0.3589835 -0.2722183 -0.006583929 -0.3589708 -0.9333239 -0.9557042 0 0 0 1</float_array>
          <technique_common>
            <accessor source="#Armature_Cube_001-skin-bind_poses-array" count="15" stride="16">
              <param name="TRANSFORM" type="float4x4"/>
            </accessor>
          </technique_common>
        </source>
        <source id="Armature_Cube_001-skin-weights">
          <float_array id="Armature_Cube_001-skin-weights-array" count="484">0.02712136 0.9728786 1 0.02642631 0.9735736 1 0.06156557 0.9384344 1 0.01913589 0.9808641 1 0.04526871 0.9547313 0.04094582 0.9590541 1 1 1 1 1 1 1 1 1 1 1 1 1 1 1 1 0.7599006 0.1969283 0.0431711 0.07613319 0.02571886 0.8981478 0.9325472 0.06745272 0.2546574 0.08134388 0.6639986 0.2283732 0.7150596 0.05656707 0.1584311 0.8415688 0.04084312 0.6444891 0.3146678 0.02720344 0.8718731 0.1009233 0.09805721 0.9002616 0.001681208 0.1150413 0.8849587 0.1425246 0.8574755 0.698043 0.301957 0.580011 0.4178071 0.002181947 0.8152686 0.1847313 0.8196539 0.103491 0.07685494 0.0852099 0.01056408 0.904226 0.2111364 0.7740886 0.01477491 0.0466811 0.7383157 0.2150031 0.1104611 0.8895389 0.2562672 0.7437328 0.7268611 0.273139 0.8006616 0.1993385 0.7233633 0.1477723 0.06443214 0.0644322 0.9940666 0.005933403 0.9601843 0.03981566 0.1166737 0.8833263 0.1209381 0.8790618 0.006184279 0.9938157 0.9381819 0.03090906 0.03090906 0.1160174 0.8839825 0.071864 0.928136 0.9726242 0.0136879 0.0136879 0.8400712 0.01480668 0.07256102 0.07256102 0.3378484 0.6621515 0.850347 0.149653 0.3839592 0.4308025 0.1852382 0.6014242 0.2965055 0.1020702 0.4137188 0.4789158 0.1073654 0.196203 0.803797 0.503978 0.4960221 0.1156932 0.8843069 0.2384787 0.7615212 0.9069703 0.0465148 0.0465148 0.9121987 0.08780133 0.8050737 0.09746313 0.09746313 0.8972294 0.05138522 0.05138522 0.7488309 0.01277148 0.2383975 0.8625981 0.04274457 0.04732865 0.04732865 0.772279 0.06168889 0.166032 0.9783117 0.01084417 0.01084417 0.9653561 3.40881e-4 0.034303 0.9948295 0.005170524 0.9605514 0.03944855 1 1 0.9464287 0.05357128 0.9763406 0.0236594 0.08105647 0.9189435 0.1217119 0.8782882 0.01151317 0.9884868 1 0.1206855 0.8793146 0.0832709 0.9167291 0.06705647 0.9329436 0.4473102 0.5526899 0.06650751 0.9334926 1 0.4424165 0.5575835 0.08725017 0.9127498 1 1 1 1 1 0.9990414 9.58558e-4 1 1 1 0.01992321 0.9800768 0.9909084 0.009091556 0.9715269 0.02847313 1 0.9862053 0.01379472 0.07363724 0.9263627 0.7756788 0.2243213 0.07589733 0.9241027 0.8426316 0.1573683 0.01421713 0.9857829 0.007512629 0.9924874 0.02014797 0.9798519 0.02549606 0.9745039 0.07240527 0.9275947 0.3307781 0.6692219 0.03334891 0.966651 0.03448218 0.9655178 0.3228418 0.6771582 0.0686028 0.9313972 1 1 1 1 1 1 1 1 1 1 1 1 1 1 1 0.1280624 0.8719375 0.1401215 0.8598785 0.002268791 0.9977312 1 0.0312221 0.9687779 1 1 1 1 1 1 1 1 0.02712142 0.9728786 1 0.02642637 0.9735736 1 0.04526871 0.9547313 0.04094588 0.9590541 1 1 1 1 1 1 1 1 1 1 0.7599006 0.1969283 0.0431711 0.07613313 0.02571886 0.8981479 0.9325472 0.06745272 0.2546574 0.08134388 0.6639986 0.2283732 0.7150598 0.05656707 0.1584311 0.8415688 0.04084312 0.6444892 0.3146677 0.02720338 0.8718733 0.1009233 0.09805721 0.9002616 0.001681208 0.1150413 0.8849587 0.1425246 0.8574755 0.6980431 0.3019569 0.580011 0.4178071 0.002181947 0.8152686 0.1847313 0.819654 0.103491 0.07685488 0.0852099 0.01056408 0.904226 0.2111364 0.7740887 0.01477485 0.0466811 0.7383158 0.2150031 0.1104611 0.8895388 0.2562673 0.7437328 0.7268611 0.273139 0.3839592 0.4308025 0.1852383 0.6014241 0.2965056 0.1020702 0.4137188 0.4789157 0.1073654 0.1156932 0.8843069 0.2384788 0.7615212 0.9121987 0.08780133 0.7488309 0.01277148 0.2383975 0.7722791 0.06168889 0.166032 0.9653561 3.40885e-4 0.034303 0.9948295 0.005170464 0.9605514 0.03944855 1 1 0.9464287 0.05357128 0.9763405 0.0236594 0.08105641 0.9189436 0.1217119 0.8782882 0.01151311 0.9884868 1 0.1206855 0.8793146 0.08327084 0.9167291 0.06705647 0.9329436 0.4473102 0.5526899 0.06650745 0.9334925 1 0.4424165 0.5575835 0.08725011 0.9127498 1 1 1 1 1 0.9990414 9.58569e-4 1 1 1 0.01992321 0.9800769 0.9909083 0.009091734 0.9715272 0.02847284 1 0.9862053 0.0137946 0.073637 0.9263629 0.7756793 0.2243208 0.07589757 0.9241024 0.8426318 0.1573682 0.01421701 0.9857831 0.007512688 0.9924873 0.02014797 0.979852 0.0254957 0.9745043 0.07240527 0.9275947 0.3307781 0.6692219 0.03334891 0.966651 0.03448224 0.9655178 0.3228418 0.6771582 0.0686028 0.9313973 1 1 1 1 1 1 1 1 1 1 1 1 1 1 1 0.1280623 0.8719377 0.1401215 0.8598784 0.00226885 0.9977312 1 0.03122222 0.9687777 1 1 1 1 1 1 1 1</float_array>
          <technique_common>
            <accessor source="#Armature_Cube_001-skin-weights-array" count="484" stride="1">
              <param name="WEIGHT" type="float"/>
            </accessor>
          </technique_common>
        </source>
        <joints>
          <input semantic="JOINT" source="#Armature_Cube_001-skin-joints"/>
          <input semantic="INV_BIND_MATRIX" source="#Armature_Cube_001-skin-bind_poses"/>
        </joints>
        <vertex_weights count="271">
          <input semantic="JOINT" source="#Armature_Cube_001-skin-joints" offset="0"/>
          <input semantic="WEIGHT" source="#Armature_Cube_001-skin-weights" offset="1"/>
          <vcount>2 1 2 1 2 1 2 1 2 2 1 1 1 1 1 1 1 1 1 1 1 1 1 1 1 1 3 3 2 3 3 2 3 3 3 2 2 2 3 2 3 3 3 3 2 2 2 2 4 2 2 2 2 2 3 2 2 3 4 2 2 3 3 3 2 2 2 2 3 2 3 3 3 4 3 3 3 2 2 1 1 2 2 2 2 2 1 2 2 2 2 2 1 2 2 1 1 1 1 1 2 1 1 1 2 2 2 1 2 2 2 2 2 2 2 2 2 2 2 2 2 2 2 1 1 1 1 1 1 1 1 1 1 1 1 1 1 1 2 2 2 1 2 1 1 1 1 1 1 1 1 2 1 2 1 2 2 1 1 1 1 1 1 1 1 1 1 3 3 2 3 3 2 3 3 3 2 2 2 3 2 3 3 3 3 2 2 2 3 3 3 2 2 2 3 3 3 2 2 1 1 2 2 2 2 2 1 2 2 2 2 2 1 2 2 1 1 1 1 1 2 1 1 1 2 2 2 1 2 2 2 2 2 2 2 2 2 2 2 2 2 2 2 1 1 1 1 1 1 1 1 1 1 1 1 1 1 1 2 2 2 1 2 1 1 1 1 1 1 1 1 </vcount>
          <v>1 0 2 1 2 2 1 3 2 4 2 5 1 6 2 7 2 8 1 9 2 10 2 11 1 12 2 13 1 14 2 15 2 16 2 17 2 18 2 19 2 20 2 21 2 22 2 23 2 24 2 25 2 26 2 27 2 28 2 29 2 30 2 31 0 32 1 33 9 34 1 35 2 36 3 37 0 38 1 39 1 40 2 41 3 42 0 43 1 44 3 45 0 46 1 47 0 48 1 49 3 50 0 51 1 52 3 53 1 54 2 55 3 56 1 57 2 58 1 59 3 60 1 61 3 62 0 63 1 64 3 65 0 66 1 67 0 68 1 69 9 70 1 71 2 72 3 73 0 74 1 75 3 76 0 77 1 78 3 79 1 80 2 81 1 82 3 83 0 84 1 85 0 86 1 87 1 88 2 89 3 90 6 91 0 92 1 93 1 94 2 95 0 96 1 97 0 98 1 99 0 100 1 101 1 102 3 103 6 104 1 105 2 106 1 107 2 108 1 109 3 110 6 111 1 112 2 113 3 114 6 115 0 116 1 117 0 118 1 119 1 120 2 121 3 122 1 123 2 124 3 125 1 126 2 127 3 128 1 129 2 130 1 131 2 132 0 133 9 134 0 135 9 136 0 137 9 138 12 139 0 140 9 141 0 142 9 143 12 144 0 145 9 146 12 147 0 148 1 149 9 150 0 151 1 152 9 153 12 154 0 155 1 156 9 157 0 158 9 159 12 160 0 161 1 162 9 163 9 164 10 165 9 166 10 167 9 168 9 169 9 170 10 171 9 172 10 173 9 174 10 175 9 176 10 177 9 178 10 179 10 180 9 181 10 182 9 183 10 184 10 185 11 186 10 187 11 188 10 189 11 190 11 191 10 192 11 193 10 194 11 195 10 196 10 197 10 198 10 199 10 200 10 201 11 202 3 203 3 204 3 205 1 206 3 207 3 208 4 209 3 210 4 211 3 212 3 213 4 214 4 215 5 216 4 217 5 218 4 219 5 220 4 221 5 222 3 223 4 224 3 225 4 226 3 227 4 228 3 229 4 230 10 231 11 232 10 233 11 234 10 235 11 236 10 237 11 238 10 239 11 240 10 241 11 242 11 243 11 244 11 245 11 246 11 247 11 248 11 249 11 250 5 251 5 252 5 253 5 254 5 255 5 256 5 257 4 258 5 259 4 260 5 261 4 262 5 263 5 264 4 265 5 266 5 267 5 268 5 269 5 270 5 271 5 272 5 273 5 274 1 275 2 276 2 277 1 278 2 279 2 280 1 281 2 282 1 283 2 284 2 285 2 286 2 287 2 288 2 289 2 290 2 291 2 292 2 293 2 294 0 295 1 296 12 297 1 298 2 299 6 300 0 301 1 302 1 303 2 304 6 305 0 306 1 307 6 308 0 309 1 310 0 311 1 312 6 313 0 314 1 315 6 316 1 317 2 318 6 319 1 320 2 321 1 322 6 323 1 324 6 325 0 326 1 327 6 328 0 329 1 330 0 331 1 332 12 333 1 334 2 335 6 336 0 337 1 338 6 339 0 340 1 341 6 342 1 343 2 344 1 345 6 346 0 347 1 348 1 349 2 350 6 351 1 352 2 353 6 354 1 355 2 356 6 357 0 358 12 359 0 360 12 361 0 362 12 363 0 364 1 365 12 366 0 367 1 368 12 369 0 370 1 371 12 372 12 373 13 374 12 375 13 376 12 377 12 378 12 379 13 380 12 381 13 382 12 383 13 384 12 385 13 386 12 387 13 388 13 389 12 390 13 391 12 392 13 393 13 394 14 395 13 396 14 397 13 398 14 399 14 400 13 401 14 402 13 403 14 404 13 405 13 406 13 407 13 408 13 409 13 410 14 411 6 412 6 413 6 414 1 415 6 416 6 417 7 418 6 419 7 420 6 421 6 422 7 423 7 424 8 425 7 426 8 427 7 428 8 429 7 430 8 431 6 432 7 433 6 434 7 435 6 436 7 437 6 438 7 439 13 440 14 441 13 442 14 443 13 444 14 445 13 446 14 447 13 448 14 449 13 450 14 451 14 452 14 453 14 454 14 455 14 456 14 457 14 458 14 459 8 460 8 461 8 462 8 463 8 464 8 465 8 466 7 467 8 468 7 469 8 470 7 471 8 472 8 473 7 474 8 475 8 476 8 477 8 478 8 479 8 480 8 481 8 482 8 483</v>
        </vertex_weights>
      </skin>
    </controller>
  </library_controllers>
  <library_visual_scenes>
    <visual_scene id="Scene" name="Scene">
      <node id="Armature" name="Armature" type="NODE">
        <matrix sid="transform">1 0 0 0 0 1 0 0 0 0 1 7.45058e-9 0 0 0 1</matrix>
        <node id="Armature_hip" name="hip" sid="hip" type="JOINT">
          <matrix sid="transform">-2.87008e-7 0 0.9999999 1.66697e-9 0.9919326 0.1267655 3.01749e-7 -0.03813581 -0.1267656 0.9919325 1.11759e-7 -0.1191744 0 0 0 1</matrix>
          <node id="Armature_uppertorso" name="uppertorso" sid="uppertorso" type="JOINT">
            <matrix sid="transform">0.9681352 -0.2504281 -2.32728e-8 -1.80254e-9 0.2504281 0.9681353 6.2546e-8 0.3008373 6.86798e-9 -6.63812e-8 1 -1.11022e-15 0 0 0 1</matrix>
            <node id="Armature_head" name="head" sid="head" type="JOINT">
              <matrix sid="transform">0.9305569 0.3661471 1.03051e-8 -7.45058e-9 -0.3661471 0.930557 -9.36205e-8 0.5689346 -4.38684e-8 8.3346e-8 1 1.77636e-15 0 0 0 1</matrix>
              <extra>
                <technique profile="blender">
                  <connect sid="connect" type="bool">1</connect>
                  <collections type="string">Bones</collections>
                  <roll sid="roll" type="float">1.570797</roll>
                  <tip_x sid="tip_x" type="float">0</tip_x>
                  <tip_y sid="tip_y" type="float">0.07150459</tip_y>
                  <tip_z sid="tip_z" type="float">0.281384</tip_z>
                </technique>
              </extra>
            </node>
            <node id="Armature_l_upperarm" name="l.upperarm" sid="l_upperarm" type="JOINT">
              <matrix sid="transform">0.9933034 -0.01127455 0.1149832 -0.06531204 -0.1096641 -0.4052143 0.9076206 0.4776129 0.03635981 -0.9141522 -0.403737 -0.1829766 0 0 0 1</matrix>
              <node id="Armature_l_arm" name="l.arm" sid="l_arm" type="JOINT">
                <matrix sid="transform">0.999247 -0.03880203 -1.28204e-4 0 0.03880222 0.9992445 0.002222359 0.3892875 4.18752e-5 -0.002225667 0.9999976 -5.96046e-8 0 0 0 1</matrix>
                <node id="Armature_l_hand" name="l.hand" sid="l_hand" type="JOINT">
                  <matrix sid="transform">0.9985992 0.02738153 0.04527456 7.45058e-9 -0.03575008 0.979984 0.1958392 0.3705215 -0.03900597 -0.1971835 0.9795903 0 0 0 0 1</matrix>
                  <extra>
                    <technique profile="blender">
                      <connect sid="connect" type="bool">1</connect>
                      <collections type="string">Bones</collections>
                      <roll sid="roll" type="float">-0.5709337</roll>
                      <tip_x sid="tip_x" type="float">-0.1556634</tip_x>
                      <tip_y sid="tip_y" type="float">0.005403161</tip_y>
                      <tip_z sid="tip_z" type="float">-0.1102828</tip_z>
                    </technique>
                  </extra>
                </node>
                <extra>
                  <technique profile="blender">
                    <connect sid="connect" type="bool">1</connect>
                    <collections type="string">Bones</collections>
                    <roll sid="roll" type="float">-0.4178635</roll>
                  </technique>
                </extra>
              </node>
              <extra>
                <technique profile="blender">
                  <collections type="string">Bones</collections>
                  <roll sid="roll" type="float">-0.4155981</roll>
                </technique>
              </extra>
            </node>
            <node id="Armature_r_upperarm" name="r.upperarm" sid="r_upperarm" type="JOINT">
              <matrix sid="transform">-0.9933034 -0.01127511 0.114983 -0.06531217 0.1096641 -0.4052145 0.9076205 0.4776128 0.03635925 0.9141521 0.4037373 0.1829766 0 0 0 1</matrix>
              <node id="Armature_r_arm" name="r.arm" sid="r_arm" type="JOINT">
                <matrix sid="transform">0.999247 0.03880202 1.28195e-4 0 -0.03880221 0.9992445 0.002222389 0.3892876 -4.18641e-5 -0.002225697 0.9999975 2.98023e-8 0 0 0 1</matrix>
                <node id="Armature_r_hand" name="r.hand" sid="r_hand" type="JOINT">
                  <matrix sid="transform">0.9985992 -0.02738153 -0.04527456 0 0.03575007 0.979984 0.1958391 0.3705215 0.03900597 -0.1971835 0.9795903 2.98023e-8 0 0 0 1</matrix>
                  <extra>
                    <technique profile="blender">
                      <connect sid="connect" type="bool">1</connect>
                      <collections type="string">Bones</collections>
                      <roll sid="roll" type="float">0.5709337</roll>
                      <tip_x sid="tip_x" type="float">0.1556634</tip_x>
                      <tip_y sid="tip_y" type="float">0.005403161</tip_y>
                      <tip_z sid="tip_z" type="float">-0.1102828</tip_z>
                    </technique>
                  </extra>
                </node>
                <extra>
                  <technique profile="blender">
                    <connect sid="connect" type="bool">1</connect>
                    <collections type="string">Bones</collections>
                    <roll sid="roll" type="float">0.4178635</roll>
                  </technique>
                </extra>
              </node>
              <extra>
                <technique profile="blender">
                  <collections type="string">Bones</collections>
                  <roll sid="roll" type="float">0.415598</roll>
                </technique>
              </extra>
            </node>
            <extra>
              <technique profile="blender">
                <connect sid="connect" type="bool">1</connect>
                <collections type="string">Bones</collections>
                <roll sid="roll" type="float">1.570797</roll>
              </technique>
            </extra>
          </node>
          <node id="Armature_l_upperleg" name="l.upperleg" sid="l_upperleg" type="JOINT">
            <matrix sid="transform">0.00694727 0.0659826 -0.9978064 0.0017654 -0.06685043 -0.9955577 -0.06630063 -0.07345417 -0.9977483 0.06716439 -0.002524977 -0.09297626 0 0 0 1</matrix>
            <node id="Armature_l_leg" name="l.leg" sid="l_leg" type="JOINT">
              <matrix sid="transform">0.9984554 0.05554229 -0.001373139 0 -0.05552406 0.9983975 0.01092143 0.3269439 0.00197754 -0.01082831 0.9999395 -7.45058e-9 0 0 0 1</matrix>
              <node id="Armature_l_foot" name="l.foot" sid="l_foot" type="JOINT">
                <matrix sid="transform">0.9999821 0.004039124 0.004377704 0 -0.005419162 0.3119033 0.9500983 0.472906 0.002472145 -0.9501052 0.3119196 -7.45058e-9 0 0 0 1</matrix>
                <extra>
                  <technique profile="blender">
                    <connect sid="connect" type="bool">1</connect>
                    <collections type="string">Bones</collections>
                    <roll sid="roll" type="float">3.135014</roll>
                    <tip_x sid="tip_x" type="float">0</tip_x>
                    <tip_y sid="tip_y" type="float">0.2510387</tip_y>
                    <tip_z sid="tip_z" type="float">-0.09655338</tip_z>
                  </technique>
                </extra>
              </node>
              <extra>
                <technique profile="blender">
                  <connect sid="connect" type="bool">1</connect>
                  <collections type="string">Bones</collections>
                  <roll sid="roll" type="float">3.129739</roll>
                </technique>
              </extra>
            </node>
            <extra>
              <technique profile="blender">
                <collections type="string">Bones</collections>
                <roll sid="roll" type="float">3.072676</roll>
              </technique>
            </extra>
          </node>
          <node id="Armature_r_upperleg" name="r.upperleg" sid="r_upperleg" type="JOINT">
            <matrix sid="transform">-0.006946919 0.06598262 -0.9978063 0.001765352 0.06685303 -0.9955578 -0.06630326 -0.07345422 -0.9977483 -0.06716438 0.002524343 0.09297626 0 0 0 1</matrix>
            <node id="Armature_r_leg" name="r.leg" sid="r_leg" type="JOINT">
              <matrix sid="transform">0.9984553 -0.05554234 0.001373098 -7.45058e-9 0.05552409 0.9983975 0.01092144 0.326944 -0.0019775 -0.01082833 0.9999394 7.45058e-9 0 0 0 1</matrix>
              <node id="Armature_r_foot" name="r.foot" sid="r_foot" type="JOINT">
                <matrix sid="transform">0.9999821 -0.004039126 -0.004377688 0 0.005419153 0.3119055 0.9500977 0.472906 -0.002472138 -0.9501045 0.3119218 0 0 0 0 1</matrix>
                <extra>
                  <technique profile="blender">
                    <connect sid="connect" type="bool">1</connect>
                    <collections type="string">Bones</collections>
                    <roll sid="roll" type="float">-3.135013</roll>
                    <tip_x sid="tip_x" type="float">0</tip_x>
                    <tip_y sid="tip_y" type="float">0.2510387</tip_y>
                    <tip_z sid="tip_z" type="float">-0.09655338</tip_z>
                  </technique>
                </extra>
              </node>
              <extra>
                <technique profile="blender">
                  <connect sid="connect" type="bool">1</connect>
                  <collections type="string">Bones</collections>
                  <roll sid="roll" type="float">-3.129739</roll>
                </technique>
              </extra>
            </node>
            <extra>
              <technique profile="blender">
                <collections type="string">Bones</collections>
                <roll sid="roll" type="float">-3.072676</roll>
              </technique>
            </extra>
          </node>
          <extra>
            <technique profile="blender">
              <collections type="string">Bones</collections>
              <roll sid="roll" type="float">1.570797</roll>
            </technique>
          </extra>
        </node>
        <node id="Cube_001" name="Cube.001" type="NODE">
          <matrix sid="transform">1 0 0 0 0 1 0 0 0 0 1 0 0 0 0 1</matrix>
          <instance_controller url="#Armature_Cube_001-skin">
            <skeleton>#Armature_hip</skeleton>
          </instance_controller>
        </node>
        <extra>
          <technique profile="blender">
            <collections sid="collections" type="string">Bones</collections>
            <visible_collections sid="visible_collections" type="string">Bones</visible_collections>
            <active_collection sid="active_collection" type="string">Bones</active_collection>
          </technique>
        </extra>
      </node>
    </visual_scene>
  </library_visual_scenes>
  <scene>
    <instance_visual_scene url="#Scene"/>
  </scene>
</COLLADA>