<?xml version="1.0" encoding="utf-8"?>
<COLLADA xmlns="http://www.collada.org/2005/11/COLLADASchema" version="1.4.1" xmlns:xsi="http://www.w3.org/2001/XMLSchema-instance">
  <asset>
    <contributor>
      <author>Blender User</author>
      <authoring_tool>Blender 4.4.0 commit date:2025-03-17, commit time:17:00, hash:05377985c527</authoring_tool>
    </contributor>
    <created>2026-04-02T20:03:53</created>
    <modified>2026-04-02T20:03:53</modified>
    <unit name="meter" meter="1"/>
    <up_axis>Z_UP</up_axis>
  </asset>
  <library_cameras>
    <camera id="Camera-camera" name="Camera">
      <optics>
        <technique_common>
          <perspective>
            <xfov sid="xfov">39.59775</xfov>
            <aspect_ratio>1.777778</aspect_ratio>
            <znear sid="znear">0.1</znear>
            <zfar sid="zfar">100</zfar>
          </perspective>
        </technique_common>
      </optics>
      <extra>
        <technique profile="blender">
          <shiftx sid="shiftx" type="float">0</shiftx>
          <shifty sid="shifty" type="float">0</shifty>
          <dof_distance sid="dof_distance" type="float">10</dof_distance>
        </technique>
      </extra>
    </camera>
  </library_cameras>
  <library_lights>
    <light id="Light-light" name="Light">
      <technique_common>
        <point>
          <color sid="color">1000 1000 1000</color>
          <constant_attenuation>1</constant_attenuation>
          <linear_attenuation>0</linear_attenuation>
          <quadratic_attenuation>0</quadratic_attenuation>
        </point>
      </technique_common>
      <extra>
        <technique profile="blender">
          <type sid="type" type="int">0</type>
          <flag sid="flag" type="int">0</flag>
          <mode sid="mode" type="int">2097153</mode>
          <red sid="red" type="float">1</red>
          <green sid="green" type="float">1</green>
          <blue sid="blue" type="float">1</blue>
          <energy sid="blender_energy" type="float">1000</energy>
          <spotsize sid="spotsize" type="float">75</spotsize>
          <spotblend sid="spotblend" type="float">0.15</spotblend>
          <clipsta sid="clipsta" type="float">0.04999995</clipsta>
          <clipend sid="clipend" type="float">40</clipend>
          <radius sid="radius" type="float">0.1</radius>
          <area_shape sid="area_shape" type="int">1</area_shape>
          <area_size sid="area_size" type="float">0.1</area_size>
          <area_sizey sid="area_sizey" type="float">0.1</area_sizey>
          <area_sizez sid="area_sizez" type="float">1</area_sizez>
        </technique>
      </extra>
    </light>
  </library_lights>
  <library_images/>
  <library_geometries>
    <geometry id="Cube_001-mesh" name="Cube.001">
      <mesh>
        <source id="Cube_001-mesh-positions">
          <float_array id="Cube_001-mesh-positions-array" count="813">-0.08125829 -0.07663196 0.6836742 -0.08953052 -0.08583223 0.8535271 -0.03847682 0.09929871 0.6204597 -0.08375978 0.06977856 0.8629401 0 -0.09267383 0.6642627 0 -0.1114203 0.8615035 0 0.1187102 0.6108694 0 0.08582043 0.8802498 -0.07440769 0.02691841 0.6472807 -0.08287817 -0.02616423 0.6656438 -0.09813261 -0.03839337 0.8649442 -0.09675788 0.01404225 0.8682821 0 0.01026535 0.9008315 0 -0.04036659 0.8963069 -0.08985364 -0.09157329 0.8082945 -0.0873326 -0.09464508 0.7545854 -0.07844698 0.09116643 0.7546728 -0.08333295 0.08521378 0.8087139 0 -0.1310152 0.8082945 0 -0.1304764 0.7545854 0 0.125237 0.7545854 0 0.1184709 0.8082945 -0.09522557 0.01989239 0.8082945 -0.08979111 0.01907467 0.7545854 -0.09332776 -0.03373169 0.7545854 -0.09754925 -0.03295511 0.8082945 -0.1772376 -0.06060266 -0.0482918 -0.2190136 -0.1557193 0.4994395 -0.08625495 0.1690406 -0.1327903 -0.1620513 0.05488395 0.5159915 -0.1569803 -0.07382375 0.07266616 -0.1273316 0.172605 0.09889042 -0.2261314 -0.1255919 0.2518876 -0.1718479 0.1983478 0.258239 -0.04958659 -0.0580222 0.6401837 -0.04958659 0.03996318 0.6248807 -0.2471406 -0.1429584 0.3726386 -0.1964125 0.1546469 0.3836559 -0.167109 -0.06721317 0.01218712 -0.1081726 0.187843 -0.04938608 -0.1772376 0.04569256 -0.1109884 -0.2190136 0.01716947 0.490244 -0.1569803 0.04939055 0.07266616 -0.2224479 0.01959705 0.2458376 -0.07012605 -0.009029448 0.6325322 -0.2440994 0.05260658 0.388333 -0.167109 0.06031489 -0.01859945 0 -0.06060266 -0.0482918 0 -0.1557193 0.4994395 0 0.1633564 -0.2032181 0 0.05488401 0.5159915 0 0.172605 0.09889042 0 -0.07382375 0.0726661 0 0.1983478 0.2557688 0 -0.1591536 0.2557688 0 -0.07831567 0.643353 0 0.06025665 0.6217114 0 0.1962628 0.3726386 0 -0.1550824 0.3726386 0 -0.06721317 0.01218712 0 0.187843 -0.04938608 -0.09511822 -0.1104376 0.5778928 -0.07430946 0.04414391 0.5778928 -0.09511822 -0.02598249 0.5778928 0 0.04414391 0.5778928 0 -0.1104375 0.5778928 -0.193727 0.01825368 -0.3467144 -0.1538044 -0.1121905 -0.3271454 0 0.148963 -0.3254359 -0.0481767 0.1474971 -0.2951126 0 -0.09857296 -0.3467144 0 0.02682298 -0.3467144 -0.1847524 0.03318774 -0.218416 0 -0.1523907 -0.1677402 -0.1811299 -0.1300134 -0.163639 0 0.1582807 -0.2686138 -0.06293606 0.1607064 -0.2120774 -0.1315365 -0.01818275 -0.6373326 -0.0953291 -0.071491 -0.6373326 -0.03920382 0.04453015 -0.6373326 -0.1034738 0.03982782 -0.6373326 -0.03105914 -0.06678867 -0.6373326 -0.002996504 -0.008778035 -0.6373326 -0.137519 -0.05158847 -0.7614694 -0.09491282 -0.1112186 -0.7435799 -0.02968889 0.019095 -0.7826753 -0.104907 0.01356822 -0.7810171 -0.01969474 -0.1056918 -0.7452381 0.01291722 -0.04053497 -0.7647857 -0.1066527 -0.02977889 -1.172154 -0.08068227 -0.06766808 -1.177296 -0.04042512 0.01479429 -1.166103 -0.08652412 0.01145213 -1.166557 -0.03458327 -0.06432592 -1.176843 -0.01445466 -0.02309465 -1.171246 -0.03193914 -0.1403258 -0.9009475 0.002516508 -0.06882017 -0.9105914 -0.1116534 -0.1465067 -0.9001138 -0.04274189 -0.003495514 -0.9194016 -0.1224561 -0.009676575 -0.918568 -0.1569119 -0.08118218 -0.9089241 -0.2967483 -0.098706 0.4958372 -0.2905836 -0.1169719 0.3924494 -0.2944921 0.00485903 0.4776746 -0.2883274 -0.01340687 0.3742867 -0.529579 -0.08877426 0.3785603 -0.5022248 -0.1013193 0.3004345 -0.523622 -0.00601989 0.3673578 -0.4962678 -0.01856493 0.289232 -0.8887323 -0.07383865 0.1793088 -0.8537981 -0.08399337 0.1481529 -0.8808739 -0.01837766 0.1744709 -0.8459397 -0.02853238 0.143315 -0.616242 -0.01753556 0.2365549 -0.6502866 -0.004138827 0.3123813 -0.6577952 -0.08815687 0.3234478 -0.6237506 -0.1015536 0.2476214 -0.1176571 -0.02304458 -1.273372 -0.08920055 -0.08683234 -1.273372 -0.04533225 0.02624344 -1.273372 -0.09572297 0.0224778 -1.273372 -0.03880983 -0.08306664 -1.273372 -0.01687574 -0.01551318 -1.273372 -0.05156308 0.2398391 -1.242041 -0.1043955 0.2389814 -1.242157 -0.1274641 0.2283998 -1.243594 -0.02179938 0.2301153 -1.243361 -0.008063971 0.2311027 -1.273372 -0.05143332 0.2453536 -1.273372 -0.1282317 0.2440685 -1.273372 -0.1616606 0.2285323 -1.273372 -1.028682 -0.09308266 0.08716559 -1.006211 -0.09687089 0.07145172 -1.021306 -0.006194829 0.08132672 -0.998835 -0.01596468 0.06633627 -0.9358784 -0.08564746 0.1498942 -0.9830246 -0.09745633 0.1204797 -0.9480906 -0.1034713 0.08411639 -0.9009444 -0.09373235 0.1161347 -0.880355 0.005655825 0.1086418 -0.9402322 -0.01535743 0.07966035 -0.9751663 -0.005189359 0.1152599 -0.9152891 0.01581722 0.1420195 -0.9750124 0.0374279 0.07786208 -0.9861578 0.01578855 0.07284772 -0.9996425 0.01496726 0.08494389 -0.9884037 0.03635233 0.0892145 -1.072625 -0.07881194 0.06405431 -1.056389 -0.08200997 0.04755491 -1.067399 -0.005460858 0.05807316 -1.051053 -0.01370865 0.04217422 0.08125835 -0.07663196 0.6836742 0.08953058 -0.08583223 0.8535271 0.03847682 0.09929871 0.6204597 0.08375984 0.06977856 0.8629401 0.07440775 0.02691847 0.6472807 0.08287817 -0.02616423 0.6656438 0.09813261 -0.03839337 0.8649442 0.09675788 0.01404225 0.8682821 0.0898537 -0.09157329 0.8082945 0.08733266 -0.09464508 0.7545854 0.07844704 0.09116643 0.7546728 0.08333301 0.08521378 0.8087139 0.09522557 0.01989239 0.8082945 0.08979111 0.01907467 0.7545854 0.09332776 -0.03373169 0.7545854 0.09754931 -0.03295511 0.8082945 0.1772376 -0.0606026 -0.0482918 0.2190136 -0.1557193 0.4994395 0.08625495 0.1690406 -0.1327903 0.1620513 0.05488401 0.5159915 0.1569803 -0.07382369 0.07266616 0.1273316 0.172605 0.09889042 0.2261314 -0.1255919 0.2518876 0.1718478 0.1983478 0.258239 0.04958665 -0.0580222 0.6401837 0.04958665 0.03996318 0.6248807 0.2471406 -0.1429584 0.3726386 0.1964125 0.1546469 0.3836559 0.167109 -0.06721317 0.01218712 0.1081726 0.187843 -0.04938608 0.1772376 0.04569256 -0.1109884 0.2190136 0.01716947 0.490244 0.1569803 0.04939061 0.07266616 0.2224479 0.01959711 0.2458376 0.07012611 -0.009029448 0.6325322 0.2440994 0.05260658 0.388333 0.167109 0.06031489 -0.01859945 0.09511822 -0.1104375 0.5778928 0.07430946 0.04414391 0.5778928 0.09511822 -0.02598249 0.5778928 0.193727 0.01825368 -0.3467144 0.1538044 -0.1121904 -0.3271454 0.0481767 0.1474971 -0.2951126 0.1847524 0.03318774 -0.218416 0.1811299 -0.1300134 -0.163639 0.06293606 0.1607064 -0.2120774 0.1315365 -0.01818275 -0.6373326 0.09532916 -0.071491 -0.6373326 0.03920382 0.04453015 -0.6373326 0.1034739 0.03982782 -0.6373326 0.03105914 -0.06678867 -0.6373326 0.002996504 -0.008778035 -0.6373326 0.137519 -0.05158847 -0.7614694 0.09491288 -0.1112186 -0.7435799 0.02968895 0.019095 -0.7826753 0.104907 0.01356822 -0.7810171 0.01969474 -0.1056918 -0.7452381 -0.01291716 -0.04053497 -0.7647857 0.1066527 -0.02977889 -1.172154 0.08068233 -0.06766808 -1.177296 0.04042512 0.01479429 -1.166103 0.08652418 0.01145213 -1.166557 0.03458327 -0.06432592 -1.176843 0.01445466 -0.02309465 -1.171246 0.03193914 -0.1403258 -0.9009475 -0.002516448 -0.06882017 -0.9105914 0.1116535 -0.1465067 -0.9001138 0.04274189 -0.003495514 -0.9194016 0.1224561 -0.009676575 -0.918568 0.1569119 -0.08118212 -0.9089241 0.2967483 -0.098706 0.4958372 0.2905836 -0.1169719 0.3924494 0.2944921 0.00485903 0.4776746 0.2883274 -0.01340681 0.3742867 0.5295792 -0.08877426 0.3785603 0.5022248 -0.1013193 0.3004345 0.5236222 -0.00601989 0.3673578 0.4962678 -0.01856487 0.289232 0.8887324 -0.07383859 0.1793088 0.8537982 -0.08399325 0.1481529 0.880874 -0.0183776 0.1744709 0.8459398 -0.0285322 0.143315 0.6162421 -0.0175355 0.2365549 0.6502867 -0.004138827 0.3123813 0.6577953 -0.08815681 0.3234478 0.6237508 -0.1015534 0.2476214 0.1176571 -0.02304458 -1.273372 0.08920061 -0.08683234 -1.273372 0.04533225 0.02624344 -1.273372 0.09572297 0.02247786 -1.273372 0.03880983 -0.08306664 -1.273372 0.01687574 -0.01551318 -1.273372 0.05156308 0.2398391 -1.242041 0.1043955 0.2389814 -1.242157 0.1274641 0.2283998 -1.243594 0.02179938 0.2301153 -1.243361 0.008063971 0.2311027 -1.273372 0.05143332 0.2453536 -1.273372 0.1282317 0.2440685 -1.273372 0.1616606 0.2285323 -1.273372 1.028682 -0.09308254 0.08716559 1.006212 -0.09687077 0.07145172 1.021306 -0.00619477 0.08132672 0.9988351 -0.01596462 0.06633627 0.9358785 -0.0856474 0.1498942 0.9830247 -0.09745621 0.1204797 0.9480907 -0.1034713 0.08411639 0.9009445 -0.09373229 0.1161347 0.8803551 0.005655944 0.1086418 0.9402323 -0.01535731 0.07966035 0.9751664 -0.00518918 0.1152599 0.9152892 0.01581734 0.1420195 0.9750126 0.03742796 0.07786208 0.9861579 0.01578861 0.07284772 0.9996426 0.01496732 0.08494389 0.9884038 0.03635239 0.0892145 1.072625 -0.07881188 0.06405431 1.056389 -0.08200991 0.04755491 1.067399 -0.005460739 0.05807316 1.051053 -0.01370859 0.04217422</float_array>
          <technique_common>
            <accessor source="#Cube_001-mesh-positions-array" count="271" stride="3">
              <param name="X" type="float"/>
              <param name="Y" type="float"/>
              <param name="Z" type="float"/>
            </accessor>
          </technique_common>
        </source>
        <source id="Cube_001-mesh-normals">
          <float_array id="Cube_001-mesh-normals-array" count="1581">-0.9895612 -0.07559669 -0.122694 -0.3808679 -0.8676642 0.3195285 -0.4580514 0.8880105 -0.04032868 -0.2422885 0.2549984 0.9360941 -0.2645658 -0.8895966 -0.372321 -0.9996137 0.02669954 -0.007730543 -0.9013103 0.3559545 -0.2468525 -0.2977645 -0.2740744 0.9144504 -0.9829609 0.1786844 0.04312443 -0.3398378 0.8564382 0.3886181 -0.9848577 0.1111224 -0.1330685 -0.3049643 -0.0525372 0.9509137 -0.4017135 -0.915153 0.03348445 -0.3694871 0.9266952 0.06866955 -0.9939027 0.04370135 -0.1012315 -0.9943516 -0.09786564 -0.04107642 -0.978607 0.1788216 -0.1017407 -0.9912161 -0.1301307 0.0235973 -0.04880243 -0.9948094 -0.08929038 -0.7789292 0.3866501 0.4937318 -0.9119933 0.4030236 -0.07642209 0 -0.9940794 -0.1086567 -0.9123342 0.2825928 -0.2962896 0 -0.9064071 -0.4224054 -0.8379994 -0.2779855 0.4695542 -0.3763095 0.8695681 -0.3197538 -0.9565476 0.2770756 -0.09080725 -0.1472999 -0.9884923 0.03443461 0 -0.9940795 -0.1086556 -0.787607 0.5235037 -0.3249909 -0.9932922 0.05874598 0.09959697 -0.9854735 0.01796483 -0.1688765 -0.7942925 0.4038763 0.4538541 -0.9353877 0 -0.3536241 -0.99316 0.02740025 0.113501 -0.007321119 0.05311083 0.9985618 -0.1213012 0.9767185 -0.1769379 -0.06314677 0.9855962 -0.1568846 2.56395e-4 0.999841 0.01783692 0 0.9868026 -0.1619284 0 0.9947609 0.1022289 9.62168e-7 -0.7651541 0.6438472 -0.9817272 -0.07977771 -0.1727642 -0.1107833 0.7076095 0.6978653 3.75552e-7 -0.8660892 0.4998897 -0.555058 0.1647033 0.8153426 0 0.9852796 0.1709505 -0.5667777 0.04375767 0.822708 0.07247698 -0.9905915 -0.1160846 0.999947 0 -0.01031023 0.04809343 -0.9565332 -0.2876307 -0.6550251 0.7544391 -0.0419979 -0.8057566 0.5921137 -0.01255851 -0.0838679 -0.7901361 0.6071665 -0.9995823 0.0146836 0.02489423 -0.02604985 0.993358 -0.1120771 -0.9004033 0.4290462 -0.07206523 0.8264254 0.5613144 -0.04412829 -0.1957649 0.9440581 -0.2653872 0.9909456 0.02304369 -0.1322725 -0.8738891 0.4227454 -0.2400088 -0.9242145 -0.3151987 -0.2155864 0.07230919 -0.9613891 -0.2655231 0.8977037 -0.420305 -0.1321816 -0.8247541 -0.5307272 0.1952161 0.8790103 -0.4252212 0.2157033 0.07634162 -0.9353911 0.3452762 -0.07179665 0.9812944 -0.178624 -0.578086 0.1739957 0.7972089 0 0 -1 -0.07633185 0.994358 0.07365971 0.8269411 0.560124 0.04929214 -0.9019138 0.4224992 -0.0896995 -0.7796795 -0.5739485 -0.2503656 -0.8243399 -0.5269138 0.2069438 -0.8988367 0.4372237 0.03046363 0.8207297 0.5458887 -0.1685478 -0.07798135 0.9846043 -0.1564396 0.8966358 -0.4422305 0.0218299 0.0762543 -0.9745567 0.2107717 -0.1229921 -0.985697 0.1152148 -0.208925 0.9065882 0.366672 0.1979138 0.07535356 -0.9773188 -0.5047223 -0.8629165 0.02511507 0.07734853 0.9702303 -0.2295001 0.03596574 0.9844775 -0.1717865 -0.4381181 0.1645286 0.8837325 0.3774589 -0.1508532 -0.9136564 -0.1226442 -0.9913766 0.04616314 -0.5171731 0.1468319 0.8431918 0.3779518 -0.1540241 -0.9129235 -0.1259844 -0.9850527 0.1174707 -0.06183338 -0.9872522 0.1466622 0.3963207 -0.1511198 -0.9055897 -0.3895402 0.1544076 0.9079741 0.07254195 0.9884153 -0.1333156 2.24316e-6 0 -1 -0.9014588 -0.4021525 0.1601423 0.9001891 -0.4322099 -0.05342632 0.06920081 -0.9798796 0.1872096 0.9994996 0.02272391 -0.02200788 -0.3787608 0.8149722 0.4385892 0.312886 0.9351903 0.1658961 -0.01647961 0.9847714 0.1730718 -8.07019e-6 0 -1 -2.35403e-6 0 -1 -0.00719285 0.3147983 0.9491314 -0.6526634 -0.1141578 0.7489984 0.1469143 0.3227743 0.9350043 -0.2361739 -0.9660383 -0.1048431 0.2026336 0.93116 -0.3031184 -0.5797714 0.1035258 0.8081755 0.2218561 -0.06897401 -0.9726369 0.6014406 -0.1832202 -0.7776244 0.4757443 -0.1637093 -0.8642145 -0.5500751 0.1496103 0.8216047 -0.5437606 0.09349375 0.8340165 0.5173026 0.8025804 0.2970904 0.1111002 0.9685107 0.2228089 -0.007998764 -0.9533507 0.3017591 0.02492243 -0.9660519 0.2571437 -0.611031 0.4510333 -0.650546 -0.512615 -0.8149771 -0.2702558 -0.6825855 0.2195244 0.6970553 0.3653303 0.2098192 -0.9069232 -0.712731 4.19455e-4 -0.7014374 0.1710065 0.9354156 -0.309442 -0.4383534 0.09725612 0.8935253 0.4139893 -0.1035864 -0.9043688 -0.1513004 -0.1802712 -0.9719108 -0.6896299 0.07546067 -0.7202197 -0.9378881 0.03009468 -0.3456304 -0.7667328 -0.3998745 -0.5022163 -0.2858332 -0.7879775 -0.5453357 -0.03608822 -0.06753259 -0.9970642 -0.7112888 0.1926234 -0.6759915 -0.7281255 -0.251217 -0.6377486 -0.2883969 -0.7893335 -0.5420147 0.989211 -0.09735834 -0.1094679 0.3808671 -0.8676646 0.3195287 0.3976329 0.9153824 -0.06295436 0.3089559 0.1618756 0.9371994 0.2645657 -0.8895967 -0.372321 0.9988095 0.04391795 -0.02123034 0.9795476 0.1542944 -0.1291506 0.2977648 -0.2740741 0.9144504 0.9739232 0.2268611 -0.002753794 0.2338466 0.9356111 0.2644764 0.9916155 0.06641221 -0.1108525 0.3049644 -0.0525372 0.9509136 0.3795628 -0.9251195 -0.009280443 0.3694866 0.9266953 0.06866937 0.9946352 0.06661438 -0.07914155 0.9886375 -0.1297919 -0.07583034 0.9786072 0.1788206 -0.1017408 0.9912161 -0.1301307 0.02359747 0 -0.9999875 -0.005023002 0.6243493 0.677285 0.3891953 0.9697495 0.2052138 0.1321868 4.19438e-7 -0.9940794 -0.1086565 0.9123342 0.282593 -0.2962896 4.69898e-7 -0.9064071 -0.4224054 0.8073217 0 0.5901117 0 0.9960653 0.08862328 0.8860317 0.4036161 -0.2281272 0.1472998 -0.9884924 0.03443461 0 -0.9940795 -0.1086555 0.9043476 0.4256117 0.03178232 0.9847021 0.04089015 0.1693807 0.9854736 0.01796478 -0.1688765 0.9047949 0.2684814 0.3305513 0.9337753 0.008782684 -0.3577525 0.9862645 0 0.165174 0.007320582 0.05311089 0.9985618 0.1213011 0.9767185 -0.1769379 0 0.9755184 -0.2199179 0.1826092 0.9390028 0.2914234 0.002301394 0.9870967 -0.1601088 0 0.9947609 0.1022291 0 -0.7651545 0.6438468 0.9817272 -0.07977771 -0.1727642 0 0.7985169 0.6019725 0 -0.8660885 0.4998907 0.5148097 0.2101206 0.831156 0 0.9852797 0.1709507 0.5667774 0.04375767 0.8227082 -0.07291269 -0.9905434 -0.116223 -0.9999469 0 -0.01031023 0.1244566 -0.9839274 -0.1280524 0.6976051 0.6779347 -0.2318441 0.8057566 0.5921138 -0.01255846 3.12263e-7 -0.8568286 0.5156013 0.9995823 0.01468348 0.02489423 0.02604991 0.9933581 -0.1120769 0.8979668 0.4343906 -0.07043248 -0.8264254 0.5613143 -0.04412865 0.195765 0.9440581 -0.2653872 -0.9909456 0.02304369 -0.1322725 0.6295899 0.7644333 -0.1387747 0.9242144 -0.3151988 -0.2155861 -0.07177269 -0.9614509 -0.2654448 -0.8860855 -0.444633 -0.1309732 0.8125334 -0.5518779 0.1876711 -0.8790103 -0.4252215 0.215703 -0.06836432 -0.9343833 0.349649 0.07179647 0.9812945 -0.178624 0.5780891 0.173995 0.7972069 3.11448e-6 0 -1 0.07633185 0.994358 0.07365971 -0.8180786 0.5731596 0.04728221 0.9019136 0.4224996 -0.08969956 0.7796803 -0.5739476 -0.2503656 0.8243404 -0.5269129 0.2069438 0.8892377 0.4559956 0.03639227 -0.8252437 0.5405251 -0.1637246 0.07579654 0.984924 -0.1554977 -0.8966361 -0.4422299 0.02182978 -0.07625406 -0.9745566 0.2107717 0.1250313 -0.9782723 0.1653797 0.2089251 0.9065881 0.366672 -0.1979143 0.0753535 -0.9773187 0.5047221 -0.8629166 0.0251159 -0.01988565 0.9860458 -0.1652827 -0.03596568 0.9844776 -0.171786 0.4381177 0.1645285 0.8837326 -0.3826146 -0.1676748 -0.9085655 0.1226451 -0.9913763 0.0461657 0.5140424 0.1570116 0.843272 -0.3779516 -0.1540234 -0.9129235 0.1259844 -0.9850527 0.1174707 0.06344681 -0.9886021 0.1365299 -0.3963205 -0.1511186 -0.90559 0.3916899 0.1510599 0.9076122 -0.07254183 0.9884153 -0.1333154 -4.48632e-6 0 -1 0.8204894 -0.5693535 0.05132234 -0.900189 -0.43221 -0.05342632 -0.06920051 -0.9798796 0.1872095 -0.9994996 0.02272391 -0.02200794 0.3976225 0.8077366 0.4352678 -0.3128852 0.9351906 0.1658962 0.01636916 0.9847413 0.1732539 6.05264e-6 0 -1 7.92481e-6 0 -1 0.03239375 0.3181157 0.9474984 0.9932017 -0.05112272 0.1045796 -0.5226537 0.2475101 0.8158259 0.2361797 -0.9660374 -0.1048378 -0.04333066 0.9710676 -0.2348409 0.5911053 0.09565317 0.8009027 -0.221856 -0.06897401 -0.9726369 -0.5765683 -0.1517266 -0.8028376 -0.4757443 -0.1637099 -0.8642143 0.550075 0.1496115 0.8216044 0.4488551 0.1593237 0.8792867 -0.5030665 0.8105493 0.2998898 -0.3082983 0.9507088 0.03324359 0.007997393 -0.9533508 0.3017589 -0.02492344 -0.9660516 0.2571446 0.5955434 0.4594379 -0.6589726 0.5126155 -0.8149772 -0.270255 0.4818224 0.3501054 0.8032891 -0.3653303 0.2098191 -0.9069233 0.7127309 4.20035e-4 -0.7014375 -0.1888861 0.9278532 -0.3215754 0.4383535 0.097256 0.8935254 -0.4051204 -0.09443652 -0.9093729 0.1513004 -0.1802712 -0.9719108 0.6896278 0.07546162 -0.7202216 0.9378877 0.0300942 -0.3456312 0.7667335 -0.3998743 -0.5022154 0.285833 -0.7879777 -0.5453355 0.03608816 -0.06753253 -0.9970642 0.7112898 0.1926228 -0.6759907 0.728126 -0.251216 -0.6377485 0.2883965 -0.7893335 -0.5420148 -0.9892107 -0.09735935 -0.1094681 -0.2828173 -0.9512856 0.1227606 -0.3976331 0.9153823 -0.06295424 -0.3089559 0.1618759 0.9371993 -0.366684 -0.8937294 -0.2584391 -0.9988096 0.04391711 -0.02123045 -0.9795474 0.154295 -0.1291512 -0.2015087 -0.4308609 0.8796324 -0.9739229 0.2268622 -0.002753734 -0.2338467 0.9356111 0.2644764 -0.9916155 0.06641221 -0.1108525 -0.3206632 -0.08430737 0.9434338 -0.379563 -0.9251194 -0.009280443 -0.3956228 0.9112111 0.1147912 -0.9946353 0.06661444 -0.07914048 -0.9886375 -0.1297919 -0.0758292 -0.9852679 0.1551266 -0.07199323 -0.9847115 -0.1721404 -0.02666532 4.77859e-7 -0.9999875 -0.005022466 -0.6243488 0.6772855 0.3891955 -0.9697495 0.2052137 0.1321868 0 -0.9940794 -0.1086565 -0.9122391 0.2790411 -0.2999262 -0.1335636 -0.937188 -0.3222416 -0.8073214 0 0.590112 0 0.9960653 0.08862334 -0.8860315 0.4036163 -0.2281274 -0.04844051 -0.9874316 -0.1504411 -0.9043476 0.4256117 0.03178232 -0.9847021 0.04089015 0.1693807 -0.9872868 0.0279107 -0.1564792 -0.9047946 0.2684813 0.3305522 -0.9337752 0.008782684 -0.3577525 -0.9862645 0 0.165174 -0.1892602 0.1736144 0.9664568 -0.1307461 0.9783495 -0.16043 -0.1826095 0.9390026 0.2914243 -0.002301394 0.9870967 -0.160109 -0.3678274 -0.8348023 0.4096441 -0.9555723 -0.2775792 0.09915375 -3.48408e-7 0.798517 0.6019723 8.86526e-7 -0.8660888 0.4998905 -0.51481 0.2101207 0.8311558 -3.65904e-7 0.9852797 0.1709502 -0.5349842 0 0.8448622 0.07291322 -0.9905433 -0.1162233 0.8910324 -0.4310368 -0.1423686 -0.1244565 -0.9839275 -0.1280518 -0.6976051 0.6779347 -0.2318441 -0.6887705 0.671549 -0.2731614 0 -0.8568288 0.515601 -0.9975716 0.001230955 0.06963908 -0.03107213 0.9965201 -0.07734572 -0.8979662 0.4343919 -0.07043206 0.8186883 0.572808 -0.04050314 -0.06940221 0.9485637 -0.3088855 0.8247672 0.5601879 -0.07712757 -0.6295899 0.7644333 -0.1387749 -0.8225721 -0.5586984 -0.1059783 0.07177275 -0.9614508 -0.2654448 0.8860852 -0.4446336 -0.1309733 -0.8125329 -0.5518784 0.1876713 0.8960215 -0.3791514 0.2310625 0.06836438 -0.9343832 0.3496488 -0.07600009 0.9813248 -0.1767084 -0.1938578 0.295587 0.9354398 -3.68498e-7 0 -1 -0.07283222 0.9946647 0.07305836 0.8180782 0.5731602 0.04728209 -0.8899943 0.4468224 -0.09088486 -0.8130072 -0.5223508 -0.2572337 -0.8161061 -0.5364233 0.2149905 -0.8892377 0.4559956 0.03639227 0.8252437 0.5405251 -0.1637246 -0.07579648 0.9849241 -0.1554977 0.9019009 -0.4312196 0.0249924 0.07775723 -0.9743172 0.2113287 -0.1250315 -0.9782724 0.1653797 -0.806513 0.5720902 -0.1491631 -0.4795371 -0.1414361 -0.8660485 -0.5912745 -0.7994751 0.1059902 0.01988542 0.9860457 -0.1652827 0.03534656 0.9885986 -0.1463682 -0.4346238 0.1514657 0.887784 0.3826147 -0.167675 -0.9085655 -0.1316342 -0.9900147 0.05043119 -0.5140424 0.1570109 0.8432722 0.3846387 -0.1341651 -0.913265 -0.1525954 -0.9772331 0.1474113 -0.06344652 -0.9886021 0.13653 0.3940341 -0.1545495 -0.9060087 -0.3916896 0.1510593 0.9076125 0.07104778 0.9872384 -0.1425226 2.24316e-6 0 -1 -0.8204886 -0.5693545 0.05132222 0.9509605 -0.3087704 0.01830774 0.07318127 -0.9792759 0.1888476 0.9092142 -0.03248691 0.4150593 -0.3976225 0.8077366 0.4352678 0.3075453 0.9359415 0.1715507 -0.01636916 0.9847413 0.1732539 5.53904e-6 0 -1 -0.03239381 0.3181157 0.9474984 -0.9932017 -0.05112272 0.1045796 0.5226537 0.2475101 0.8158259 -0.2698242 -0.959621 -0.07951521 0.04333043 0.9710679 -0.2348397 -0.5911044 0.09565299 0.8009034 0.2035126 -0.08024901 -0.9757781 0.5765679 -0.1517277 -0.8028376 0.5723925 -0.09225362 -0.8147737 -0.5751903 0.1786711 0.7982686 -0.4488546 0.1593238 0.879287 0.5030663 0.8105499 0.299889 0.3082988 0.9507086 0.03324407 0.0586698 -0.9553756 0.289509 0.08889651 -0.965415 0.2450948 -0.5955423 0.459437 -0.6589743 -0.2758183 -0.8880686 -0.3677752 -0.4818226 0.350103 0.8032901 0.2194406 0.1115685 -0.9692256 -0.6993985 -0.008443117 -0.7146821 0.1888861 0.927853 -0.3215757 -0.4466393 0.1042819 0.8886162 0.4051154 -0.09443122 -0.9093758 0.9895613 -0.07559561 -0.1226939 0.2828171 -0.9512857 0.1227605 0.4580514 0.8880105 -0.04032868 0.2422884 0.2549985 0.9360941 0.3666838 -0.8937295 -0.258439 0.9996137 0.02669954 -0.00772953 0.9013101 0.3559549 -0.2468526 0.2015085 -0.4308609 0.8796325 0.9829611 0.1786836 0.04312419 0.3398376 0.8564383 0.388618 0.9848579 0.1111212 -0.1330679 0.3206627 -0.08430737 0.9434341 0.4017133 -0.9151532 0.03348445 0.3956222 0.9112114 0.1147915 0.9939026 0.04370236 -0.1012315 0.9943517 -0.0978645 -0.04107666 0.9852681 0.1551257 -0.07199323 0.9847118 -0.1721392 -0.02666419 0.04880243 -0.9948094 -0.0892893 0.7789294 0.3866497 0.4937317 0.9119933 0.4030236 -0.07642209 0 -0.9940795 -0.1086558 0.9122393 0.2790415 -0.2999258 0.1335635 -0.9371879 -0.3222418 0.8379997 -0.2779859 0.4695535 0.3763092 0.8695682 -0.3197539 0.9565473 0.277076 -0.09080797 0.04844051 -0.9874316 -0.1504411 3.34683e-7 -0.9940795 -0.1086564 0.787607 0.5235037 -0.3249909 0.9932922 0.05874598 0.09959697 0.9872868 0.0279107 -0.1564792 0.7942928 0.4038764 0.4538533 0.9353877 0 -0.3536241 0.9931601 0.02740025 0.113501 0.1892603 0.1736143 0.9664567 0.1307462 0.9783495 -0.16043 0.06314677 0.9855962 -0.1568846 -2.56395e-4 0.999841 0.01783657 0.3678269 -0.8348025 0.4096441 0.9555723 -0.2775796 0.09915387 0.110783 0.7076095 0.6978653 0 -0.8660888 0.4998905 0.5550586 0.1647032 0.8153423 0.5349847 0 0.8448618 -0.07247692 -0.9905915 -0.1160846 -0.8910324 -0.4310368 -0.1423686 -0.04809284 -0.9565332 -0.2876307 0.6550251 0.7544391 -0.0419979 0.6887704 0.6715491 -0.2731615 0.0838679 -0.7901361 0.6071665 0.9975716 0.001231074 0.06963908 0.03107213 0.9965201 -0.07734572 0.9004033 0.4290462 -0.07206523 -0.8186882 0.5728082 -0.0405035 0.06940203 0.9485638 -0.3088856 -0.8247672 0.5601879 -0.07712757 0.8738898 0.4227442 -0.2400088 0.8225726 -0.5586976 -0.1059785 -0.07230907 -0.9613891 -0.2655231 -0.8977037 -0.420305 -0.1321814 0.8247545 -0.5307267 0.1952159 -0.8960217 -0.3791507 0.2310624 -0.07634156 -0.9353911 0.3452762 0.07600021 0.9813247 -0.1767084 0.1938599 0.2955872 0.9354392 0.07283216 0.9946648 0.07305836 -0.8269411 0.560124 0.04929214 0.8899947 0.4468215 -0.0908848 0.8130079 -0.5223496 -0.2572334 0.8161072 -0.5364218 0.2149901 0.8988366 0.4372239 0.03046375 -0.82073 0.5458883 -0.1685474 0.07798135 0.9846043 -0.1564396 -0.9019013 -0.4312188 0.02499228 -0.07775723 -0.9743173 0.2113286 0.122992 -0.9856971 0.1152145 0.806513 0.5720903 -0.1491627 0.4795364 -0.1414361 -0.8660489 0.5912741 -0.7994754 0.1059903 -0.07734805 0.9702306 -0.2294996 -0.03534662 0.9885986 -0.146368 0.4346235 0.151466 0.8877841 -0.3774588 -0.1508531 -0.9136565 0.1316369 -0.9900142 0.050435 0.5171731 0.1468319 0.8431919 -0.3846386 -0.134166 -0.9132648 0.1525946 -0.9772335 0.1474096 0.06183391 -0.9872522 0.1466614 -0.3940336 -0.1545509 -0.9060087 0.3895403 0.1544073 0.907974 -0.07104778 0.9872384 -0.1425226 -2.24316e-6 0 -1 1.26349e-6 0 -1 0.9014592 -0.4021515 0.1601421 -0.9509605 -0.3087705 0.01830774 -0.07318115 -0.9792759 0.1888476 -0.9092137 -0.03248703 0.4150605 0.3787608 0.8149722 0.4385892 -0.3075457 0.9359412 0.1715509 0.01647961 0.9847714 0.1730718 -6.33033e-6 0 -1 -5.17886e-6 0 -1 0.00719285 0.3147982 0.9491314 0.6526634 -0.1141578 0.7489984 -0.1469143 0.3227743 0.9350043 0.2698234 -0.9596213 -0.07951378 -0.2026339 0.9311595 -0.3031198 0.5797724 0.1035274 0.8081746 -0.2035094 -0.08025109 -0.9757786 -0.6014406 -0.1832204 -0.7776243 -0.5723927 -0.09225189 -0.8147737 0.5751895 0.1786715 0.7982692 0.5437605 0.09349393 0.8340165 -0.5173026 0.8025804 0.2970904 -0.1111006 0.9685108 0.2228083 -0.05866998 -0.9553755 0.2895093 -0.0888943 -0.965415 0.2450958 0.6110299 0.4510325 -0.6505476 0.275816 -0.8880697 -0.3677741 0.6825849 0.2195268 0.6970552 -0.2194409 0.1115701 -0.9692254 0.6993983 -0.008443653 -0.7146823 -0.1710082 0.9354149 -0.3094432 0.4466394 0.1042816 0.8886161 -0.4139896 -0.1035865 -0.9043685</float_array>
          <technique_common>
            <accessor source="#Cube_001-mesh-normals-array" count="527" stride="3">
              <param name="X" type="float"/>
              <param name="Y" type="float"/>
              <param name="Z" type="float"/>
            </accessor>
          </technique_common>
        </source>
        <source id="Cube_001-mesh-map-0">
          <float_array id="Cube_001-mesh-map-0-array" count="3228">0.375 0.25 0.4660116 0.3370637 0.375 0.3316233 0.6250001 0.125 0.5535107 0.25 0.5369816 0.125 0.375 0.5 0.4783663 0.625 0.3750001 0.625 0.625 0.5 0.7174506 0.625 0.625 0.625 0.4636037 0.125 0.375 0.25 0.375 0.125 0.6250001 0.4156315 0.5442035 0.3363016 0.6250001 0.3311949 0.375 0.4082801 0.4767932 0.5000001 0.375 0.5 0.8750001 0.5000001 0.7815917 0.6250001 0.7938052 0.5000001 0.5428493 0.4108949 0.625 0.5 0.5490843 0.5 0.5490843 0.5 0.625 0.625 0.5373701 0.625 0.375 0.3316233 0.4710571 0.4083909 0.375 0.4082801 0.7815917 0.6250001 0.7093685 0.5 0.7938052 0.5000001 0.4609198 0.25 0.5369816 0.125 0.5535107 0.25 0.5373701 0.625 0.4767932 0.5000001 0.5490843 0.5 0.4710571 0.4083909 0.5442035 0.3363016 0.5428493 0.4108949 0.5535107 0.25 0.4660116 0.3370637 0.4609198 0.25 0.5490843 0.5 0.4710571 0.4083909 0.5428493 0.4108949 0.625 0.25 0.5442035 0.3363016 0.5535107 0.25 0.5887078 0.125 0.625 0.25 0.5887078 0.25 0.5887078 0.375 0.625 0.5 0.5887079 0.5 0.4389258 0.375 0.5028517 0.5 0.4389258 0.5 0.4389259 0.125 0.5028517 0.25 0.4389259 0.25 0.5524157 0.375 0.5028517 0.5 0.5028517 0.375 0.5524157 0.125 0.5028517 0.25 0.5028517 0.125 0.625 0.375 0.625 0.25 0.625 0.375 0.625 0.625 0.625 0.5 0.625 0.625 0.5524157 0.375 0.5887079 0.5 0.5524157 0.5 0.5887078 0.125 0.5524157 0.25 0.5524157 0.125 0.375 0.125 0.4389259 0.25 0.375 0.25 0.375 0.375 0.4389258 0.5 0.375 0.5 0.375 0.25 0.4389258 0.375 0.375 0.375 0.5887078 0.25 0.5524157 0.375 0.5524157 0.25 0.625 0.5 0.625 0.375 0.625 0.5 0.5028517 0.25 0.5524157 0.375 0.5028517 0.375 0.4389259 0.25 0.5028517 0.375 0.4389258 0.375 0.625 0.375 0.625 0.25 0.625 0.25 0.375 0.625 0.375 0.5 0.375 0.5 0.375 0.5 0.4389258 0.625 0.375 0.625 0.5524157 0.5 0.5887079 0.625 0.5524157 0.625 0.5028517 0.5 0.5524157 0.625 0.5028517 0.625 0.4389258 0.5 0.5028517 0.625 0.4389258 0.625 0.625 0.125 0.625 0.25 0.625 0.25 0.375 0.375 0.375 0.25 0.375 0.25 0.5887079 0.5 0.625 0.625 0.5887079 0.625 0.625 0.125 0.625 0.25 0.625 0.25 0.625 0.5 0.625 0.375 0.625 0.5 0.625 0.625 0.625 0.5 0.625 0.625 0.625 0.25 0.625 0.375 0.625 0.375 0.375 0.125 0.375 0.25 0.375 0.125 0 0 0 0 0 0 0.375 0.125 0.375 0.25 0.375 0.125 0.375 0.375 0.375 0.5 0.375 0.375 0.375 0.5 0.375 0.375 0.375 0.375 0.375 0.125 0.375 0.25 0.375 0.125 0.375 0.375 0.375 0.25 0.375 0.25 0.375 0.625 0.375 0.5 0.375 0.5 0.375 0.375 0.375 0.5 0.375 0.375 0 0 0 0 0 0 0.375 0.625 0.375 0.5 0.375 0.5 0 0 0 0 0 0 0.375 0.375 0.375 0.5 0.375 0.375 0.375 0.375 0.375 0.25 0.375 0.25 0.375 0.125 0.375 0.25 0.375 0.125 0 0 0 0 0 0 0.375 0.25 0.375 0.375 0.375 0.25 0 0 0 0 0 0 0.375 0.125 0.375 0.25 0.375 0.125 0.375 0.625 0.375 0.5 0.375 0.5 0.375 0.5 0.375 0.375 0.375 0.375 0.375 0.5 0.375 0.625 0.375 0.625 0.375 0.625 0.375 0.5 0.375 0.5 0 0 0 0 0 0 0.375 0.5 0.375 0.375 0.375 0.375 0.375 0.375 0.375 0.25 0.375 0.25 0.375 0.375 0.375 0.25 0.375 0.25 0.375 0.375 0.375 0.5 0.375 0.375 0 0 0 0 0 0 0.375 0.5 0.375 0.625 0.375 0.5 0 0 0 0 0 0 0.375 0.25 0.375 0.125 0.375 0.125 0.5887078 0.25 0.625 0.25 0.5887078 0.25 0.5887078 0.375 0.625 0.375 0.625 0.375 0.5887078 0.25 0.5887078 0.375 0.5887078 0.375 0.625 0.25 0.5887078 0.25 0.5887078 0.25 0.625 0.375 0.5887078 0.375 0.625 0.375 0.5887078 0.375 0.625 0.375 0.625 0.375 0.625 0.375 0.625 0.25 0.625 0.25 0.5887078 0.375 0.5887078 0.25 0.5887078 0.375 0.625 0.25 0.5887078 0.25 0.5887078 0.25 0.625 0.25 0.625 0.375 0.625 0.25 0.5887077 0.25 0.5887078 0.375 0.5887078 0.375 0.625 0.25 0.5887078 0.25 0.5887077 0.25 0.5887078 0.25 0.625 0.25 0.5887077 0.25 0.5887078 0.25 0.5887078 0.375 0.5887078 0.375 0.625 0.25 0.625 0.375 0.625 0.25 0.5887078 0.375 0.625 0.375 0.625 0.375 0.25 0.5 0.125 0.625 0.125 0.5 0.375 0.5 0.25 0.625 0.25 0.5 0.375 0.25 0.375 0.375 0.375 0.25 0 0 0 0 0 0 0.375 0.25 0.375 0.125 0.375 0.125 0 0 0 0 0 0 0.375 0.375 0.375 0.5 0.375 0.375 0 0 0 0 0 0 0.375 0.5 0.375 0.625 0.375 0.5 0.375 0.625 0.25 0.625 0.25 0.625 0.375 0.5 0.25 0.5 0.375 0.5 0.375 0.5 0.375 0.625 0.375 0.5 0.375 0.375 0.375 0.375 0.375 0.375 0 0 0 0 0 0 0.625 0.25 0.5887078 0.25 0.5887078 0.25 0.6249999 0.375 0.5887078 0.375 0.625 0.375 0.625 0.25 0.625 0.375 0.625 0.25 0.5887078 0.25 0.5887078 0.375 0.5887078 0.375 0.5887078 0.375 0.5887077 0.25 0.5887078 0.375 0.5887077 0.25 0.5887078 0.375 0.5887078 0.375 0.625 0.375 0.625 0.25 0.625 0.25 0.625 0.25 0.6249999 0.375 0.625 0.25 0.625 0.375 0.5887078 0.375 0.6249999 0.375 0.6249999 0.375 0.5887078 0.375 0.6249999 0.375 0.625 0.25 0.5887077 0.25 0.5887078 0.25 0.625 0.25 0.5887078 0.25 0.5887077 0.25 0.6249999 0.375 0.5887078 0.375 0.6249999 0.375 0.6249999 0.375 0.5887078 0.375 0.5887078 0.375 0.6249999 0.375 0.6249999 0.375 0.6249999 0.375 0.5887078 0.375 0.5887078 0.375 0.5887078 0.375 0.625 0.25 0.5887078 0.375 0.5887078 0.25 0.625 0.375 0.5887078 0.375 0.625 0.375 0.625 0.375 0.625 0.25 0.625 0.25 0.5887078 0.375 0.5887078 0.25 0.5887078 0.375 0.625 0.625 0.375 0.5 0.3750001 0.625 0.625 0.5 0.375 0.4082801 0.375 0.5 0.625 0.375 0.375 0.3316233 0.375 0.4082801 0.625 0.25 0.375 0.3316233 0.625 0.375 0.625 0.25 0.375 0.125 0.375 0.25 0.625 0.625 0.625 0.5 0.375 0.5 0.625 0.5 0.625 0.375 0.375 0.4082801 0.625 0.25 0.375 0.25 0.375 0.3316233 0.625 0.25 0.625 0.125 0.375 0.125 0.375 0.25 0.4660116 0.3370637 0.4609198 0.25 0.5535107 0.25 0.6250001 0.125 0.5369816 0.125 0.375 0.5 0.4783663 0.625 0.4767932 0.5000001 0.625 0.5 0.7174506 0.625 0.7093685 0.5 0.375 0.25 0.4636037 0.125 0.375 0.125 0.6250001 0.4156315 0.5442035 0.3363016 0.5428493 0.4108949 0.375 0.4082801 0.4767932 0.5000001 0.4710571 0.4083909 0.7815917 0.6250001 0.8750001 0.5000001 0.7938052 0.5000001 0.5428493 0.4108949 0.625 0.5 0.6250001 0.4156315 0.5490843 0.5 0.625 0.625 0.625 0.5 0.375 0.3316233 0.4710571 0.4083909 0.4660116 0.3370637 0.7093685 0.5 0.7815917 0.6250001 0.7938052 0.5000001 0.4609198 0.25 0.5369816 0.125 0.4636037 0.125 0.4767932 0.5000001 0.5373701 0.625 0.5490843 0.5 0.4710571 0.4083909 0.5442035 0.3363016 0.4660116 0.3370637 0.5535107 0.25 0.4660116 0.3370637 0.5442035 0.3363016 0.4710571 0.4083909 0.5490843 0.5 0.5428493 0.4108949 0.5442035 0.3363016 0.625 0.25 0.5535107 0.25 0.5887078 0.125 0.625 0.25 0.625 0.125 0.5887078 0.375 0.625 0.5 0.625 0.375 0.4389258 0.375 0.5028517 0.5 0.5028517 0.375 0.4389259 0.125 0.5028517 0.25 0.5028517 0.125 0.5028517 0.5 0.5524157 0.375 0.5028517 0.375 0.5028517 0.25 0.5524157 0.125 0.5028517 0.125 0.625 0.375 0.625 0.25 0.625 0.25 0.625 0.625 0.625 0.5 0.625 0.5 0.5524157 0.375 0.5887079 0.5 0.5887078 0.375 0.5524157 0.25 0.5887078 0.125 0.5524157 0.125 0.375 0.125 0.4389259 0.25 0.4389259 0.125 0.375 0.375 0.4389258 0.5 0.4389258 0.375 0.375 0.25 0.4389258 0.375 0.4389259 0.25 0.5524157 0.375 0.5887078 0.25 0.5524157 0.25 0.625 0.5 0.625 0.375 0.625 0.375 0.5028517 0.25 0.5524157 0.375 0.5524157 0.25 0.4389259 0.25 0.5028517 0.375 0.5028517 0.25 0.625 0.25 0.625 0.375 0.625 0.25 0.375 0.5 0.375 0.625 0.375 0.5 0.375 0.5 0.4389258 0.625 0.4389258 0.5 0.5524157 0.5 0.5887079 0.625 0.5887079 0.5 0.5028517 0.5 0.5524157 0.625 0.5524157 0.5 0.4389258 0.5 0.5028517 0.625 0.5028517 0.5 0.625 0.25 0.625 0.125 0.625 0.25 0.375 0.25 0.375 0.375 0.375 0.25 0.5887079 0.5 0.625 0.625 0.625 0.5 0.625 0.25 0.625 0.125 0.625 0.25 0.625 0.5 0.625 0.375 0.625 0.375 0.625 0.625 0.625 0.5 0.625 0.5 0.625 0.375 0.625 0.25 0.625 0.375 0.375 0.125 0.375 0.25 0.375 0.25 0 0 0 0 0 0 0.375 0.125 0.375 0.25 0.375 0.25 0.375 0.375 0.375 0.5 0.375 0.5 0.375 0.375 0.375 0.5 0.375 0.375 0.375 0.125 0.375 0.25 0.375 0.25 0.375 0.25 0.375 0.375 0.375 0.25 0.375 0.5 0.375 0.625 0.375 0.5 0.375 0.375 0.375 0.5 0.375 0.5 0 0 0 0 0 0 0.375 0.5 0.375 0.625 0.375 0.5 0 0 0 0 0 0 0.375 0.375 0.375 0.5 0.375 0.5 0.375 0.25 0.375 0.375 0.375 0.25 0.375 0.125 0.375 0.25 0.375 0.25 0 0 0 0 0 0 0.375 0.25 0.375 0.375 0.375 0.375 0 0 0 0 0 0 0.375 0.125 0.375 0.25 0.375 0.25 0.375 0.5 0.375 0.625 0.375 0.5 0.375 0.375 0.375 0.5 0.375 0.375 0.375 0.625 0.375 0.5 0.375 0.625 0.375 0.5 0.375 0.625 0.375 0.5 0 0 0 0 0 0 0.375 0.375 0.375 0.5 0.375 0.375 0.375 0.25 0.375 0.375 0.375 0.25 0.375 0.25 0.375 0.375 0.375 0.25 0.375 0.375 0.375 0.5 0.375 0.5 0 0 0 0 0 0 0.375 0.5 0.375 0.625 0.375 0.625 0 0 0 0 0 0 0.375 0.125 0.375 0.25 0.375 0.125 0.5887078 0.25 0.625 0.25 0.625 0.25 0.625 0.375 0.5887078 0.375 0.625 0.375 0.5887078 0.375 0.5887078 0.25 0.5887078 0.375 0.5887078 0.25 0.625 0.25 0.5887078 0.25 0.625 0.375 0.5887078 0.375 0.5887078 0.375 0.625 0.375 0.5887078 0.375 0.625 0.375 0.625 0.25 0.625 0.375 0.625 0.25 0.5887078 0.375 0.5887078 0.25 0.5887078 0.25 0.5887078 0.25 0.625 0.25 0.5887078 0.25 0.625 0.25 0.625 0.375 0.625 0.375 0.5887078 0.375 0.5887077 0.25 0.5887078 0.375 0.5887078 0.25 0.625 0.25 0.5887077 0.25 0.5887078 0.25 0.625 0.25 0.625 0.25 0.5887078 0.375 0.5887078 0.25 0.5887078 0.375 0.625 0.25 0.625 0.375 0.625 0.375 0.625 0.375 0.5887078 0.375 0.625 0.375 0.125 0.625 0.25 0.5 0.125 0.5 0.25 0.625 0.375 0.5 0.25 0.5 0.375 0.25 0.375 0.375 0.375 0.375 0 0 0 0 0 0 0.375 0.125 0.375 0.25 0.375 0.125 0 0 0 0 0 0 0.375 0.375 0.375 0.5 0.375 0.5 0 0 0 0 0 0 0.375 0.5 0.375 0.625 0.375 0.625 0.25 0.625 0.375 0.625 0.25 0.625 0.375 0.5 0.25 0.5 0.25 0.5 0.375 0.5 0.375 0.625 0.375 0.625 0.375 0.375 0.375 0.375 0.375 0.375 0 0 0 0 0 0 0.5887078 0.25 0.625 0.25 0.5887078 0.25 0.6249999 0.375 0.5887078 0.375 0.5887078 0.375 0.625 0.25 0.625 0.375 0.6249999 0.375 0.5887078 0.375 0.5887078 0.25 0.5887078 0.375 0.5887078 0.375 0.5887077 0.25 0.5887078 0.25 0.5887078 0.375 0.5887077 0.25 0.5887078 0.375 0.625 0.25 0.625 0.375 0.625 0.25 0.625 0.25 0.6249999 0.375 0.6249999 0.375 0.625 0.375 0.5887078 0.375 0.5887078 0.375 0.6249999 0.375 0.5887078 0.375 0.5887078 0.375 0.5887077 0.25 0.625 0.25 0.5887078 0.25 0.5887078 0.25 0.625 0.25 0.5887077 0.25 0.6249999 0.375 0.5887078 0.375 0.5887078 0.375 0.5887078 0.375 0.6249999 0.375 0.5887078 0.375 0.6249999 0.375 0.6249999 0.375 0.6249999 0.375 0.5887078 0.375 0.5887078 0.375 0.5887078 0.375 0.5887078 0.375 0.625 0.25 0.5887078 0.25 0.625 0.375 0.5887078 0.375 0.5887078 0.375 0.625 0.25 0.625 0.375 0.625 0.25 0.5887078 0.375 0.5887078 0.25 0.5887078 0.25 0.625 0.625 0.3750001 0.625 0.375 0.5 0.625 0.5 0.375 0.5 0.375 0.4082801 0.625 0.375 0.375 0.4082801 0.375 0.3316233 0.625 0.25 0.625 0.375 0.375 0.3316233 0.625 0.25 0.375 0.25 0.375 0.125 0.625 0.625 0.375 0.5 0.625 0.5 0.625 0.5 0.375 0.4082801 0.625 0.375 0.625 0.25 0.375 0.3316233 0.375 0.25 0.625 0.25 0.375 0.125 0.625 0.125 0.375 0.25 0.4609198 0.25 0.4660116 0.3370637 0.6250001 0.125 0.625 0.25 0.5535107 0.25 0.375 0.5 0.4767932 0.5000001 0.4783663 0.625 0.625 0.5 0.7093685 0.5 0.7174506 0.625 0.4636037 0.125 0.4609198 0.25 0.375 0.25 0.6250001 0.4156315 0.5428493 0.4108949 0.5442035 0.3363016 0.375 0.4082801 0.4710571 0.4083909 0.4767932 0.5000001 0.8750001 0.5000001 0.8750001 0.6250001 0.7815917 0.6250001 0.5428493 0.4108949 0.6250001 0.4156315 0.625 0.5 0.5490843 0.5 0.625 0.5 0.625 0.625 0.375 0.3316233 0.4660116 0.3370637 0.4710571 0.4083909 0.7815917 0.6250001 0.7174506 0.625 0.7093685 0.5 0.4609198 0.25 0.4636037 0.125 0.5369816 0.125 0.5373701 0.625 0.4783663 0.625 0.4767932 0.5000001 0.4710571 0.4083909 0.4660116 0.3370637 0.5442035 0.3363016 0.5535107 0.25 0.5442035 0.3363016 0.4660116 0.3370637 0.5490843 0.5 0.4767932 0.5000001 0.4710571 0.4083909 0.625 0.25 0.6250001 0.3311949 0.5442035 0.3363016 0.5887078 0.125 0.625 0.125 0.625 0.25 0.5887078 0.375 0.625 0.375 0.625 0.5 0.4389258 0.375 0.5028517 0.375 0.5028517 0.5 0.4389259 0.125 0.5028517 0.125 0.5028517 0.25 0.5524157 0.375 0.5524157 0.5 0.5028517 0.5 0.5524157 0.125 0.5524157 0.25 0.5028517 0.25 0.625 0.375 0.625 0.25 0.625 0.25 0.625 0.625 0.625 0.5 0.625 0.5 0.5524157 0.375 0.5887078 0.375 0.5887079 0.5 0.5887078 0.125 0.5887078 0.25 0.5524157 0.25 0.375 0.125 0.4389259 0.125 0.4389259 0.25 0.375 0.375 0.4389258 0.375 0.4389258 0.5 0.375 0.25 0.4389259 0.25 0.4389258 0.375 0.5887078 0.25 0.5887078 0.375 0.5524157 0.375 0.625 0.5 0.625 0.375 0.625 0.375 0.5028517 0.25 0.5524157 0.25 0.5524157 0.375 0.4389259 0.25 0.5028517 0.25 0.5028517 0.375 0.625 0.375 0.625 0.375 0.625 0.25 0.375 0.625 0.375 0.625 0.375 0.5 0.375 0.5 0.4389258 0.5 0.4389258 0.625 0.5524157 0.5 0.5887079 0.5 0.5887079 0.625 0.5028517 0.5 0.5524157 0.5 0.5524157 0.625 0.4389258 0.5 0.5028517 0.5 0.5028517 0.625 0.625 0.125 0.625 0.125 0.625 0.25 0.375 0.375 0.375 0.375 0.375 0.25 0.5887079 0.5 0.625 0.5 0.625 0.625 0.625 0.125 0.625 0.125 0.625 0.25 0.625 0.5 0.625 0.375 0.625 0.375 0.625 0.625 0.625 0.5 0.625 0.5 0.625 0.25 0.625 0.25 0.625 0.375 0.375 0.125 0.375 0.25 0.375 0.25 0 0 0 0 0 0 0.375 0.125 0.375 0.25 0.375 0.25 0.375 0.375 0.375 0.5 0.375 0.5 0.375 0.5 0.375 0.5 0.375 0.375 0.375 0.125 0.375 0.25 0.375 0.25 0.375 0.375 0.375 0.375 0.375 0.25 0.375 0.625 0.375 0.625 0.375 0.5 0.375 0.375 0.375 0.5 0.375 0.5 0 0 0 0 0 0 0.375 0.625 0.375 0.625 0.375 0.5 0 0 0 0 0 0 0.375 0.375 0.375 0.5 0.375 0.5 0.375 0.375 0.375 0.375 0.375 0.25 0.375 0.125 0.375 0.25 0.375 0.25 0 0 0 0 0 0 0.375 0.25 0.375 0.375 0.375 0.375 0 0 0 0 0 0 0.375 0.125 0.375 0.25 0.375 0.25 0.375 0.625 0.375 0.625 0.375 0.5 0.375 0.5 0.375 0.5 0.375 0.375 0.375 0.5 0.375 0.5 0.375 0.625 0.375 0.625 0.375 0.625 0.375 0.5 0 0 0 0 0 0 0.375 0.5 0.375 0.5 0.375 0.375 0.375 0.375 0.375 0.375 0.375 0.25 0.375 0.375 0.375 0.375 0.375 0.25 0.375 0.375 0.375 0.5 0.375 0.5 0 0 0 0 0 0 0.375 0.5 0.375 0.625 0.375 0.625 0 0 0 0 0 0 0.375 0.25 0.375 0.25 0.375 0.125 0.5887078 0.25 0.625 0.25 0.625 0.25 0.5887078 0.375 0.5887078 0.375 0.625 0.375 0.5887078 0.25 0.5887078 0.25 0.5887078 0.375 0.625 0.25 0.625 0.25 0.5887078 0.25 0.625 0.375 0.5887078 0.375 0.5887078 0.375 0.5887078 0.375 0.5887078 0.375 0.625 0.375 0.625 0.375 0.625 0.375 0.625 0.25 0.5887078 0.375 0.5887078 0.25 0.5887078 0.25 0.625 0.25 0.625 0.25 0.5887078 0.25 0.625 0.25 0.625 0.375 0.625 0.375 0.5887077 0.25 0.5887078 0.25 0.5887078 0.375 0.625 0.25 0.625 0.25 0.5887078 0.25 0.5887078 0.25 0.625 0.25 0.625 0.25 0.5887078 0.25 0.5887077 0.25 0.5887078 0.375 0.625 0.25 0.625 0.375 0.625 0.375 0.5887078 0.375 0.5887078 0.375 0.625 0.375 0.25 0.5 0.25 0.625 0.125 0.625 0.375 0.5 0.375 0.625 0.25 0.625 0.375 0.25 0.375 0.375 0.375 0.375 0 0 0 0 0 0 0.375 0.25 0.375 0.25 0.375 0.125 0 0 0 0 0 0 0.375 0.375 0.375 0.5 0.375 0.5 0 0 0 0 0 0 0.375 0.5 0.375 0.625 0.375 0.625 0.375 0.625 0.375 0.625 0.25 0.625 0.375 0.5 0.25 0.5 0.25 0.5 0.375 0.5 0.375 0.625 0.375 0.625 0.375 0.375 0.375 0.375 0.375 0.375 0 0 0 0 0 0 0.625 0.25 0.625 0.25 0.5887078 0.25 0.6249999 0.375 0.5887078 0.375 0.5887078 0.375 0.625 0.25 0.6249999 0.375 0.625 0.375 0.5887078 0.25 0.5887078 0.25 0.5887078 0.375 0.5887078 0.375 0.5887078 0.25 0.5887077 0.25 0.5887077 0.25 0.5887078 0.25 0.5887078 0.375 0.625 0.375 0.6249999 0.375 0.625 0.25 0.625 0.25 0.6249999 0.375 0.6249999 0.375 0.625 0.375 0.5887078 0.375 0.5887078 0.375 0.6249999 0.375 0.5887078 0.375 0.5887078 0.375 0.625 0.25 0.625 0.25 0.5887077 0.25 0.625 0.25 0.625 0.25 0.5887078 0.25 0.6249999 0.375 0.5887078 0.375 0.5887078 0.375 0.6249999 0.375 0.6249999 0.375 0.5887078 0.375 0.6249999 0.375 0.6249999 0.375 0.6249999 0.375 0.5887078 0.375 0.5887078 0.375 0.5887078 0.375 0.625 0.25 0.625 0.375 0.5887078 0.375 0.625 0.375 0.5887078 0.375 0.5887078 0.375 0.625 0.375 0.625 0.375 0.625 0.25 0.5887078 0.375 0.5887078 0.25 0.5887078 0.25 0.375 0.25 0.375 0.3316233 0.4660116 0.3370637 0.5535107 0.25 0.625 0.25 0.6250001 0.125 0.375 0.5 0.3750001 0.625 0.4783663 0.625 0.625 0.5 0.625 0.625 0.7174506 0.625 0.375 0.25 0.4609198 0.25 0.4636037 0.125 0.6250001 0.4156315 0.6250001 0.3311949 0.5442035 0.3363016 0.375 0.4082801 0.375 0.5 0.4767932 0.5000001 0.7815917 0.6250001 0.8750001 0.6250001 0.8750001 0.5000001 0.5428493 0.4108949 0.5490843 0.5 0.625 0.5 0.5490843 0.5 0.5373701 0.625 0.625 0.625 0.375 0.3316233 0.375 0.4082801 0.4710571 0.4083909 0.7093685 0.5 0.7174506 0.625 0.7815917 0.6250001 0.4609198 0.25 0.5535107 0.25 0.5369816 0.125 0.4767932 0.5000001 0.4783663 0.625 0.5373701 0.625 0.4710571 0.4083909 0.5428493 0.4108949 0.5442035 0.3363016 0.5535107 0.25 0.4609198 0.25 0.4660116 0.3370637 0.4710571 0.4083909 0.4767932 0.5000001 0.5490843 0.5 0.5442035 0.3363016 0.6250001 0.3311949 0.625 0.25 0.5887078 0.125 0.5887078 0.25 0.625 0.25 0.5887078 0.375 0.5887079 0.5 0.625 0.5 0.4389258 0.375 0.4389258 0.5 0.5028517 0.5 0.4389259 0.125 0.4389259 0.25 0.5028517 0.25 0.5028517 0.5 0.5524157 0.5 0.5524157 0.375 0.5028517 0.25 0.5524157 0.25 0.5524157 0.125 0.625 0.375 0.625 0.375 0.625 0.25 0.625 0.625 0.625 0.625 0.625 0.5 0.5524157 0.375 0.5524157 0.5 0.5887079 0.5 0.5524157 0.25 0.5887078 0.25 0.5887078 0.125 0.375 0.125 0.375 0.25 0.4389259 0.25 0.375 0.375 0.375 0.5 0.4389258 0.5 0.375 0.25 0.375 0.375 0.4389258 0.375 0.5524157 0.375 0.5887078 0.375 0.5887078 0.25 0.625 0.5 0.625 0.5 0.625 0.375 0.5028517 0.25 0.5028517 0.375 0.5524157 0.375 0.4389259 0.25 0.4389258 0.375 0.5028517 0.375 0.625 0.25 0.625 0.375 0.625 0.375 0.375 0.5 0.375 0.625 0.375 0.625 0.375 0.5 0.375 0.625 0.4389258 0.625 0.5524157 0.5 0.5524157 0.625 0.5887079 0.625 0.5028517 0.5 0.5028517 0.625 0.5524157 0.625 0.4389258 0.5 0.4389258 0.625 0.5028517 0.625 0.625 0.25 0.625 0.125 0.625 0.125 0.375 0.25 0.375 0.375 0.375 0.375 0.5887079 0.5 0.5887079 0.625 0.625 0.625 0.625 0.25 0.625 0.125 0.625 0.125 0.625 0.5 0.625 0.5 0.625 0.375 0.625 0.625 0.625 0.625 0.625 0.5 0.625 0.375 0.625 0.25 0.625 0.25 0.375 0.125 0.375 0.125 0.375 0.25 0 0 0 0 0 0 0.375 0.125 0.375 0.125 0.375 0.25 0.375 0.375 0.375 0.375 0.375 0.5 0.375 0.375 0.375 0.5 0.375 0.5 0.375 0.125 0.375 0.125 0.375 0.25 0.375 0.25 0.375 0.375 0.375 0.375 0.375 0.5 0.375 0.625 0.375 0.625 0.375 0.375 0.375 0.375 0.375 0.5 0 0 0 0 0 0 0.375 0.5 0.375 0.625 0.375 0.625 0 0 0 0 0 0 0.375 0.375 0.375 0.375 0.375 0.5 0.375 0.25 0.375 0.375 0.375 0.375 0.375 0.125 0.375 0.125 0.375 0.25 0 0 0 0 0 0 0.375 0.25 0.375 0.25 0.375 0.375 0 0 0 0 0 0 0.375 0.125 0.375 0.125 0.375 0.25 0.375 0.5 0.375 0.625 0.375 0.625 0.375 0.375 0.375 0.5 0.375 0.5 0.375 0.625 0.375 0.5 0.375 0.5 0.375 0.5 0.375 0.625 0.375 0.625 0 0 0 0 0 0 0.375 0.375 0.375 0.5 0.375 0.5 0.375 0.25 0.375 0.375 0.375 0.375 0.375 0.25 0.375 0.375 0.375 0.375 0.375 0.375 0.375 0.375 0.375 0.5 0 0 0 0 0 0 0.375 0.5 0.375 0.5 0.375 0.625 0 0 0 0 0 0 0.375 0.125 0.375 0.25 0.375 0.25 0.5887078 0.25 0.5887078 0.25 0.625 0.25 0.625 0.375 0.5887078 0.375 0.5887078 0.375 0.5887078 0.375 0.5887078 0.25 0.5887078 0.25 0.5887078 0.25 0.625 0.25 0.625 0.25 0.625 0.375 0.625 0.375 0.5887078 0.375 0.625 0.375 0.5887078 0.375 0.5887078 0.375 0.625 0.25 0.625 0.375 0.625 0.375 0.5887078 0.375 0.5887078 0.375 0.5887078 0.25 0.5887078 0.25 0.625 0.25 0.625 0.25 0.625 0.25 0.625 0.25 0.625 0.375 0.5887078 0.375 0.5887078 0.25 0.5887077 0.25 0.5887078 0.25 0.625 0.25 0.625 0.25 0.5887078 0.25 0.5887077 0.25 0.625 0.25 0.5887078 0.375 0.5887077 0.25 0.5887078 0.25 0.625 0.25 0.625 0.25 0.625 0.375 0.625 0.375 0.5887078 0.375 0.5887078 0.375 0.125 0.625 0.25 0.625 0.25 0.5 0.25 0.625 0.375 0.625 0.375 0.5 0.375 0.25 0.375 0.25 0.375 0.375 0 0 0 0 0 0 0.375 0.125 0.375 0.25 0.375 0.25 0 0 0 0 0 0 0.375 0.375 0.375 0.375 0.375 0.5 0 0 0 0 0 0 0.375 0.5 0.375 0.5 0.375 0.625 0.25 0.625 0.375 0.625 0.375 0.625 0.375 0.5 0.375 0.5 0.25 0.5 0.375 0.5 0.375 0.5 0.375 0.625 0.375 0.375 0.375 0.375 0.375 0.375 0 0 0 0 0 0 0.5887078 0.25 0.625 0.25 0.625 0.25 0.6249999 0.375 0.625 0.375 0.5887078 0.375 0.625 0.25 0.625 0.25 0.625 0.375 0.5887078 0.375 0.5887078 0.25 0.5887078 0.25 0.5887078 0.375 0.5887078 0.375 0.5887077 0.25 0.5887078 0.375 0.5887078 0.25 0.5887077 0.25 0.625 0.25 0.6249999 0.375 0.625 0.375 0.625 0.25 0.625 0.25 0.6249999 0.375 0.625 0.375 0.6249999 0.375 0.5887078 0.375 0.6249999 0.375 0.6249999 0.375 0.5887078 0.375 0.5887077 0.25 0.625 0.25 0.625 0.25 0.5887078 0.25 0.625 0.25 0.625 0.25 0.6249999 0.375 0.6249999 0.375 0.5887078 0.375 0.5887078 0.375 0.6249999 0.375 0.6249999 0.375 0.6249999 0.375 0.6249999 0.375 0.6249999 0.375 0.5887078 0.375 0.5887078 0.375 0.5887078 0.375 0.5887078 0.375 0.625 0.375 0.625 0.25 0.625 0.375 0.625 0.375 0.5887078 0.375 0.625 0.25 0.625 0.375 0.625 0.375 0.5887078 0.375 0.5887078 0.375 0.5887078 0.25</float_array>
          <technique_common>
            <accessor source="#Cube_001-mesh-map-0-array" count="1614" stride="2">
              <param name="S" type="float"/>
              <param name="T" type="float"/>
            </accessor>
          </technique_common>
        </source>
        <vertices id="Cube_001-mesh-vertices">
          <input semantic="POSITION" source="#Cube_001-mesh-positions"/>
        </vertices>
        <triangles count="538">
          <input semantic="VERTEX" source="#Cube_001-mesh-vertices" offset="0"/>
          <input semantic="NORMAL" source="#Cube_001-mesh-normals" offset="1"/>
          <input semantic="TEXCOORD" source="#Cube_001-mesh-map-0" offset="2" set="0"/>
          <p>0 0 0 24 0 1 9 0 2 5 1 3 14 1 4 18 1 5 2 2 6 20 2 7 6 2 8 3 3 9 12 3 10 7 3 11 19 4 12 0 4 13 4 4 14 11 5 15 25 5 16 10 5 17 8 6 18 16 6 19 2 6 20 1 7 21 13 7 22 10 7 23 22 8 24 3 8 25 17 8 26 17 9 27 7 9 28 21 9 29 9 10 30 23 10 31 8 10 32 13 11 33 11 11 34 10 11 35 15 12 36 18 12 37 14 12 38 21 13 39 16 13 40 17 13 41 23 14 42 25 14 43 22 14 44 14 15 45 24 15 46 15 15 47 17 16 48 23 16 49 22 16 50 1 17 51 25 17 52 14 17 53 58 18 54 27 18 55 36 18 56 45 19 57 29 19 58 37 19 59 46 20 60 31 20 61 39 20 62 59 21 63 30 21 64 38 21 65 43 22 66 31 22 67 42 22 68 54 23 69 30 23 70 52 23 71 63 24 72 34 24 73 44 24 74 64 25 75 35 25 76 56 25 77 43 26 78 37 26 79 33 26 80 58 27 81 32 27 82 54 27 83 47 28 84 38 28 85 26 28 86 40 29 87 39 29 88 28 29 89 26 30 90 46 30 91 40 30 92 36 31 93 43 31 94 32 31 95 62 32 96 44 32 97 35 32 98 30 33 99 43 33 100 42 33 101 38 34 102 42 34 103 46 34 104 41 35 105 101 35 106 27 35 107 75 36 108 69 36 109 76 36 110 28 37 111 60 37 112 49 37 113 33 38 114 57 38 115 53 38 116 31 39 117 53 39 118 51 39 119 39 40 120 51 40 121 60 40 122 65 41 123 34 41 124 61 41 125 72 42 126 67 42 127 74 42 128 37 43 129 50 43 130 57 43 131 48 44 132 61 44 133 27 44 134 29 45 135 63 45 136 62 45 137 50 46 138 62 46 139 64 46 140 27 47 141 63 47 142 41 47 143 70 48 144 78 48 145 81 48 146 70 49 147 82 49 148 71 49 149 73 50 150 67 50 151 70 50 152 72 51 153 69 51 154 66 51 155 28 52 156 72 52 157 40 52 158 47 53 159 74 53 160 73 53 161 40 54 162 74 54 163 26 54 164 49 55 165 76 55 166 28 55 167 77 56 168 86 56 169 83 56 170 82 57 171 85 57 172 79 57 173 68 58 174 80 58 175 69 58 176 71 59 177 79 59 178 68 59 179 66 60 180 80 60 181 77 60 182 66 61 183 78 61 184 67 61 185 95 62 186 90 62 187 93 62 188 96 63 189 93 63 190 94 63 191 78 64 192 83 64 193 84 64 194 81 65 195 88 65 196 82 65 197 81 66 198 84 66 199 87 66 200 79 67 201 86 67 202 80 67 203 92 68 204 125 68 205 89 68 206 120 69 207 128 69 208 119 69 209 98 70 210 92 70 211 99 70 212 98 71 213 94 71 214 91 71 215 99 72 216 89 72 217 100 72 218 100 73 219 90 73 220 97 73 221 83 74 222 97 74 223 84 74 224 83 75 225 99 75 226 100 75 227 85 76 228 96 76 229 98 76 230 86 77 231 98 77 232 99 77 233 87 78 234 96 78 235 88 78 236 84 79 237 95 79 238 87 79 239 102 80 240 105 80 241 106 80 242 45 81 243 103 81 244 41 81 245 36 82 246 104 82 247 45 82 248 27 83 249 102 83 250 36 83 251 114 84 252 112 84 253 111 84 254 104 85 255 107 85 256 103 85 257 103 86 258 105 86 259 101 86 260 104 87 261 106 87 262 108 87 263 136 88 264 132 88 265 137 88 266 115 89 267 111 89 268 109 89 269 116 90 270 112 90 271 113 90 272 115 91 273 110 91 274 116 91 275 106 92 276 115 92 277 116 92 278 106 93 279 113 93 280 108 93 281 105 94 282 114 94 283 115 94 284 108 95 285 114 95 286 107 95 287 117 96 288 121 96 289 118 96 290 120 69 291 122 69 292 117 69 293 90 97 294 117 97 295 118 97 296 93 98 297 122 98 298 94 98 299 90 99 300 121 99 301 93 99 302 122 100 303 126 100 304 94 100 305 125 101 306 129 101 307 130 101 308 126 102 309 128 102 310 123 102 311 124 103 312 128 103 313 129 103 314 119 104 315 127 104 316 122 104 317 120 105 318 130 105 319 129 105 320 92 106 321 123 106 322 124 106 323 117 107 324 125 107 325 130 107 326 91 108 327 126 108 328 123 108 329 131 109 330 148 109 331 132 109 332 141 110 333 134 110 334 133 110 335 136 111 336 133 111 337 131 111 338 137 112 339 134 112 340 140 112 341 112 113 342 138 113 343 139 113 344 138 114 345 140 114 346 139 114 347 111 115 348 135 115 349 109 115 350 135 116 351 141 116 352 136 116 353 111 117 354 139 117 355 142 117 356 142 118 357 143 118 358 146 118 359 109 119 360 138 119 361 110 119 362 135 120 363 137 120 364 138 120 365 146 121 366 144 121 367 145 121 368 141 122 369 144 122 370 140 122 371 141 123 372 146 123 373 145 123 374 140 124 375 143 124 376 139 124 377 147 125 378 150 125 379 148 125 380 133 126 381 150 126 382 149 126 383 133 127 384 147 127 385 131 127 386 134 128 387 148 128 388 150 128 389 56 129 390 2 129 391 6 129 392 35 130 393 8 130 394 2 130 395 44 131 396 9 131 397 8 131 398 34 132 399 9 132 400 44 132 401 34 133 402 4 133 403 0 133 404 56 134 405 35 134 406 2 134 407 35 135 408 44 135 409 8 135 410 34 136 411 0 136 412 9 136 413 34 137 414 55 137 415 4 137 416 151 138 417 165 138 418 160 138 419 159 139 420 5 139 421 18 139 422 153 140 423 20 140 424 161 140 425 154 141 426 12 141 427 158 141 428 151 142 429 19 142 430 4 142 431 158 143 432 166 143 433 163 143 434 155 144 435 161 144 436 164 144 437 13 145 438 152 145 439 157 145 440 163 146 441 154 146 442 158 146 443 162 147 444 7 147 445 154 147 446 156 148 447 164 148 448 165 148 449 158 149 450 13 149 451 157 149 452 160 150 453 18 150 454 19 150 455 161 151 456 21 151 457 162 151 458 164 152 459 166 152 460 165 152 461 159 153 462 165 153 463 166 153 464 164 154 465 162 154 466 163 154 467 166 155 468 152 155 469 159 155 470 58 156 471 168 156 472 48 156 473 186 157 474 170 157 475 182 157 476 187 158 477 172 158 478 183 158 479 59 159 480 171 159 481 52 159 482 172 160 483 184 160 484 183 160 485 171 161 486 54 161 487 52 161 488 190 162 489 175 162 490 188 162 491 64 163 492 176 163 493 189 163 494 184 164 495 178 164 496 186 164 497 173 165 498 58 165 499 54 165 500 47 166 501 179 166 502 59 166 503 181 167 504 180 167 505 187 167 506 167 168 507 187 168 508 179 168 509 184 169 510 177 169 511 173 169 512 189 170 513 185 170 514 190 170 515 171 171 516 184 171 517 173 171 518 179 172 519 183 172 520 171 172 521 221 173 522 182 173 523 168 173 524 193 174 525 75 174 526 196 174 527 169 175 528 60 175 529 180 175 530 174 176 531 57 176 532 178 176 533 172 177 534 53 177 535 174 177 536 180 178 537 51 178 538 172 178 539 175 179 540 65 179 541 188 179 542 192 180 543 194 180 544 195 180 545 178 181 546 50 181 547 170 181 548 188 182 549 48 182 550 168 182 551 170 183 552 190 183 553 182 183 554 50 184 555 189 184 556 170 184 557 190 185 558 168 185 559 182 185 560 70 186 561 198 186 562 192 186 563 202 187 564 70 187 565 71 187 566 73 188 567 192 188 568 195 188 569 194 189 570 193 189 571 196 189 572 194 190 573 169 190 574 181 190 575 47 191 576 195 191 577 167 191 578 195 192 579 181 192 580 167 192 581 196 193 582 49 193 583 169 193 584 197 194 585 206 194 586 200 194 587 205 195 588 202 195 589 199 195 590 200 196 591 68 196 592 193 196 593 199 197 594 71 197 595 68 197 596 191 198 597 200 198 598 193 198 599 198 199 600 191 199 601 192 199 602 215 200 603 210 200 604 217 200 605 216 201 606 213 201 607 215 201 608 198 202 609 203 202 610 197 202 611 208 203 612 201 203 613 202 203 614 201 204 615 204 204 616 198 204 617 206 205 618 199 205 619 200 205 620 245 206 621 212 206 622 209 206 623 248 207 624 240 207 625 239 207 626 212 208 627 218 208 628 219 208 629 218 209 630 214 209 631 216 209 632 209 210 633 219 210 634 220 210 635 210 211 636 220 211 637 217 211 638 217 212 639 203 212 640 204 212 641 203 213 642 219 213 643 206 213 644 205 214 645 216 214 646 208 214 647 206 215 648 218 215 649 205 215 650 216 216 651 207 216 652 208 216 653 215 217 654 204 217 655 207 217 656 222 218 657 225 218 658 221 218 659 223 219 660 186 219 661 182 219 662 224 220 663 177 220 664 186 220 665 222 221 666 168 221 667 177 221 668 234 222 669 232 222 670 233 222 671 227 223 672 224 223 673 223 223 674 225 224 675 223 224 676 221 224 677 224 225 678 226 225 679 222 225 680 252 226 681 256 226 682 257 226 683 235 227 684 231 227 685 234 227 686 232 228 687 236 228 688 233 228 689 230 229 690 235 229 691 236 229 692 226 230 693 235 230 694 225 230 695 233 231 696 226 231 697 228 231 698 225 232 699 234 232 700 227 232 701 234 233 702 228 233 703 227 233 704 241 234 705 237 234 706 238 234 707 242 69 708 240 69 709 237 69 710 210 235 711 237 235 712 209 235 713 242 236 714 213 236 715 214 236 716 241 237 717 210 237 718 213 237 719 246 238 720 242 238 721 214 238 722 245 239 723 249 239 724 244 239 725 248 240 726 246 240 727 243 240 728 244 241 729 248 241 730 243 241 731 247 242 732 239 242 733 242 242 734 240 243 735 250 243 736 237 243 737 212 244 738 243 244 739 211 244 740 237 245 741 245 245 742 209 245 743 211 246 744 246 246 745 214 246 746 268 247 747 251 247 748 252 247 749 261 248 750 254 248 751 260 248 752 256 249 753 253 249 754 261 249 755 254 250 756 257 250 757 260 250 758 232 251 759 258 251 760 230 251 761 260 252 762 258 252 763 259 252 764 255 253 765 231 253 766 229 253 767 255 254 768 261 254 769 262 254 770 231 255 771 259 255 772 232 255 773 262 256 774 263 256 775 259 256 776 258 257 777 229 257 778 230 257 779 257 258 780 255 258 781 258 258 782 266 259 783 264 259 784 263 259 785 264 260 786 261 260 787 260 260 788 261 261 789 266 261 790 262 261 791 263 262 792 260 262 793 259 262 794 270 263 795 267 263 796 268 263 797 253 264 798 270 264 799 254 264 800 267 265 801 253 265 802 251 265 803 254 266 804 268 266 805 252 266 806 56 267 807 6 267 808 153 267 809 176 268 810 153 268 811 155 268 812 185 269 813 155 269 814 156 269 815 175 270 816 185 270 817 156 270 818 175 271 819 151 271 820 4 271 821 56 272 822 153 272 823 176 272 824 176 273 825 155 273 826 185 273 827 175 274 828 156 274 829 151 274 830 175 275 831 4 275 832 55 275 833 0 276 834 15 276 835 24 276 836 5 277 837 1 277 838 14 277 839 2 278 840 16 278 841 20 278 842 3 279 843 11 279 844 12 279 845 19 280 846 15 280 847 0 280 848 11 281 849 22 281 850 25 281 851 8 282 852 23 282 853 16 282 854 1 283 855 5 283 856 13 283 857 22 284 858 11 284 859 3 284 860 17 285 861 3 285 862 7 285 863 9 286 864 24 286 865 23 286 866 13 287 867 12 287 868 11 287 869 15 288 870 19 288 871 18 288 872 21 289 873 20 289 874 16 289 875 23 290 876 24 290 877 25 290 878 14 291 879 25 291 880 24 291 881 17 292 882 16 292 883 23 292 884 1 293 885 10 293 886 25 293 887 58 294 888 48 294 889 27 294 890 45 295 891 41 295 892 29 295 893 46 296 894 42 296 895 31 296 896 59 297 897 52 297 898 30 297 899 43 298 900 33 298 901 31 298 902 54 299 903 32 299 904 30 299 905 63 300 906 61 300 907 34 300 908 64 301 909 62 301 910 35 301 911 43 302 912 45 302 913 37 302 914 58 303 915 36 303 916 32 303 917 47 166 918 59 166 919 38 166 920 40 304 921 46 304 922 39 304 923 26 305 924 38 305 925 46 305 926 36 306 927 45 306 928 43 306 929 62 307 930 63 307 931 44 307 932 30 308 933 32 308 934 43 308 935 38 309 936 30 309 937 42 309 938 41 310 939 103 310 940 101 310 941 75 311 942 68 311 943 69 311 944 28 175 945 39 175 946 60 175 947 33 312 948 37 312 949 57 312 950 31 313 951 33 313 952 53 313 953 39 178 954 31 178 955 51 178 956 65 314 957 55 314 958 34 314 959 72 315 960 66 315 961 67 315 962 37 316 963 29 316 964 50 316 965 48 317 966 65 317 967 61 317 968 29 318 969 41 318 970 63 318 971 50 319 972 29 319 973 62 319 974 27 320 975 61 320 976 63 320 977 70 321 978 67 321 979 78 321 980 70 322 981 81 322 982 82 322 983 73 323 984 74 323 985 67 323 986 72 324 987 76 324 988 69 324 989 28 325 990 76 325 991 72 325 992 47 326 993 26 326 994 74 326 995 40 327 996 72 327 997 74 327 998 49 328 999 75 328 1000 76 328 1001 77 329 1002 80 329 1003 86 329 1004 82 330 1005 88 330 1006 85 330 1007 68 331 1008 79 331 1009 80 331 1010 71 332 1011 82 332 1012 79 332 1013 66 333 1014 69 333 1015 80 333 1016 66 334 1017 77 334 1018 78 334 1019 95 335 1020 97 335 1021 90 335 1022 96 336 1023 95 336 1024 93 336 1025 78 337 1026 77 337 1027 83 337 1028 81 338 1029 87 338 1030 88 338 1031 81 339 1032 78 339 1033 84 339 1034 79 340 1035 85 340 1036 86 340 1037 92 341 1038 124 341 1039 125 341 1040 120 342 1041 129 342 1042 128 342 1043 98 343 1044 91 343 1045 92 343 1046 98 344 1047 96 344 1048 94 344 1049 99 345 1050 92 345 1051 89 345 1052 100 346 1053 89 346 1054 90 346 1055 83 347 1056 100 347 1057 97 347 1058 83 348 1059 86 348 1060 99 348 1061 85 349 1062 88 349 1063 96 349 1064 86 350 1065 85 350 1066 98 350 1067 87 351 1068 95 351 1069 96 351 1070 84 352 1071 97 352 1072 95 352 1073 102 353 1074 101 353 1075 105 353 1076 45 354 1077 104 354 1078 103 354 1079 36 355 1080 102 355 1081 104 355 1082 27 356 1083 101 356 1084 102 356 1085 114 357 1086 113 357 1087 112 357 1088 104 358 1089 108 358 1090 107 358 1091 103 359 1092 107 359 1093 105 359 1094 104 360 1095 102 360 1096 106 360 1097 136 361 1098 131 361 1099 132 361 1100 115 362 1101 114 362 1102 111 362 1103 116 363 1104 110 363 1105 112 363 1106 115 364 1107 109 364 1108 110 364 1109 106 365 1110 105 365 1111 115 365 1112 106 366 1113 116 366 1114 113 366 1115 105 367 1116 107 367 1117 114 367 1118 108 368 1119 113 368 1120 114 368 1121 117 369 1122 122 369 1123 121 369 1124 120 69 1125 119 69 1126 122 69 1127 90 370 1128 89 370 1129 117 370 1130 93 371 1131 121 371 1132 122 371 1133 90 372 1134 118 372 1135 121 372 1136 122 373 1137 127 373 1138 126 373 1139 125 374 1140 124 374 1141 129 374 1142 126 375 1143 127 375 1144 128 375 1145 124 376 1146 123 376 1147 128 376 1148 119 377 1149 128 377 1150 127 377 1151 120 69 1152 117 69 1153 130 69 1154 92 378 1155 91 378 1156 123 378 1157 117 379 1158 89 379 1159 125 379 1160 91 380 1161 94 380 1162 126 380 1163 131 381 1164 147 381 1165 148 381 1166 141 382 1167 140 382 1168 134 382 1169 136 383 1170 141 383 1171 133 383 1172 137 384 1173 132 384 1174 134 384 1175 112 385 1176 110 385 1177 138 385 1178 138 386 1179 137 386 1180 140 386 1181 111 387 1182 142 387 1183 135 387 1184 135 388 1185 142 388 1186 141 388 1187 111 389 1188 112 389 1189 139 389 1190 142 390 1191 139 390 1192 143 390 1193 109 391 1194 135 391 1195 138 391 1196 135 392 1197 136 392 1198 137 392 1199 146 393 1200 143 393 1201 144 393 1202 141 394 1203 145 394 1204 144 394 1205 141 395 1206 142 395 1207 146 395 1208 140 396 1209 144 396 1210 143 396 1211 147 397 1212 149 397 1213 150 397 1214 133 398 1215 134 398 1216 150 398 1217 133 399 1218 149 399 1219 147 399 1220 134 400 1221 132 400 1222 148 400 1223 151 401 1224 156 401 1225 165 401 1226 159 402 1227 152 402 1228 5 402 1229 153 403 1230 6 403 1231 20 403 1232 154 404 1233 7 404 1234 12 404 1235 151 405 1236 160 405 1237 19 405 1238 158 406 1239 157 406 1240 166 406 1241 155 407 1242 153 407 1243 161 407 1244 13 408 1245 5 408 1246 152 408 1247 163 409 1248 162 409 1249 154 409 1250 162 410 1251 21 410 1252 7 410 1253 156 411 1254 155 411 1255 164 411 1256 158 412 1257 12 412 1258 13 412 1259 160 413 1260 159 413 1261 18 413 1262 161 414 1263 20 414 1264 21 414 1265 164 415 1266 163 415 1267 166 415 1268 159 416 1269 160 416 1270 165 416 1271 164 417 1272 161 417 1273 162 417 1274 166 418 1275 157 418 1276 152 418 1277 58 419 1278 177 419 1279 168 419 1280 186 420 1281 178 420 1282 170 420 1283 187 421 1284 180 421 1285 172 421 1286 59 422 1287 179 422 1288 171 422 1289 172 423 1290 174 423 1291 184 423 1292 171 424 1293 173 424 1294 54 424 1295 190 425 1296 185 425 1297 175 425 1298 64 426 1299 56 426 1300 176 426 1301 184 427 1302 174 427 1303 178 427 1304 173 428 1305 177 428 1306 58 428 1307 47 429 1308 167 429 1309 179 429 1310 181 430 1311 169 430 1312 180 430 1313 167 431 1314 181 431 1315 187 431 1316 184 432 1317 186 432 1318 177 432 1319 189 433 1320 176 433 1321 185 433 1322 171 434 1323 183 434 1324 184 434 1325 179 435 1326 187 435 1327 183 435 1328 221 436 1329 223 436 1330 182 436 1331 193 437 1332 68 437 1333 75 437 1334 169 438 1335 49 438 1336 60 438 1337 174 439 1338 53 439 1339 57 439 1340 172 39 1341 51 39 1342 53 39 1343 180 40 1344 60 40 1345 51 40 1346 175 440 1347 55 440 1348 65 440 1349 192 441 1350 191 441 1351 194 441 1352 178 442 1353 57 442 1354 50 442 1355 188 443 1356 65 443 1357 48 443 1358 170 444 1359 189 444 1360 190 444 1361 50 46 1362 64 46 1363 189 46 1364 190 445 1365 188 445 1366 168 445 1367 70 446 1368 201 446 1369 198 446 1370 202 447 1371 201 447 1372 70 447 1373 73 448 1374 70 448 1375 192 448 1376 194 449 1377 191 449 1378 193 449 1379 194 450 1380 196 450 1381 169 450 1382 47 451 1383 73 451 1384 195 451 1385 195 452 1386 194 452 1387 181 452 1388 196 453 1389 75 453 1390 49 453 1391 197 454 1392 203 454 1393 206 454 1394 205 455 1395 208 455 1396 202 455 1397 200 456 1398 199 456 1399 68 456 1400 199 457 1401 202 457 1402 71 457 1403 191 458 1404 197 458 1405 200 458 1406 198 459 1407 197 459 1408 191 459 1409 215 460 1410 213 460 1411 210 460 1412 216 461 1413 214 461 1414 213 461 1415 198 462 1416 204 462 1417 203 462 1418 208 463 1419 207 463 1420 201 463 1421 201 464 1422 207 464 1423 204 464 1424 206 465 1425 205 465 1426 199 465 1427 245 466 1428 244 466 1429 212 466 1430 248 69 1431 249 69 1432 240 69 1433 212 467 1434 211 467 1435 218 467 1436 218 468 1437 211 468 1438 214 468 1439 209 469 1440 212 469 1441 219 469 1442 210 470 1443 209 470 1444 220 470 1445 217 471 1446 220 471 1447 203 471 1448 203 472 1449 220 472 1450 219 472 1451 205 473 1452 218 473 1453 216 473 1454 206 474 1455 219 474 1456 218 474 1457 216 475 1458 215 475 1459 207 475 1460 215 476 1461 217 476 1462 204 476 1463 222 477 1464 226 477 1465 225 477 1466 223 478 1467 224 478 1468 186 478 1469 224 479 1470 222 479 1471 177 479 1472 222 480 1473 221 480 1474 168 480 1475 234 481 1476 231 481 1477 232 481 1478 227 482 1479 228 482 1480 224 482 1481 225 483 1482 227 483 1483 223 483 1484 224 484 1485 228 484 1486 226 484 1487 252 485 1488 251 485 1489 256 485 1490 235 486 1491 229 486 1492 231 486 1493 232 487 1494 230 487 1495 236 487 1496 230 488 1497 229 488 1498 235 488 1499 226 489 1500 236 489 1501 235 489 1502 233 490 1503 236 490 1504 226 490 1505 225 491 1506 235 491 1507 234 491 1508 234 492 1509 233 492 1510 228 492 1511 241 493 1512 242 493 1513 237 493 1514 242 494 1515 239 494 1516 240 494 1517 210 495 1518 238 495 1519 237 495 1520 242 496 1521 241 496 1522 213 496 1523 241 497 1524 238 497 1525 210 497 1526 246 498 1527 247 498 1528 242 498 1529 245 499 1530 250 499 1531 249 499 1532 248 500 1533 247 500 1534 246 500 1535 244 501 1536 249 501 1537 248 501 1538 247 502 1539 248 502 1540 239 502 1541 240 503 1542 249 503 1543 250 503 1544 212 504 1545 244 504 1546 243 504 1547 237 505 1548 250 505 1549 245 505 1550 211 506 1551 243 506 1552 246 506 1553 268 507 1554 267 507 1555 251 507 1556 261 508 1557 253 508 1558 254 508 1559 256 509 1560 251 509 1561 253 509 1562 254 510 1563 252 510 1564 257 510 1565 232 511 1566 259 511 1567 258 511 1568 260 512 1569 257 512 1570 258 512 1571 255 513 1572 262 513 1573 231 513 1574 255 514 1575 256 514 1576 261 514 1577 231 515 1578 262 515 1579 259 515 1580 262 516 1581 266 516 1582 263 516 1583 258 517 1584 255 517 1585 229 517 1586 257 518 1587 256 518 1588 255 518 1589 266 519 1590 265 519 1591 264 519 1592 264 520 1593 265 520 1594 261 520 1595 261 521 1596 265 521 1597 266 521 1598 263 522 1599 264 522 1600 260 522 1601 270 523 1602 269 523 1603 267 523 1604 253 524 1605 269 524 1606 270 524 1607 267 525 1608 269 525 1609 253 525 1610 254 526 1611 270 526 1612 268 526 1613</p>
        </triangles>
      </mesh>
    </geometry>
  </library_geometries>
  <library_controllers>
    <controller id="Armature_Cube_001-skin" name="Armature">
      <skin source="#Cube_001-mesh">
        <bind_shape_matrix>1 0 0 -7.45058e-9 0 1 0 -0.06329426 0 0 1 0.1637282 0 0 0 1</bind_shape_matrix>
        <source id="Armature_Cube_001-skin-joints">
          <Name_array id="Armature_Cube_001-skin-joints-array" count="15">hip uppertorso head l_upperarm l_arm l_hand r_upperarm r_arm r_hand l_upperleg l_leg l_foot r_upperleg r_leg r_foot</Name_array>
          <technique_common>
            <accessor source="#Armature_Cube_001-skin-joints-array" count="15" stride="1">
              <param name="JOINT" type="name"/>
            </accessor>
          </technique_common>
        </source>
        <source id="Armature_Cube_001-skin-bind_poses">
          <float_array id="Armature_Cube_001-skin-bind_poses-array" count="240">-6.73478e-7 0.9919328 -0.1267654 0.02272093 0 0.1267655 0.9919329 0.1230472 1 6.69889e-7 0 0 0 0 0 1 -5.979e-7 0.9920707 0.1256815 -0.02252656 0 -0.1256815 0.9920708 -0.1778146 1 5.83779e-7 0 0 0 0 0 1 -6.50135e-7 0.9691964 -0.2462897 0.2524576 0 0.2462897 0.9691964 -0.7031408 1 6.33971e-7 -1.61103e-7 1.42401e-7 0 0 0 1 0.03635942 0.99921 0.01604521 0.1210288 -0.914152 0.03974241 -0.4034186 0.09783804 -0.4037374 2.75671e-7 0.9148749 -0.6638342 0 0 0 1 8.44108e-4 0.9999996 4.18318e-4 0.1096008 -0.9139738 9.41229e-4 -0.4057723 -0.2944481 -0.4057723 -3.98082e-5 0.9139742 -0.6644957 0 0 0 1 0.04934507 0.9985667 -0.02072674 0.1591395 -0.8156449 0.02831143 -0.57786 -0.5176306 -0.5764448 0.04542022 0.8158727 -0.7761987 0 0 0 1 0.0363596 -0.99921 -0.01604545 -0.1210288 0.9141523 0.03974264 -0.4034183 0.09783768 0.4037372 1.53668e-7 0.9148751 -0.6638343 0 0 0 1 8.44122e-4 -0.9999997 -4.18389e-4 -0.1096008 0.9139739 9.41251e-4 -0.4057722 -0.2944485 0.4057724 -3.98655e-5 0.9139743 -0.664496 0 0 0 1 0.04934507 -0.9985668 0.02072674 -0.1591395 0.8156451 0.02831143 -0.5778599 -0.517631 0.5764448 0.04542022 0.8158729 -0.776199 0 0 0 1 -0.9977294 -0.001574099 -0.06719237 -0.1057555 0.06716316 -0.06075322 -0.9958907 -0.1880013 -0.002494931 -0.9981418 0.06072098 -0.03416895 0 0 0 1 -0.9999223 -1.71849e-4 -0.01167255 -0.07706773 0.01166629 -0.04993498 -0.9986845 -0.5196242 -3.91698e-4 -0.9987425 0.04993283 -0.03964573 0 0 0 1 -0.9999688 -0.002361476 -0.006139934 -0.07178795 -1.86203e-5 0.9333351 -0.3589814 -0.2722163 0.006584346 -0.3589711 -0.9333246 -0.9557049 0 0 0 1 -0.9977294 0.001574039 0.06719243 0.1057555 -0.06716567 -0.06075096 -0.9958907 -0.188001 0.00249499 -0.9981418 0.06072133 -0.03416883 0 0 0 1 -0.9999224 1.71815e-4 0.01167255 0.07706773 -0.0116688 -0.04993212 -0.9986844 -0.5196239 3.91879e-4 -0.9987425 0.04993265 -0.03964591 0 0 0 1 -0.999969 0.002361834 0.006140828 0.0717889 1.76859e-5 0.9333351 -0.3589834 -0.2722182 -0.006587564 -0.3589707 -0.9333239 -0.9557039 0 0 0 1</float_array>
          <technique_common>
            <accessor source="#Armature_Cube_001-skin-bind_poses-array" count="15" stride="16">
              <param name="TRANSFORM" type="float4x4"/>
            </accessor>
          </technique_common>
        </source>
        <source id="Armature_Cube_001-skin-weights">
          <float_array id="Armature_Cube_001-skin-weights-array" count="484">0.02712136 0.9728786 1 0.02642631 0.9735738 1 0.06156551 0.9384344 1 0.01913589 0.9808641 1 0.04526871 0.9547313 0.04094582 0.9590542 1 1 1 1 1 1 1 1 1 1 1 1 1 1 1 1 0.7599006 0.1969283 0.04317104 0.07613319 0.02571886 0.898148 0.9325473 0.06745272 0.2546575 0.08134388 0.6639987 0.2283732 0.7150597 0.05656707 0.1584311 0.841569 0.04084306 0.6444891 0.3146678 0.02720344 0.8718733 0.1009233 0.09805721 0.9002616 0.001681149 0.1150413 0.8849587 0.1425246 0.8574754 0.698043 0.301957 0.580011 0.4178071 0.002181947 0.8152688 0.1847313 0.8196541 0.103491 0.07685494 0.0852099 0.01056402 0.904226 0.2111364 0.7740887 0.01477485 0.0466811 0.7383158 0.2150031 0.1104611 0.8895389 0.2562672 0.7437328 0.7268611 0.2731389 0.8006615 0.1993384 0.7233633 0.1477723 0.06443214 0.0644322 0.9940666 0.005933344 0.9601843 0.03981566 0.1166737 0.8833263 0.1209381 0.8790619 0.00618422 0.9938157 0.9381819 0.03090906 0.03090906 0.1160174 0.8839827 0.071864 0.928136 0.9726242 0.01368784 0.01368784 0.8400713 0.01480662 0.07256102 0.07256102 0.3378484 0.6621516 0.850347 0.149653 0.3839592 0.4308025 0.1852382 0.6014243 0.2965055 0.1020702 0.4137188 0.4789158 0.1073654 0.1962029 0.803797 0.503978 0.4960221 0.1156932 0.8843068 0.2384787 0.7615213 0.9069705 0.0465148 0.0465148 0.9121987 0.08780133 0.8050737 0.09746313 0.09746313 0.8972296 0.05138522 0.05138522 0.748831 0.01277142 0.2383975 0.8625981 0.04274451 0.04732865 0.04732865 0.7722792 0.06168889 0.166032 0.9783117 0.01084417 0.01084417 0.9653561 3.40881e-4 0.03430294 0.9948295 0.005170524 0.9605515 0.03944849 1 1 0.9464287 0.05357128 0.9763406 0.02365934 0.08105647 0.9189435 0.1217119 0.8782881 0.01151317 0.9884868 1 0.1206855 0.8793145 0.0832709 0.9167291 0.06705647 0.9329436 0.4473102 0.5526899 0.06650745 0.9334925 1 0.4424165 0.5575835 0.08725017 0.9127498 1 1 1 1 1 0.9990414 9.58558e-4 1 1 1 0.01992321 0.9800768 0.9909085 0.009091556 0.9715269 0.02847307 1 0.9862053 0.01379472 0.07363724 0.9263628 0.7756787 0.2243213 0.07589733 0.9241027 0.8426318 0.1573683 0.01421707 0.9857829 0.007512629 0.9924874 0.02014791 0.979852 0.02549606 0.9745039 0.07240527 0.9275947 0.3307781 0.6692219 0.03334891 0.9666512 0.03448218 0.9655178 0.3228418 0.6771582 0.0686028 0.9313972 1 1 1 1 1 1 1 1 1 1 1 1 1 1 1 0.1280624 0.8719376 0.1401215 0.8598785 0.002268791 0.9977312 1 0.0312221 0.9687779 1 1 1 1 1 1 1 1 0.02712142 0.9728786 1 0.02642637 0.9735736 1 0.04526871 0.9547313 0.04094582 0.9590541 1 1 1 1 1 1 1 1 1 1 0.7599006 0.1969283 0.04317104 0.07613313 0.02571886 0.898148 0.9325473 0.06745272 0.2546575 0.08134388 0.6639987 0.2283731 0.7150598 0.05656701 0.1584311 0.841569 0.04084306 0.6444892 0.3146677 0.02720338 0.8718733 0.1009232 0.09805721 0.9002616 0.001681149 0.1150413 0.8849587 0.1425246 0.8574754 0.6980431 0.3019569 0.580011 0.4178071 0.002181947 0.8152688 0.1847313 0.8196541 0.103491 0.07685488 0.0852099 0.01056402 0.904226 0.2111364 0.7740888 0.01477479 0.0466811 0.7383158 0.2150031 0.1104611 0.889539 0.2562673 0.7437328 0.7268611 0.2731389 0.3839592 0.4308025 0.1852383 0.6014242 0.2965056 0.1020702 0.4137189 0.4789158 0.1073654 0.1156932 0.8843068 0.2384788 0.7615212 0.9121987 0.08780133 0.748831 0.01277142 0.2383975 0.7722791 0.06168884 0.166032 0.9653561 3.40885e-4 0.03430294 0.9948295 0.005170464 0.9605515 0.03944849 1 1 0.9464287 0.05357128 0.9763407 0.0236594 0.08105641 0.9189436 0.1217119 0.8782881 0.01151311 0.988487 1 0.1206855 0.8793145 0.08327084 0.9167292 0.06705647 0.9329436 0.4473102 0.5526899 0.06650745 0.9334926 1 0.4424165 0.5575835 0.08725011 0.91275 1 1 1 1 1 0.9990414 9.58569e-4 1 1 1 0.01992321 0.9800768 0.9909083 0.009091734 0.9715272 0.02847284 1 0.9862055 0.0137946 0.073637 0.9263631 0.7756792 0.2243207 0.07589757 0.9241024 0.8426318 0.1573682 0.01421695 0.985783 0.007512629 0.9924873 0.02014791 0.979852 0.02549564 0.9745043 0.07240527 0.9275947 0.3307781 0.6692219 0.03334891 0.9666512 0.03448224 0.9655178 0.3228418 0.6771582 0.0686028 0.9313972 1 1 1 1 1 1 1 1 1 1 1 1 1 1 1 0.1280623 0.8719377 0.1401215 0.8598785 0.002268791 0.9977312 1 0.03122222 0.9687778 1 1 1 1 1 1 1 1</float_array>
          <technique_common>
            <accessor source="#Armature_Cube_001-skin-weights-array" count="484" stride="1">
              <param name="WEIGHT" type="float"/>
            </accessor>
          </technique_common>
        </source>
        <joints>
          <input semantic="JOINT" source="#Armature_Cube_001-skin-joints"/>
          <input semantic="INV_BIND_MATRIX" source="#Armature_Cube_001-skin-bind_poses"/>
        </joints>
        <vertex_weights count="271">
          <input semantic="JOINT" source="#Armature_Cube_001-skin-joints" offset="0"/>
          <input semantic="WEIGHT" source="#Armature_Cube_001-skin-weights" offset="1"/>
          <vcount>2 1 2 1 2 1 2 1 2 2 1 1 1 1 1 1 1 1 1 1 1 1 1 1 1 1 3 3 2 3 3 2 3 3 3 2 2 2 3 2 3 3 3 3 2 2 2 2 4 2 2 2 2 2 3 2 2 3 4 2 2 3 3 3 2 2 2 2 3 2 3 3 3 4 3 3 3 2 2 1 1 2 2 2 2 2 1 2 2 2 2 2 1 2 2 1 1 1 1 1 2 1 1 1 2 2 2 1 2 2 2 2 2 2 2 2 2 2 2 2 2 2 2 1 1 1 1 1 1 1 1 1 1 1 1 1 1 1 2 2 2 1 2 1 1 1 1 1 1 1 1 2 1 2 1 2 2 1 1 1 1 1 1 1 1 1 1 3 3 2 3 3 2 3 3 3 2 2 2 3 2 3 3 3 3 2 2 2 3 3 3 2 2 2 3 3 3 2 2 1 1 2 2 2 2 2 1 2 2 2 2 2 1 2 2 1 1 1 1 1 2 1 1 1 2 2 2 1 2 2 2 2 2 2 2 2 2 2 2 2 2 2 2 1 1 1 1 1 1 1 1 1 1 1 1 1 1 1 2 2 2 1 2 1 1 1 1 1 1 1 1 </vcount>
          <v>1 0 2 1 2 2 1 3 2 4 2 5 1 6 2 7 2 8 1 9 2 10 2 11 1 12 2 13 1 14 2 15 2 16 2 17 2 18 2 19 2 20 2 21 2 22 2 23 2 24 2 25 2 26 2 27 2 28 2 29 2 30 2 31 0 32 1 33 9 34 1 35 2 36 3 37 0 38 1 39 1 40 2 41 3 42 0 43 1 44 3 45 0 46 1 47 0 48 1 49 3 50 0 51 1 52 3 53 1 54 2 55 3 56 1 57 2 58 1 59 3 60 1 61 3 62 0 63 1 64 3 65 0 66 1 67 0 68 1 69 9 70 1 71 2 72 3 73 0 74 1 75 3 76 0 77 1 78 3 79 1 80 2 81 1 82 3 83 0 84 1 85 0 86 1 87 1 88 2 89 3 90 6 91 0 92 1 93 1 94 2 95 0 96 1 97 0 98 1 99 0 100 1 101 1 102 3 103 6 104 1 105 2 106 1 107 2 108 1 109 3 110 6 111 1 112 2 113 3 114 6 115 0 116 1 117 0 118 1 119 1 120 2 121 3 122 1 123 2 124 3 125 1 126 2 127 3 128 1 129 2 130 1 131 2 132 0 133 9 134 0 135 9 136 0 137 9 138 12 139 0 140 9 141 0 142 9 143 12 144 0 145 9 146 12 147 0 148 1 149 9 150 0 151 1 152 9 153 12 154 0 155 1 156 9 157 0 158 9 159 12 160 0 161 1 162 9 163 9 164 10 165 9 166 10 167 9 168 9 169 9 170 10 171 9 172 10 173 9 174 10 175 9 176 10 177 9 178 10 179 10 180 9 181 10 182 9 183 10 184 10 185 11 186 10 187 11 188 10 189 11 190 11 191 10 192 11 193 10 194 11 195 10 196 10 197 10 198 10 199 10 200 10 201 11 202 3 203 3 204 3 205 1 206 3 207 3 208 4 209 3 210 4 211 3 212 3 213 4 214 4 215 5 216 4 217 5 218 4 219 5 220 4 221 5 222 3 223 4 224 3 225 4 226 3 227 4 228 3 229 4 230 10 231 11 232 10 233 11 234 10 235 11 236 10 237 11 238 10 239 11 240 10 241 11 242 11 243 11 244 11 245 11 246 11 247 11 248 11 249 11 250 5 251 5 252 5 253 5 254 5 255 5 256 5 257 4 258 5 259 4 260 5 261 4 262 5 263 5 264 4 265 5 266 5 267 5 268 5 269 5 270 5 271 5 272 5 273 5 274 1 275 2 276 2 277 1 278 2 279 2 280 1 281 2 282 1 283 2 284 2 285 2 286 2 287 2 288 2 289 2 290 2 291 2 292 2 293 2 294 0 295 1 296 12 297 1 298 2 299 6 300 0 301 1 302 1 303 2 304 6 305 0 306 1 307 6 308 0 309 1 310 0 311 1 312 6 313 0 314 1 315 6 316 1 317 2 318 6 319 1 320 2 321 1 322 6 323 1 324 6 325 0 326 1 327 6 328 0 329 1 330 0 331 1 332 12 333 1 334 2 335 6 336 0 337 1 338 6 339 0 340 1 341 6 342 1 343 2 344 1 345 6 346 0 347 1 348 1 349 2 350 6 351 1 352 2 353 6 354 1 355 2 356 6 357 0 358 12 359 0 360 12 361 0 362 12 363 0 364 1 365 12 366 0 367 1 368 12 369 0 370 1 371 12 372 12 373 13 374 12 375 13 376 12 377 12 378 12 379 13 380 12 381 13 382 12 383 13 384 12 385 13 386 12 387 13 388 13 389 12 390 13 391 12 392 13 393 13 394 14 395 13 396 14 397 13 398 14 399 14 400 13 401 14 402 13 403 14 404 13 405 13 406 13 407 13 408 13 409 13 410 14 411 6 412 6 413 6 414 1 415 6 416 6 417 7 418 6 419 7 420 6 421 6 422 7 423 7 424 8 425 7 426 8 427 7 428 8 429 7 430 8 431 6 432 7 433 6 434 7 435 6 436 7 437 6 438 7 439 13 440 14 441 13 442 14 443 13 444 14 445 13 446 14 447 13 448 14 449 13 450 14 451 14 452 14 453 14 454 14 455 14 456 14 457 14 458 14 459 8 460 8 461 8 462 8 463 8 464 8 465 8 466 7 467 8 468 7 469 8 470 7 471 8 472 8 473 7 474 8 475 8 476 8 477 8 478 8 479 8 480 8 481 8 482 8 483</v>
        </vertex_weights>
      </skin>
    </controller>
  </library_controllers>
  <library_animations>
    <animation id="action_container-Armature" name="Armature">
      <animation id="Armature_ArmatureAction_hip_pose_matrix" name="Armature">
        <source id="Armature_ArmatureAction_hip_pose_matrix-input">
          <float_array id="Armature_ArmatureAction_hip_pose_matrix-input-array" count="40">0.04166662 0.08333331 0.125 0.1666666 0.2083333 0.25 0.2916666 0.3333333 0.375 0.4166666 0.4583333 0.5 0.5416667 0.5833333 0.625 0.6666667 0.7083333 0.75 0.7916667 0.8333333 0.875 0.9166667 0.9583333 1 1.041667 1.083333 1.125 1.166667 1.208333 1.25 1.291667 1.333333 1.375 1.416667 1.458333 1.5 1.541667 1.583333 1.625 1.666667</float_array>
          <technique_common>
            <accessor source="#Armature_ArmatureAction_hip_pose_matrix-input-array" count="40" stride="1">
              <param name="TIME" type="float"/>
            </accessor>
          </technique_common>
        </source>
        <source id="Armature_ArmatureAction_hip_pose_matrix-output">
          <float_array id="Armature_ArmatureAction_hip_pose_matrix-output-array" count="640">-6.71529e-7 -2.98023e-8 0.9999999 1.0857e-8 0.9919327 0.1267655 6.78003e-7 -0.03813579 -0.1267655 0.9919326 -7.45058e-9 -0.1191744 0 0 0 1 -6.24283e-4 0.001823118 0.9999981 1.0857e-8 0.9919309 0.1267789 3.88122e-4 -0.03813579 -0.126778 0.9919292 -0.001887505 -0.1191744 0 0 0 1 -0.00243749 0.007123642 0.9999716 1.0857e-8 0.9919243 0.1268219 0.001514423 -0.03813579 -0.1268076 0.9918998 -0.007375193 -0.1191744 0 0 0 1 -0.005354987 0.01565093 0.9998631 1.0857e-8 0.9919094 0.1269037 0.003325965 -0.03813579 -0.1268343 0.9917915 -0.01620383 -0.1191744 0 0 0 1 -0.009292223 0.027156 0.999588 1.0857e-8 0.991881 0.1270385 0.005769306 -0.03813579 -0.1268296 0.9915259 -0.02811594 -0.1191744 0 0 0 1 -0.01416443 0.04138884 0.9990426 1.0857e-8 0.9918324 0.1272443 0.008790669 -0.03813579 -0.1267587 0.9910074 -0.04285309 -0.1191744 0 0 0 1 -0.01988569 0.05809584 0.9981129 1.0857e-8 0.9917566 0.127541 0.01233545 -0.03813579 -0.1265837 0.9901303 -0.06015313 -0.1191744 0 0 0 1 -0.02636813 0.07701762 0.996681 1.0857e-8 0.991646 0.1279491 0.01634778 -0.03813579 -0.1262654 0.9887857 -0.07974795 -0.1191744 0 0 0 1 -0.0335214 0.09788761 0.9946327 1.0857e-8 0.9914935 0.1284885 0.02077031 -0.03813579 -0.1257657 0.986868 -0.101362 -0.1191744 0 0 0 1 -0.04125232 0.1204312 0.9918641 1.0857e-8 0.9912925 0.1291769 0.02554402 -0.03813579 -0.1250496 0.9842812 -0.1247113 -0.1191744 0 0 0 1 -0.04946487 0.1443658 0.9882873 1.0857e-8 0.9910376 0.1300291 0.03060832 -0.03813579 -0.1240873 0.9809439 -0.1495037 -0.1191744 0 0 0 1 -0.05806057 0.1694021 0.9838352 1.0857e-8 0.9907247 0.1310556 0.03590129 -0.03813579 -0.1228554 0.9767944 -0.1754399 -0.1191744 0 0 0 1 -0.06693893 0.1952454 0.9784673 1.0857e-8 0.9903514 0.1322622 0.04136008 -0.03813579 -0.1213389 0.9717951 -0.202215 -0.1191744 0 0 0 1 -0.0759984 0.2215986 0.9721718 1.0857e-8 0.9899173 0.133649 0.04692144 -0.03813579 -0.1195321 0.9659357 -0.2295214 -0.1191744 0 0 0 1 -0.08513737 0.248165 0.9649692 1.0857e-8 0.9894239 0.1352099 0.05252249 -0.03813579 -0.1174392 0.9592353 -0.2570518 -0.1191744 0 0 0 1 -0.09425531 0.274652 0.9569128 1.0857e-8 0.9888749 0.1369327 0.0581013 -0.03813579 -0.115075 0.9517434 -0.2845031 -0.1191744 0 0 0 1 -0.1032539 0.3007738 0.9480895 1.0857e-8 0.9882764 0.1387988 0.06359774 -0.03813579 -0.1124652 0.9435411 -0.3115791 -0.1191744 0 0 0 1 -0.1120383 0.3262557 0.9386184 1.0857e-8 0.9876363 0.1407835 0.06895416 -0.03813579 -0.1096453 0.934739 -0.3379951 -0.1191744 0 0 0 1 -0.1205181 0.3508367 0.9286489 1.0857e-8 0.9869644 0.1428566 0.07411601 -0.03813579 -0.1066611 0.9254758 -0.36348 -0.1191744 0 0 0 1 -0.1286081 0.3742709 0.9183578 1.0857e-8 0.9862728 0.1449827 0.07903215 -0.03813579 -0.1035666 0.9159154 -0.3877792 -0.1191744 0 0 0 1 -0.1362285 0.3963301 0.907945 1.0857e-8 0.9855744 0.1471222 0.08365532 -0.03813579 -0.1004237 0.9062436 -0.4106551 -0.1191744 0 0 0 1 -0.1433058 0.4168032 0.8976293 1.0857e-8 0.9848838 0.1492317 0.087942 -0.03813579 -0.09730026 0.8966632 -0.4318884 -0.1191744 0 0 0 1 -0.1497716 0.4354956 0.8876441 1.0857e-8 0.9842163 0.1512656 0.09185228 -0.03813579 -0.09426876 0.8873907 -0.4512771 -0.1191744 0 0 0 1 -0.1555628 0.4522279 0.8782312 1.0857e-8 0.983588 0.1531765 0.09534964 -0.03813579 -0.09140468 0.8786505 -0.4686345 -0.1191744 0 0 0 1 -0.1606202 0.4668321 0.8696371 1.0857e-8 0.9830149 0.1549164 0.09839978 -0.03813579 -0.08878493 0.8706713 -0.4837856 -0.1191744 0 0 0 1 -0.1648874 0.4791487 0.862107 1.0857e-8 0.9825132 0.1564375 0.1009704 -0.03813579 -0.08648606 0.8636804 -0.4965644 -0.1191744 0 0 0 1 -0.1683092 0.4890209 0.8558799 1.0857e-8 0.9820986 0.1576931 0.1030297 -0.03813579 -0.08458273 0.8578994 -0.5068079 -0.1191744 0 0 0 1 -0.1708293 0.4962895 0.8511838 1.0857e-8 0.9817862 0.1586387 0.1045451 -0.03813579 -0.08314611 0.8535399 -0.5143503 -0.1191744 0 0 0 1 -0.172389 0.500787 0.8482301 1.0857e-8 0.9815896 0.159233 0.1054825 -0.03813579 -0.08224197 0.850798 -0.5190173 -0.1191744 0 0 0 1 -0.1729242 0.5023302 0.847208 1.0857e-8 0.9815217 0.1594385 0.1058041 -0.03813579 -0.08192901 0.8498492 -0.5206187 -0.1191744 0 0 0 1 -0.1697893 0.4932901 0.8531333 1.0857e-8 0.9819158 0.1582463 0.1039198 -0.03813579 -0.0837426 0.8553495 -0.5112379 -0.1191744 0 0 0 1 -0.1611602 0.4683909 0.8686986 1.0857e-8 0.9829523 0.1551062 0.09872521 -0.03813579 -0.08849856 0.8698 -0.4854028 -0.1191744 0 0 0 1 -0.1481429 0.4307883 0.8902106 1.0857e-8 0.9843878 0.1507435 0.09086788 -0.03813579 -0.09504867 0.889774 -0.4463943 -0.1191744 0 0 0 1 -0.1319031 0.383811 0.9139423 1.0857e-8 0.9859765 0.1458913 0.08103212 -0.03813579 -0.1022352 0.9118139 -0.3976721 -0.1191744 0 0 0 1 -0.1137688 0.3312735 0.9366506 1.0857e-8 0.9875035 0.1411939 0.0700083 -0.03813579 -0.1090575 0.9329106 -0.3431971 -0.1191744 0 0 0 1 -0.09524773 0.2775338 0.9559826 1.0857e-8 0.9888117 0.1371303 0.05870794 -0.03813579 -0.1148008 0.9508786 -0.28749 -0.1191744 0 0 0 1 -0.07797384 0.2273425 0.970688 1.0857e-8 0.9898154 0.1339725 0.04813293 -0.03813579 -0.1191029 0.9645551 -0.2354734 -0.1191744 0 0 0 1 -0.06362358 0.1855969 0.9805639 1.0857e-8 0.9904969 0.1317941 0.03932266 -0.03813579 -0.1219344 0.9737474 -0.1922183 -0.1191744 0 0 0 1 -0.0538465 0.1571299 0.9861088 1.0857e-8 0.990884 0.130535 0.03330737 -0.03813579 -0.1234882 0.978913 -0.1627263 -0.1191744 0 0 0 1 -0.05023976 0.1466233 0.9879158 1.0857e-8 0.9910113 0.1301159 0.0310858 -0.03813579 -0.1239857 0.9805974 -0.1518423 -0.1191744 0 0 0 1</float_array>
          <technique_common>
            <accessor source="#Armature_ArmatureAction_hip_pose_matrix-output-array" count="40" stride="16">
              <param name="TRANSFORM" type="float4x4"/>
            </accessor>
          </technique_common>
        </source>
        <source id="Armature_ArmatureAction_hip_pose_matrix-interpolation">
          <Name_array id="Armature_ArmatureAction_hip_pose_matrix-interpolation-array" count="40">LINEAR LINEAR LINEAR LINEAR LINEAR LINEAR LINEAR LINEAR LINEAR LINEAR LINEAR LINEAR LINEAR LINEAR LINEAR LINEAR LINEAR LINEAR LINEAR LINEAR LINEAR LINEAR LINEAR LINEAR LINEAR LINEAR LINEAR LINEAR LINEAR LINEAR LINEAR LINEAR LINEAR LINEAR LINEAR LINEAR LINEAR LINEAR LINEAR LINEAR</Name_array>
          <technique_common>
            <accessor source="#Armature_ArmatureAction_hip_pose_matrix-interpolation-array" count="40" stride="1">
              <param name="INTERPOLATION" type="name"/>
            </accessor>
          </technique_common>
        </source>
        <sampler id="Armature_ArmatureAction_hip_pose_matrix-sampler">
          <input semantic="INPUT" source="#Armature_ArmatureAction_hip_pose_matrix-input"/>
          <input semantic="OUTPUT" source="#Armature_ArmatureAction_hip_pose_matrix-output"/>
          <input semantic="INTERPOLATION" source="#Armature_ArmatureAction_hip_pose_matrix-interpolation"/>
        </sampler>
        <channel source="#Armature_ArmatureAction_hip_pose_matrix-sampler" target="Armature_hip/transform"/>
      </animation>
    </animation>
  </library_animations>
  <library_visual_scenes>
    <visual_scene id="Scene" name="Scene">
      <node id="Armature" name="Armature" type="NODE">
        <matrix sid="transform">1 0 0 0 0 1 0 0 0 0 1 7.45058e-9 0 0 0 1</matrix>
        <node id="Armature_hip" name="hip" sid="hip" type="JOINT">
          <matrix sid="transform">-6.71529e-7 -2.98023e-8 0.9999999 1.0857e-8 0.9919327 0.1267655 6.78003e-7 -0.03813579 -0.1267655 0.9919326 -7.45058e-9 -0.1191744 0 0 0 1</matrix>
          <node id="Armature_uppertorso" name="uppertorso" sid="uppertorso" type="JOINT">
            <matrix sid="transform">0.9681353 -0.2504279 -9.71523e-8 2.10367e-10 0.2504279 0.9681353 8.09264e-8 0.3008372 7.37905e-8 -1.02677e-7 1 -1.33227e-15 0 0 0 1</matrix>
            <node id="Armature_head" name="head" sid="head" type="JOINT">
              <matrix sid="transform">0.9305571 0.3661469 2.48934e-8 -7.45058e-9 -0.3661469 0.9305572 -2.02865e-7 0.5689346 -9.7443e-8 1.79663e-7 1 -1.77636e-15 0 0 0 1</matrix>
              <extra>
                <technique profile="blender">
                  <connect sid="connect" type="bool">1</connect>
                  <collections type="string">Bones</collections>
                  <roll sid="roll" type="float">1.570797</roll>
                  <tip_x sid="tip_x" type="float">0</tip_x>
                  <tip_y sid="tip_y" type="float">0.07150459</tip_y>
                  <tip_z sid="tip_z" type="float">0.281384</tip_z>
                </technique>
              </extra>
            </node>
            <node id="Armature_l_upperarm" name="l.upperarm" sid="l_upperarm" type="JOINT">
              <matrix sid="transform">0.9933035 -0.01127442 0.1149834 -0.06531195 -0.1096642 -0.4052145 0.9076206 0.4776129 0.03636003 -0.9141522 -0.4037376 -0.1829766 0 0 0 1</matrix>
              <node id="Armature_l_arm" name="l.arm" sid="l_arm" type="JOINT">
                <matrix sid="transform">0.999247 -0.03880181 -1.28494e-4 -1.49012e-8 0.038802 0.9992445 0.002222031 0.3892874 4.21784e-5 -0.002225339 0.9999975 1.49012e-8 0 0 0 1</matrix>
                <node id="Armature_l_hand" name="l.hand" sid="l_hand" type="JOINT">
                  <matrix sid="transform">0.9985993 0.02738125 0.04527495 -7.45058e-9 -0.03574989 0.9799839 0.1958397 0.3705213 -0.0390064 -0.197184 0.9795903 2.98023e-8 0 0 0 1</matrix>
                  <extra>
                    <technique profile="blender">
                      <connect sid="connect" type="bool">1</connect>
                      <collections type="string">Bones</collections>
                      <roll sid="roll" type="float">-0.5709337</roll>
                      <tip_x sid="tip_x" type="float">-0.1556633</tip_x>
                      <tip_y sid="tip_y" type="float">0.005403161</tip_y>
                      <tip_z sid="tip_z" type="float">-0.1102828</tip_z>
                    </technique>
                  </extra>
                </node>
                <extra>
                  <technique profile="blender">
                    <connect sid="connect" type="bool">1</connect>
                    <collections type="string">Bones</collections>
                    <roll sid="roll" type="float">-0.4178635</roll>
                  </technique>
                </extra>
              </node>
              <extra>
                <technique profile="blender">
                  <collections type="string">Bones</collections>
                  <roll sid="roll" type="float">-0.4155981</roll>
                </technique>
              </extra>
            </node>
            <node id="Armature_r_upperarm" name="r.upperarm" sid="r_upperarm" type="JOINT">
              <matrix sid="transform">-0.9933035 -0.01127523 0.1149828 -0.06531228 0.109664 -0.4052143 0.9076207 0.4776129 0.03635903 0.9141522 0.4037372 0.1829766 0 0 0 1</matrix>
              <node id="Armature_r_arm" name="r.arm" sid="r_arm" type="JOINT">
                <matrix sid="transform">0.9992468 0.03880202 1.28435e-4 0 -0.03880221 0.9992444 0.00222224 0.3892876 -4.21139e-5 -0.002225578 0.9999975 1.49012e-8 0 0 0 1</matrix>
                <node id="Armature_r_hand" name="r.hand" sid="r_hand" type="JOINT">
                  <matrix sid="transform">0.9985993 -0.02738119 -0.04527499 1.49012e-8 0.03574985 0.9799839 0.1958396 0.3705214 0.03900645 -0.1971839 0.9795903 -2.98023e-8 0 0 0 1</matrix>
                  <extra>
                    <technique profile="blender">
                      <connect sid="connect" type="bool">1</connect>
                      <collections type="string">Bones</collections>
                      <roll sid="roll" type="float">0.5709337</roll>
                      <tip_x sid="tip_x" type="float">0.1556633</tip_x>
                      <tip_y sid="tip_y" type="float">0.005403161</tip_y>
                      <tip_z sid="tip_z" type="float">-0.1102828</tip_z>
                    </technique>
                  </extra>
                </node>
                <extra>
                  <technique profile="blender">
                    <connect sid="connect" type="bool">1</connect>
                    <collections type="string">Bones</collections>
                    <roll sid="roll" type="float">0.4178635</roll>
                  </technique>
                </extra>
              </node>
              <extra>
                <technique profile="blender">
                  <collections type="string">Bones</collections>
                  <roll sid="roll" type="float">0.415598</roll>
                </technique>
              </extra>
            </node>
            <extra>
              <technique profile="blender">
                <connect sid="connect" type="bool">1</connect>
                <collections type="string">Bones</collections>
                <roll sid="roll" type="float">1.570797</roll>
              </technique>
            </extra>
          </node>
          <node id="Armature_l_upperleg" name="l.upperleg" sid="l_upperleg" type="JOINT">
            <matrix sid="transform">0.006937495 0.0659827 -0.9978066 0.001765393 -0.06685115 -0.9955578 -0.0663001 -0.07345416 -0.9977485 0.06716444 -0.002515202 -0.09297626 0 0 0 1</matrix>
            <node id="Armature_l_leg" name="l.leg" sid="l_leg" type="JOINT">
              <matrix sid="transform">0.9984554 0.05554238 -0.001372674 0 -0.05552416 0.9983976 0.01092155 0.3269442 0.001977083 -0.01082847 0.9999395 0 0 0 0 1</matrix>
              <node id="Armature_l_foot" name="l.foot" sid="l_foot" type="JOINT">
                <matrix sid="transform">0.9999822 0.004029854 0.004377956 1.49012e-8 -0.00541651 0.3119032 0.9500985 0.4729059 0.002463259 -0.9501052 0.3119196 7.45058e-9 0 0 0 1</matrix>
                <extra>
                  <technique profile="blender">
                    <connect sid="connect" type="bool">1</connect>
                    <collections type="string">Bones</collections>
                    <roll sid="roll" type="float">3.135014</roll>
                    <tip_x sid="tip_x" type="float">0</tip_x>
                    <tip_y sid="tip_y" type="float">0.2510387</tip_y>
                    <tip_z sid="tip_z" type="float">-0.09655338</tip_z>
                  </technique>
                </extra>
              </node>
              <extra>
                <technique profile="blender">
                  <connect sid="connect" type="bool">1</connect>
                  <collections type="string">Bones</collections>
                  <roll sid="roll" type="float">3.129739</roll>
                </technique>
              </extra>
            </node>
            <extra>
              <technique profile="blender">
                <collections type="string">Bones</collections>
                <roll sid="roll" type="float">3.072676</roll>
              </technique>
            </extra>
          </node>
          <node id="Armature_r_upperleg" name="r.upperleg" sid="r_upperleg" type="JOINT">
            <matrix sid="transform">-0.006936402 0.06598242 -0.9978064 0.001765344 0.06685381 -0.9955578 -0.06630237 -0.07345426 -0.9977483 -0.06716446 0.002513763 0.09297626 0 0 0 1</matrix>
            <node id="Armature_r_leg" name="r.leg" sid="r_leg" type="JOINT">
              <matrix sid="transform">0.9984554 -0.05554242 0.001372538 0 0.05552418 0.9983976 0.01092211 0.326944 -0.001976978 -0.01082902 0.9999395 7.45058e-9 0 0 0 1</matrix>
              <node id="Armature_r_foot" name="r.foot" sid="r_foot" type="JOINT">
                <matrix sid="transform">0.9999822 -0.004029889 -0.004377008 -7.45058e-9 0.005415625 0.3119054 0.9500977 0.4729058 -0.002463576 -0.9501045 0.3119217 0 0 0 0 1</matrix>
                <extra>
                  <technique profile="blender">
                    <connect sid="connect" type="bool">1</connect>
                    <collections type="string">Bones</collections>
                    <roll sid="roll" type="float">-3.135013</roll>
                    <tip_x sid="tip_x" type="float">0</tip_x>
                    <tip_y sid="tip_y" type="float">0.2510387</tip_y>
                    <tip_z sid="tip_z" type="float">-0.09655332</tip_z>
                  </technique>
                </extra>
              </node>
              <extra>
                <technique profile="blender">
                  <connect sid="connect" type="bool">1</connect>
                  <collections type="string">Bones</collections>
                  <roll sid="roll" type="float">-3.129739</roll>
                </technique>
              </extra>
            </node>
            <extra>
              <technique profile="blender">
                <collections type="string">Bones</collections>
                <roll sid="roll" type="float">-3.072676</roll>
              </technique>
            </extra>
          </node>
          <extra>
            <technique profile="blender">
              <collections type="string">Bones</collections>
              <roll sid="roll" type="float">1.570797</roll>
            </technique>
          </extra>
        </node>
        <node id="Cube_001" name="Cube.001" type="NODE">
          <matrix sid="transform">1 0 0 0 0 1 0 0 0 0 1 0 0 0 0 1</matrix>
          <instance_controller url="#Armature_Cube_001-skin">
            <skeleton>#Armature_hip</skeleton>
          </instance_controller>
        </node>
        <extra>
          <technique profile="blender">
            <collections sid="collections" type="string">Bones</collections>
            <visible_collections sid="visible_collections" type="string">Bones</visible_collections>
            <active_collection sid="active_collection" type="string">Bones</active_collection>
          </technique>
        </extra>
      </node>
      <node id="Camera" name="Camera" type="NODE">
        <matrix sid="transform">0.6859207 -0.3240135 0.6515582 7.358891 0.7276763 0.3054208 -0.6141704 -6.925791 0 0.8953956 0.4452714 4.958309 0 0 0 1</matrix>
        <instance_camera url="#Camera-camera"/>
      </node>
      <node id="Light" name="Light" type="NODE">
        <matrix sid="transform">-0.2908646 -0.7711008 0.5663932 4.076245 0.9551712 -0.1998834 0.2183912 1.005454 -0.05518906 0.6045247 0.7946723 5.903862 0 0 0 1</matrix>
        <instance_light url="#Light-light"/>
      </node>
    </visual_scene>
  </library_visual_scenes>
  <scene>
    <instance_visual_scene url="#Scene"/>
  </scene>
</COLLADA>