<?xml version="1.0" encoding="utf-8"?>
<COLLADA xmlns="http://www.collada.org/2005/11/COLLADASchema" version="1.4.1" xmlns:xsi="http://www.w3.org/2001/XMLSchema-instance">
  <asset>
    <contributor>
      <author>Blender User</author>
      <authoring_tool>Blender 4.4.0 commit date:2025-03-17, commit time:17:00, hash:05377985c527</authoring_tool>
    </contributor>
    <created>2026-04-01T18:55:34</created>
    <modified>2026-04-01T18:55:34</modified>
    <unit name="meter" meter="1"/>
    <up_axis>Z_UP</up_axis>
  </asset>
  <library_images/>
  <library_controllers/>
  <library_animations>
    <animation id="action_container-Armature" name="Armature">
      <animation id="Armature_Armature_Armature_ArmatureAction_hip_pose_matrix" name="Armature">
        <source id="Armature_Armature_Armature_ArmatureAction_hip_pose_matrix-input">
          <float_array id="Armature_Armature_Armature_ArmatureAction_hip_pose_matrix-input-array" count="80">0.04166662 0.08333331 0.125 0.1666666 0.2083333 0.25 0.2916666 0.3333333 0.375 0.4166666 0.4583333 0.5 0.5416667 0.5833333 0.625 0.6666667 0.7083333 0.75 0.7916667 0.8333333 0.875 0.9166667 0.9583333 1 1.041667 1.083333 1.125 1.166667 1.208333 1.25 1.291667 1.333333 1.375 1.416667 1.458333 1.5 1.541667 1.583333 1.625 1.666667 1.708333 1.75 1.791667 1.833333 1.875 1.916667 1.958333 2 2.041667 2.083333 2.125 2.166667 2.208333 2.25 2.291667 2.333333 2.375 2.416667 2.458333 2.5 2.541667 2.583333 2.625 2.666667 2.708333 2.75 2.791667 2.833333 2.875 2.916667 2.958333 3 3.041667 3.083333 3.125 3.166667 3.208333 3.25 3.291667 3.333333</float_array>
          <technique_common>
            <accessor source="#Armature_Armature_Armature_ArmatureAction_hip_pose_matrix-input-array" count="80" stride="1">
              <param name="TIME" type="float"/>
            </accessor>
          </technique_common>
        </source>
        <source id="Armature_Armature_Armature_ArmatureAction_hip_pose_matrix-output">
          <float_array id="Armature_Armature_Armature_ArmatureAction_hip_pose_matrix-output-array" count="1280">0.2340306 -0.01245177 0.8075539 2.29296e-9 0.8018782 0.1039174 -0.2307835 0.06121616 -0.09638222 0.8343349 0.04079638 -0.2156878 0 0 0 1 0.2349014 -0.01479892 0.8072615 -0.002094209 0.801652 0.1043898 -0.2313554 0.06112178 -0.09614535 0.8342375 0.04327028 -0.2153739 0 0 0 1 0.2373769 -0.02147958 0.8063868 -0.008054656 0.8010049 0.1057444 -0.232976 0.0608418 -0.09545626 0.8339216 0.05031252 -0.2144792 0 0 0 1 0.2412466 -0.03194901 0.8048901 -0.01739806 0.7999814 0.1078968 -0.2354926 0.06038086 -0.094332 0.8333102 0.06135081 -0.2130738 0 0 0 1 0.2462947 -0.0456589 0.8026973 -0.02964114 0.7986237 0.11077 -0.2387441 0.0597437 -0.09277727 0.8322943 0.07580958 -0.2112281 0 0 0 1 0.2523035 -0.06205282 0.7997257 -0.04430063 0.7969743 0.1142876 -0.2425676 0.05893499 -0.09079453 0.8307564 0.09310506 -0.2090122 0 0 0 1 0.2590511 -0.08056628 0.7959085 -0.06089323 0.7950772 0.1183683 -0.2467988 0.05795943 -0.08839225 0.8285932 0.1126445 -0.2064964 0 0 0 1 0.2663179 -0.1006275 0.7912127 -0.07893567 0.7929801 0.1229214 -0.2512796 0.05682169 -0.08559119 0.8257318 0.1338272 -0.203751 0 0 0 1 0.2738862 -0.1216623 0.7856547 -0.09794465 0.7907339 0.1278444 -0.2558597 0.05552646 -0.08242983 0.8221451 0.1560487 -0.2008461 0 0 0 1 0.2815441 -0.1430983 0.7793102 -0.1174369 0.7883943 0.133021 -0.2604004 0.05407847 -0.07896764 0.817861 0.178706 -0.1978521 0 0 0 1 0.2890884 -0.1643732 0.7723199 -0.1369292 0.7860206 0.1383212 -0.2647778 0.05248237 -0.07528583 0.8129682 0.2012047 -0.1948391 0 0 0 1 0.2963272 -0.1849405 0.7648894 -0.1559382 0.783676 0.1436033 -0.2688839 0.05074288 -0.07148885 0.807616 0.2229669 -0.1918775 0 0 0 1 0.3030828 -0.2042759 0.7572851 -0.1739807 0.7814257 0.1487139 -0.2726291 0.04886467 -0.06770018 0.8020125 0.2434361 -0.1890374 0 0 0 1 0.3091901 -0.2218802 0.7498262 -0.1905732 0.779337 0.1534928 -0.275939 0.04685244 -0.06406146 0.7964155 0.262082 -0.1863892 0 0 0 1 0.3144978 -0.2372798 0.7428714 -0.2052327 0.777478 0.1577741 -0.2787541 0.04471087 -0.06072636 0.7911221 0.2784002 -0.184003 0 0 0 1 0.3188646 -0.2500229 0.7368056 -0.2174758 0.7759165 0.1613895 -0.2810257 0.04244466 -0.05785632 0.7864544 0.2919087 -0.181949 0 0 0 1 0.322156 -0.2596721 0.7320209 -0.2268192 0.77472 0.1641725 -0.28271 0.0400585 -0.05561573 0.7827429 0.3021407 -0.1802976 0 0 0 1 0.3242364 -0.2657916 0.7288993 -0.2327797 0.7739545 0.1659576 -0.2837622 0.03755708 -0.05416369 0.7803086 0.3086314 -0.179119 0 0 0 1 0.3246043 -0.2680124 0.7279218 -0.2348739 0.7738362 0.1664622 -0.2837895 0.03494508 -0.05364945 0.7794411 0.3109052 -0.1784834 0 0 0 1 0.3249548 -0.2667052 0.7282454 -0.234214 0.7736769 0.166278 -0.2843311 0.0322509 -0.05382332 0.7799285 0.3096499 -0.1785016 0 0 0 1 0.325297 -0.2630394 0.729425 -0.232291 0.7734977 0.1655031 -0.2852694 0.02950605 -0.05433047 0.7813372 0.3059888 -0.1785198 0 0 0 1 0.3256309 -0.2571591 0.7313702 -0.2291899 0.7732991 0.1641718 -0.2865741 0.02671994 -0.05515124 0.7835723 0.3000692 -0.178538 0 0 0 1 0.3259569 -0.2492031 0.7339745 -0.2249958 0.7730814 0.1623167 -0.2882135 0.02390202 -0.05626609 0.7865238 0.2920325 -0.1789927 0 0 0 1 0.3262747 -0.2393039 0.7371207 -0.2197937 0.7728447 0.1599693 -0.2901538 0.02106171 -0.05765646 0.790071 0.2820146 -0.1796394 0 0 0 1 0.3267952 -0.2275514 0.7406037 -0.2136686 0.7725001 0.1572234 -0.2925625 0.01820844 -0.05930408 0.7940841 0.2701516 -0.1804624 0 0 0 1 0.3273073 -0.2141235 0.744372 -0.2067056 0.7721361 0.1540403 -0.2952048 0.01535161 -0.06118998 0.7984304 0.2565795 -0.1814459 0 0 0 1 0.3278109 -0.1991588 0.7482943 -0.1989898 0.7717528 0.1504505 -0.2980451 0.01250065 -0.06329487 0.8029751 0.2414401 -0.1825742 0 0 0 1 0.328306 -0.1828016 0.7522417 -0.1906061 0.7713498 0.1464846 -0.3010485 0.00966502 -0.06559803 0.8075855 0.2248801 -0.1838316 0 0 0 1 0.3287284 -0.1652157 0.7561151 -0.1816396 0.7709549 0.142161 -0.3041171 0.006854109 -0.06807816 0.8121345 0.2070539 -0.1852022 0 0 0 1 0.3291425 -0.1465495 0.7597744 -0.1721753 0.770541 0.1375298 -0.3072793 0.004077356 -0.07071219 0.816503 0.1881249 -0.1866705 0 0 0 1 0.3295485 -0.1269721 0.763115 -0.1622983 0.7701088 0.1326263 -0.3105015 0.001344182 -0.07347604 0.8205832 0.1682644 -0.1882205 0 0 0 1 0.3299468 -0.1066617 0.7660465 -0.1520936 0.7696593 0.127487 -0.313752 -0.001335986 -0.07634407 0.8242808 0.1476524 -0.1898367 0 0 0 1 0.3296711 -0.08591144 0.7687684 -0.1416463 0.7694795 0.1220772 -0.3163337 -0.003953729 -0.07928944 0.8275173 0.1264784 -0.1915032 0 0 0 1 0.3293897 -0.06479806 0.7709555 -0.1310413 0.7692854 0.1165486 -0.3188805 -0.006499618 -0.08228457 0.8302326 0.1049362 -0.1932043 0 0 0 1 0.3291031 -0.04352037 0.772571 -0.1203638 0.7690795 0.1109452 -0.3213663 -0.008964224 -0.0853007 0.8323855 0.08322655 -0.1949242 0 0 0 1 0.3288128 -0.02227982 0.7735984 -0.1096988 0.7688643 0.1053131 -0.3237676 -0.01133814 -0.08830888 0.8339551 0.06155313 -0.1966473 0 0 0 1 0.3285198 -0.001279041 0.7740425 -0.09913121 0.7686424 0.09969951 -0.3260632 -0.01361191 -0.09127963 0.8349413 0.04012057 -0.1983577 0 0 0 1 0.3282258 0.01927969 0.7739282 -0.08874617 0.7684177 0.09415421 -0.3282343 -0.01577614 -0.09418403 0.8353632 0.01913358 -0.2000398 0 0 0 1 0.3279321 0.03919708 0.7733 -0.07862873 0.7681935 0.08872826 -0.3302642 -0.01782139 -0.09699313 0.83526 -0.001206075 -0.2016778 0 0 0 1 0.3276408 0.05827795 0.7722202 -0.06886391 0.7679741 0.08347474 -0.332139 -0.01973824 -0.09967881 0.8346881 -0.02070025 -0.2032559 0 0 0 1 0.3273531 0.07633254 0.7707672 -0.05953672 0.7677636 0.07844859 -0.3338466 -0.02151726 -0.1022139 0.8337192 -0.03915573 -0.2047584 0 0 0 1 0.3270712 0.09317883 0.7690325 -0.05073221 0.767566 0.07370529 -0.3353781 -0.02314903 -0.1045721 0.8324384 -0.05638669 -0.2061697 0 0 0 1 0.326797 0.108641 0.7671177 -0.04253545 0.7673859 0.06930214 -0.3367262 -0.02462412 -0.1067285 0.830941 -0.0722129 -0.2074738 0 0 0 1 0.3265323 0.1225503 0.765132 -0.03503144 0.7672277 0.06529693 -0.3378853 -0.02593311 -0.1086593 0.8293288 -0.08646066 -0.2086551 0 0 0 1 0.3257563 0.1347015 0.7634181 -0.02830527 0.7673175 0.06183966 -0.3383316 -0.02706658 -0.1103416 0.8277076 -0.09896164 -0.2096979 0 0 0 1 0.3249932 0.1449837 0.7618582 -0.02244187 0.7674366 0.05891095 -0.3385839 -0.02801509 -0.111754 0.8261827 -0.109553 -0.2105863 0 0 0 1 0.3242447 0.1532403 0.7605601 -0.0175264 0.767589 0.05656489 -0.3386383 -0.02876924 -0.1128755 0.8248553 -0.1180734 -0.2113048 0 0 0 1 0.3234673 0.1593141 0.7596425 -0.01364381 0.7677974 0.05486349 -0.338446 -0.02931958 -0.1136864 0.8238188 -0.1243641 -0.2118374 0 0 0 1 0.322707 0.1630523 0.7591725 -0.01087923 0.7680461 0.05384907 -0.3380445 -0.02965669 -0.1141666 0.8231542 -0.1282645 -0.2120599 0 0 0 1 0.321972 0.1622367 0.7596592 -0.009317642 0.7683548 0.05434142 -0.3372631 -0.02977115 -0.1141639 0.8232829 -0.1274377 -0.2122824 0 0 0 1 0.3207918 0.1613884 0.7603389 -0.008416588 0.7688487 0.05492564 -0.3360407 -0.0294746 -0.1141612 0.8234109 -0.1266107 -0.2123495 0 0 0 1 0.3196263 0.160427 0.7610329 -0.007575583 0.7693779 0.05523902 -0.3347758 -0.02861191 -0.1138647 0.8235777 -0.1257897 -0.2124166 0 0 0 1 0.3178491 0.1593655 0.7619996 -0.006792554 0.770179 0.05554484 -0.3328777 -0.02722351 -0.113423 0.8237632 -0.1249714 -0.2124837 0 0 0 1 0.3157054 0.1558052 0.7636253 -0.006065432 0.7711439 0.05685361 -0.330414 -0.02534984 -0.1128529 0.8243548 -0.1215395 -0.2125508 0 0 0 1 0.3132241 0.1514051 0.7655298 -0.005392144 0.7722542 0.0584333 -0.3275324 -0.02303135 -0.112172 0.8250639 -0.1172835 -0.2126179 0 0 0 1 0.3104341 0.1462357 0.7676683 -0.004770622 0.773492 0.0602497 -0.3242663 -0.02030847 -0.1113973 0.8258654 -0.1122745 -0.212685 0 0 0 1 0.3073629 0.1403674 0.7699959 -0.004198794 0.7748392 0.06226978 -0.320648 -0.01722165 -0.110547 0.8267332 -0.106583 -0.2127521 0 0 0 1 0.3040403 0.1338716 0.7724679 -0.00367459 0.776278 0.0644596 -0.3167111 -0.0138113 -0.1096379 0.8276423 -0.1002807 -0.2128941 0 0 0 1 0.3004951 0.1268194 0.7750409 -0.003195939 0.7777907 0.06678644 -0.3124895 -0.01011789 -0.1086869 0.828568 -0.09343854 -0.2130362 0 0 0 1 0.2967572 0.1192831 0.7776731 -0.00276077 0.7793602 0.06921826 -0.308018 -0.006181847 -0.10771 0.8294871 -0.08612891 -0.2131782 0 0 0 1 0.2928575 0.1113367 0.7803252 -0.002367014 0.7809695 0.07172397 -0.303333 -0.002043609 -0.1067225 0.8303784 -0.0784253 -0.2133202 0 0 0 1 0.2888271 0.1030552 0.7829606 -0.002012599 0.7826027 0.07427403 -0.2984712 0.00225639 -0.1057384 0.8312228 -0.07040175 -0.2134852 0 0 0 1 0.2846984 0.09451427 0.785546 -0.001695454 0.7842438 0.07683991 -0.2934717 0.006677702 -0.1047703 0.8320044 -0.06213311 -0.2136501 0 0 0 1 0.280505 0.08579167 0.7880517 -0.001413509 0.7858784 0.07939497 -0.2883748 0.01117988 -0.1038295 0.8327093 -0.05369559 -0.2138151 0 0 0 1 0.2762806 0.07696588 0.7904518 -0.001164694 0.787492 0.08191463 -0.2832221 0.01572251 -0.1029263 0.8333275 -0.04516572 -0.2139846 0 0 0 1 0.27206 0.06811652 0.7927245 -9.46938e-4 0.7890715 0.0843757 -0.2780565 0.02026514 -0.1020688 0.8338522 -0.03662097 -0.2141541 0 0 0 1 0.2678788 0.05932418 0.7948524 -7.58171e-4 0.7906041 0.0867573 -0.2729224 0.02476732 -0.1012639 0.8342795 -0.02813927 -0.2143236 0 0 0 1 0.2637734 0.05067026 0.7968217 -5.9632e-4 0.7920786 0.08904032 -0.2678654 0.02918862 -0.100517 0.8346094 -0.01979895 -0.214484 0 0 0 1 0.2597805 0.04223669 0.7986231 -4.59318e-4 0.7934836 0.09120743 -0.2629324 0.03348862 -0.0998316 0.8348448 -0.01167866 -0.2146445 0 0 0 1 0.255937 0.03410572 0.8002511 -3.45091e-4 0.7948094 0.09324367 -0.2581706 0.03762686 -0.09921044 0.8349916 -0.003856831 -0.2148049 0 0 0 1 0.2522807 0.02635999 0.8017035 -2.60888e-4 0.7960467 0.09513506 -0.2536287 0.0415629 -0.09865424 0.8350587 0.003587813 -0.2149371 0 0 0 1 0.2488493 0.01908219 0.8029812 -1.76684e-4 0.7971866 0.09686978 -0.2493557 0.04525631 -0.09816322 0.8350573 0.01057692 -0.2150693 0 0 0 1 0.2456808 0.01235452 0.8040878 -1.25611e-4 0.7982212 0.09843706 -0.2454009 0.04866665 -0.09773627 0.8350006 0.01703276 -0.2152014 0 0 0 1 0.2428127 0.006259681 0.8050289 -7.45383e-5 0.7991429 0.09982685 -0.2418137 0.05175349 -0.09737159 0.8349035 0.02287715 -0.2153336 0 0 0 1 0.2402837 8.79098e-4 0.8058113 -6.21149e-5 0.7999439 0.1010303 -0.2386444 0.05447637 -0.09706713 0.8347818 0.02803353 -0.2153926 0 0 0 1 0.2381309 -0.003704644 0.806442 -4.96915e-5 0.8006173 0.1020382 -0.2359422 0.05679486 -0.09682052 0.8346515 0.03242389 -0.2154517 0 0 0 1 0.2366182 -0.007373768 0.806862 -3.7268e-5 0.8010854 0.1028695 -0.2339841 0.0586685 -0.0966568 0.834525 0.03597182 -0.2155107 0 0 0 1 0.2351044 -0.01015775 0.8072741 -2.48446e-5 0.8015507 0.1034301 -0.2321362 0.06005694 -0.09649307 0.8344265 0.03860125 -0.2155697 0 0 0 1 0.2345676 -0.01130455 0.807415 -1.24211e-5 0.8017146 0.1036746 -0.2314601 0.06091959 -0.09643764 0.8343813 0.03969879 -0.2156287 0 0 0 1 0.2340306 -0.01245177 0.8075539 2.29296e-9 0.8018782 0.1039174 -0.2307835 0.06121616 -0.09638222 0.8343349 0.04079638 -0.2156878 0 0 0 1</float_array>
          <technique_common>
            <accessor source="#Armature_Armature_Armature_ArmatureAction_hip_pose_matrix-output-array" count="80" stride="16">
              <param name="TRANSFORM" type="float4x4"/>
            </accessor>
          </technique_common>
        </source>
        <source id="Armature_Armature_Armature_ArmatureAction_hip_pose_matrix-interpolation">
          <Name_array id="Armature_Armature_Armature_ArmatureAction_hip_pose_matrix-interpolation-array" count="80">LINEAR LINEAR LINEAR LINEAR LINEAR LINEAR LINEAR LINEAR LINEAR LINEAR LINEAR LINEAR LINEAR LINEAR LINEAR LINEAR LINEAR LINEAR LINEAR LINEAR LINEAR LINEAR LINEAR LINEAR LINEAR LINEAR LINEAR LINEAR LINEAR LINEAR LINEAR LINEAR LINEAR LINEAR LINEAR LINEAR LINEAR LINEAR LINEAR LINEAR LINEAR LINEAR LINEAR LINEAR LINEAR LINEAR LINEAR LINEAR LINEAR LINEAR LINEAR LINEAR LINEAR LINEAR LINEAR LINEAR LINEAR LINEAR LINEAR LINEAR LINEAR LINEAR LINEAR LINEAR LINEAR LINEAR LINEAR LINEAR LINEAR LINEAR LINEAR LINEAR LINEAR LINEAR LINEAR LINEAR LINEAR LINEAR LINEAR LINEAR</Name_array>
          <technique_common>
            <accessor source="#Armature_Armature_Armature_ArmatureAction_hip_pose_matrix-interpolation-array" count="80" stride="1">
              <param name="INTERPOLATION" type="name"/>
            </accessor>
          </technique_common>
        </source>
        <sampler id="Armature_Armature_Armature_ArmatureAction_hip_pose_matrix-sampler">
          <input semantic="INPUT" source="#Armature_Armature_Armature_ArmatureAction_hip_pose_matrix-input"/>
          <input semantic="OUTPUT" source="#Armature_Armature_Armature_ArmatureAction_hip_pose_matrix-output"/>
          <input semantic="INTERPOLATION" source="#Armature_Armature_Armature_ArmatureAction_hip_pose_matrix-interpolation"/>
        </sampler>
        <channel source="#Armature_Armature_Armature_ArmatureAction_hip_pose_matrix-sampler" target="Armature_hip/transform"/>
      </animation>
      <animation id="Armature_Armature_Armature_ArmatureAction_uppertorso_pose_matrix" name="Armature">
        <source id="Armature_Armature_Armature_ArmatureAction_uppertorso_pose_matrix-input">
          <float_array id="Armature_Armature_Armature_ArmatureAction_uppertorso_pose_matrix-input-array" count="80">0.04166662 0.08333331 0.125 0.1666666 0.2083333 0.25 0.2916666 0.3333333 0.375 0.4166666 0.4583333 0.5 0.5416667 0.5833333 0.625 0.6666667 0.7083333 0.75 0.7916667 0.8333333 0.875 0.9166667 0.9583333 1 1.041667 1.083333 1.125 1.166667 1.208333 1.25 1.291667 1.333333 1.375 1.416667 1.458333 1.5 1.541667 1.583333 1.625 1.666667 1.708333 1.75 1.791667 1.833333 1.875 1.916667 1.958333 2 2.041667 2.083333 2.125 2.166667 2.208333 2.25 2.291667 2.333333 2.375 2.416667 2.458333 2.5 2.541667 2.583333 2.625 2.666667 2.708333 2.75 2.791667 2.833333 2.875 2.916667 2.958333 3 3.041667 3.083333 3.125 3.166667 3.208333 3.25 3.291667 3.333333</float_array>
          <technique_common>
            <accessor source="#Armature_Armature_Armature_ArmatureAction_uppertorso_pose_matrix-input-array" count="80" stride="1">
              <param name="TIME" type="float"/>
            </accessor>
          </technique_common>
        </source>
        <source id="Armature_Armature_Armature_ArmatureAction_uppertorso_pose_matrix-output">
          <float_array id="Armature_Armature_Armature_ArmatureAction_uppertorso_pose_matrix-output-array" count="1280">0.5487229 0.8311131 0.09030132 -2.23517e-8 -0.7968371 0.5526296 -0.2442357 0.3008372 -0.2528907 0.06206232 0.9655021 0 0 0 0 1 0.5485322 0.8314264 0.08855619 -1.49012e-8 -0.7974835 0.5520637 -0.2434038 0.3008372 -0.251261 0.0628928 0.9658737 0 0 0 0 1 0.5487973 0.8317555 0.08369099 -2.23517e-8 -0.7987937 0.5512842 -0.2408615 0.3008372 -0.2464755 0.06533235 0.9669444 0 0 0 0 1 0.549468 0.8320639 0.07585855 -1.49012e-8 -0.8006979 0.5503327 -0.2366789 0.3008372 -0.2386795 0.06930768 0.9686219 -3.72529e-9 0 0 0 1 0.5504825 0.8322964 0.06520523 -2.98023e-8 -0.8031071 0.5492677 -0.2309195 0.3008373 -0.2280086 0.07475031 0.9707853 1.49012e-8 0 0 0 1 0.5517677 0.8323832 0.05187304 -2.23517e-8 -0.8059171 0.5481611 -0.2236443 0.3008372 -0.2145925 0.08159429 0.9732893 1.49012e-8 0 0 0 1 0.552493 0.8327484 0.03580329 -7.45058e-9 -0.8095222 0.5463249 -0.2149489 0.3008373 -0.1985586 0.08977419 0.9759688 0 0 0 0 1 0.553313 0.8327928 0.01735482 -1.49012e-8 -0.8132847 0.5446203 -0.2048341 0.3008373 -0.1800361 0.09922294 0.9786427 -1.49012e-8 0 0 0 1 0.5536928 0.8327142 -0.003429933 -1.11759e-8 -0.8173697 0.5426933 -0.1933688 0.3008372 -0.1591596 0.1098705 0.9811201 -1.49012e-8 0 0 0 1 0.5536308 0.8323451 -0.02635651 -1.11759e-8 -0.8215703 0.540745 -0.1806027 0.3008372 -0.1360717 0.1216409 0.9832028 1.49012e-8 0 0 0 1 0.5529894 0.8316101 -0.05125497 -3.1665e-8 -0.825771 0.5388385 -0.166599 0.3008372 -0.1109272 0.1344525 0.9846916 0 0 0 0 1 0.5516366 0.8304349 -0.07794235 -4.65661e-9 -0.8298547 0.5370384 -0.1514295 0.3008372 -0.0838943 0.1482149 0.9853901 2.98023e-8 0 0 0 0.9999999 0.5494472 0.8287489 -0.106221 -2.49129e-8 -0.833706 0.5354078 -0.1351771 0.3008372 -0.05515635 0.1628298 0.9851111 0 0 0 0 0.9999999 0.5463073 0.8264897 -0.1358797 -9.31323e-9 -0.8372144 0.534007 -0.1179363 0.3008372 -0.02491233 0.1781899 0.9836806 0 0 0 0 1 0.5421206 0.8236011 -0.1666932 -2.04891e-8 -0.8402747 0.5328938 -0.09981379 0.3008372 0.006623089 0.1941793 0.9809436 2.98023e-8 0 0 0 0.9999999 0.5368092 0.8200388 -0.1984242 -7.45058e-9 -0.8427914 0.532121 -0.08092898 0.3008372 0.03922084 0.2106737 0.9767691 5.96046e-8 0 0 0 1 0.5303182 0.8157711 -0.2308261 -2.23517e-8 -0.8446813 0.5317353 -0.06141242 0.3008372 0.07263997 0.2275427 0.9710548 0 0 0 0 1 0.5226185 0.8107781 -0.2636462 -3.72529e-9 -0.8458725 0.5317758 -0.04140547 0.3008372 0.1066301 0.2446503 0.9637303 -2.98023e-8 0 0 0 0.9999999 0.5137086 0.8050558 -0.296629 3.72529e-9 -0.8463101 0.5322742 -0.02105764 0.3008372 0.1409356 0.2618577 0.9547603 0 0 0 0 1 0.5036154 0.7986158 -0.3295218 -1.86265e-8 -0.8459563 0.5332524 -5.2467e-4 0.3008373 0.1752993 0.2790254 0.9441477 0 0 0 0 1 0.4923955 0.7914833 -0.3620785 -2.98023e-8 -0.84479 0.5347232 0.02003372 0.3008373 0.2094681 0.2960157 0.9319322 2.98023e-8 0 0 0 1 0.480133 0.7837006 -0.3940638 3.72529e-9 -0.8428096 0.5366893 0.0404579 0.3008372 0.2431968 0.3126955 0.9181921 0 0 0 0 1 0.4669399 0.7753212 -0.4252582 -3.72529e-9 -0.840031 0.5391448 0.06059009 0.3008372 0.2762526 0.3289382 0.9030415 -2.98023e-8 0 0 0 1 0.4529509 0.7664132 -0.4554625 -2.98023e-8 -0.8364884 0.5420727 0.08027807 0.3008372 0.3084202 0.3446271 0.8866278 -2.98023e-8 0 0 0 0.9999999 0.4383253 0.7570554 -0.4844981 -3.72529e-8 -0.8322313 0.5454502 0.09937659 0.3008372 0.3395033 0.3596553 0.8691292 0 0 0 0 1 0.4232373 0.7473341 -0.512213 -1.49012e-8 -0.8273246 0.5492438 0.1177515 0.3008372 0.3693296 0.3739296 0.8507481 0 0 0 0 1 0.407878 0.7373439 -0.5384793 -7.45058e-9 -0.8218458 0.5534162 0.1352793 0.3008372 0.3977506 0.3873694 0.8317088 -2.98023e-8 0 0 0 0.9999999 0.3924467 0.7271835 -0.5631962 -3.72529e-9 -0.8158825 0.5579225 0.1518504 0.3008372 0.4246432 0.3999087 0.8122507 0 0 0 0 1 0.3771526 0.7169542 -0.5862873 -3.72529e-9 -0.80953 0.5627163 0.1673675 0.3008372 0.4499084 0.4114941 0.7926254 2.98023e-8 0 0 0 1 0.3622065 0.7067575 -0.6077005 -7.45058e-9 -0.802889 0.5677474 0.1817474 0.3008372 0.473472 0.4220861 0.7730895 0 0 0 0 0.9999999 0.34782 0.6966952 -0.6274049 -1.11759e-8 -0.7960647 0.5729639 0.1949202 0.3008372 0.4952803 0.4316579 0.7539023 1.49012e-8 0 0 0 0.9999999 0.3342047 0.6868648 -0.6453869 -1.86265e-8 -0.7891609 0.578315 0.2068262 0.3008373 0.5152985 0.4401919 0.7353222 1.49012e-8 0 0 0 1 0.3215676 0.6773607 -0.661647 -1.11759e-8 -0.7822819 0.583751 0.217417 0.3008372 0.5335069 0.4476803 0.7176021 1.49012e-8 0 0 0 0.9999999 0.3101103 0.6682734 -0.6761968 -2.6077e-8 -0.7755291 0.5892227 0.2266532 0.3008373 0.549897 0.4541229 0.7009891 1.49012e-8 0 0 0 1 0.3000308 0.659687 -0.6890534 -1.49012e-8 -0.7689983 0.594686 0.2345004 0.3008372 0.5644675 0.4595236 0.6857219 0 0 0 0 1 0.2915204 0.6516809 -0.7002341 -1.49012e-8 -0.762781 0.6000988 0.240929 0.3008373 0.5772185 0.4638896 0.6720307 -1.49012e-8 0 0 0 1 0.2847653 0.6443284 -0.709753 -2.79397e-8 -0.756961 0.605424 0.2459102 0.3008373 0.5881486 0.4672289 0.660135 0 0 0 0 0.9999999 0.2799461 0.637697 -0.717616 -2.23517e-8 -0.7516147 0.6106286 0.2494151 0.3008372 0.5972481 0.469548 0.6502454 7.45058e-9 0 0 0 0.9999999 0.2781472 0.6311002 -0.7241179 -2.04891e-8 -0.7464723 0.6164525 0.250531 0.3008372 0.6044946 0.4708495 0.642563 -7.45058e-9 0 0 0 1 0.2768211 0.6268393 -0.728315 -1.30385e-8 -0.7426023 0.6205724 0.2518567 0.3008372 0.609846 0.4711291 0.6372797 0 0 0 0 1 0.2788575 0.6232235 -0.7306373 -1.30385e-8 -0.7390394 0.6251004 0.2511376 0.3008372 0.6132367 0.4699383 0.6349007 3.72529e-9 0 0 0 1 0.3068478 0.6091769 -0.7312648 -1.95578e-8 -0.746021 0.6310545 0.2126574 0.3008373 0.591014 0.4802853 0.6480962 7.45058e-9 0 0 0 1 0.3789238 0.5808355 -0.7204491 -1.86265e-8 -0.7635013 0.6361431 0.1112996 0.3008372 0.5229557 0.5078897 0.6845183 2.79397e-9 0 0 0 1 0.4851213 0.5419297 -0.6862723 -1.67638e-8 -0.7708939 0.6355037 -0.04310075 0.3008372 0.412771 0.5499523 0.7260665 -3.25963e-9 0 0 0 1 0.6096131 0.5001512 -0.6149967 -2.00234e-8 -0.7459928 0.6243443 -0.231709 0.3008373 0.2680801 0.6000358 0.7537174 0 0 0 0 1 0.7309034 0.4632056 -0.5012192 -2.18861e-8 -0.6744729 0.6024244 -0.4268152 0.3008373 0.1042437 0.6500196 0.7527335 -1.86265e-9 0 0 0 1 0.828046 0.4364861 -0.3518803 -2.23517e-8 -0.5575995 0.5756428 -0.5980954 0.3008372 -0.05850296 0.6914588 0.7200431 0 0 0 0 1 0.8885385 0.4207085 -0.1830403 -1.81608e-8 -0.4114911 0.5543022 -0.7234806 0.3008372 -0.2029148 0.7181599 0.6656365 -3.72529e-9 0 0 0 1 0.9111744 0.4118588 -0.01155155 -1.88593e-8 -0.2584369 0.549467 -0.7945414 0.3008372 -0.3208917 0.7269513 0.6070998 0 0 0 0 1 0.9026974 0.4027413 0.1514499 -1.76951e-8 -0.1182097 0.5705669 -0.812699 0.3008373 -0.4137198 0.7157186 0.5626571 -3.72529e-9 0 0 0 1 0.872153 0.3862989 0.3002039 -1.49012e-8 0.006294485 0.6047101 -0.7964207 0.3008372 -0.4891928 0.6964903 0.5249681 0 0 0 0 1 0.8258998 0.363077 0.4313522 -1.21072e-8 0.1209611 0.6331404 -0.764527 0.3008372 -0.5506889 0.6835995 0.4789922 3.72529e-9 0 0 0 1 0.7689821 0.3354082 0.544213 -1.95578e-8 0.2244059 0.6554989 -0.7210846 0.3008373 -0.5985887 0.6766259 0.4287991 0 0 0 0 0.9999999 0.7056696 0.3051916 0.6394439 -1.86265e-8 0.3162702 0.6719078 -0.6697112 0.3008373 -0.6340377 0.6748319 0.3776217 7.45058e-9 0 0 0 1 0.639335 0.2738596 0.7185065 -2.04891e-8 0.3968804 0.6828067 -0.6134009 0.3008372 -0.6585868 0.6773301 0.3278527 0 0 0 0 1 0.5725011 0.2424175 0.7832474 -1.76951e-8 0.4669617 0.6888161 -0.5545081 0.3008372 -0.6739359 0.6832029 0.2811482 3.72529e-9 0 0 0 1 0.5069629 0.2115143 0.8356136 -1.49012e-8 0.5274255 0.6906447 -0.4948054 0.3008372 -0.6817706 0.691572 0.2385731 3.72529e-9 0 0 0 0.9999999 0.4439422 0.181519 0.8774772 -2.04891e-8 0.5792284 0.6890287 -0.4355847 0.3008372 -0.683674 0.7016343 0.2007479 7.45058e-9 0 0 0 1 0.3842258 0.152592 0.9105416 -1.49012e-8 0.6232886 0.6846979 -0.3777564 0.3008372 -0.6810886 0.7126741 0.1679697 7.45058e-9 0 0 0 1 0.328289 0.124743 0.936304 -1.86265e-8 0.6604387 0.6783614 -0.3219419 0.3008372 -0.6753128 0.7240617 0.1403134 0 0 0 0 1 0.2763907 0.09787482 0.9560484 -2.23517e-8 0.6914057 0.670702 -0.268546 0.3008372 -0.6675076 0.7352411 0.1177046 0 0 0 0 1 0.2286494 0.07181899 0.9708557 -1.86265e-8 0.7168052 0.6623793 -0.2178165 0.3008372 -0.6587183 0.7457183 0.09997237 1.86265e-9 0 0 0 1 0.1850986 0.04635881 0.9816256 -1.86265e-8 0.7371433 0.6540326 -0.1698858 0.3008372 -0.649891 0.7550448 0.08688737 5.58794e-9 0 0 0 1 0.1457263 0.02125081 0.9890963 -2.23517e-8 0.7528201 0.6462868 -0.1248005 0.3008372 -0.6418923 0.7627987 0.07818292 9.31323e-10 0 0 0 1 0.1105102 -0.003761783 0.9938676 -2.23517e-8 0.7641324 0.6397566 -0.08254394 0.3008372 -0.6355228 0.7685687 0.07357416 3.72529e-9 0 0 0 1 0.07943715 -0.028935 0.9964197 -2.23517e-8 0.7712749 0.6350451 -0.04304704 0.3008373 -0.631526 0.7719332 0.07276296 2.79397e-9 0 0 0 0.9999999 0.05252782 -0.0545138 0.9971302 -2.98023e-8 0.7743353 0.6327452 -0.0061986 0.3008372 -0.6305916 0.7724388 0.07544857 -1.04774e-9 0 0 0 0.9999999 0.02984571 -0.08071497 0.9962901 -1.49012e-8 0.7732892 0.6334283 0.02815219 0.3008373 -0.6333507 0.7695805 0.08132109 1.86265e-9 0 0 0 0.9999999 0.01151397 -0.1077126 0.9941153 -2.98023e-8 0.7679865 0.6376312 0.06019253 0.3008373 -0.6403627 0.7627743 0.09006344 0 0 0 0 1 -0.002279155 -0.1356146 0.990759 -1.49012e-8 0.758139 0.6458321 0.09014523 0.3008372 -0.6520891 0.7513388 0.1013428 1.86265e-9 0 0 0 1 -0.01127501 -0.1644392 0.9863226 -2.23517e-8 0.7433047 0.6584154 0.1182676 0.3008372 -0.6688579 0.7344719 0.1148048 0 0 0 0 1 0.03319778 -0.1748638 0.9840326 -7.45058e-9 0.7060924 0.7009184 0.1007329 0.3008372 -0.7073411 0.6914738 0.1467389 0 0 0 0 1 0.1685459 -0.1396945 0.9757445 -1.49012e-8 0.6165977 0.7872543 0.006200425 0.3008372 -0.7690254 0.6005968 0.2188236 1.86265e-9 0 0 0 1 0.3677434 -0.03690112 0.9291946 -2.23517e-8 0.4426508 0.8856958 -0.1400122 0.3008373 -0.8178175 0.4627974 0.342043 0 0 0 0 1 0.5697216 0.1456526 0.808828 -2.23517e-8 0.1678431 0.9428058 -0.288004 0.3008372 -0.8045164 0.2998383 0.5126897 3.72529e-9 0 0 0 1 0.6928229 0.3755752 0.6155809 -1.49012e-8 -0.1625003 0.9130179 -0.3741552 0.3008372 -0.7025598 0.1591912 0.6935906 -1.86265e-9 0 0 0 1 0.7034623 0.5852382 0.4032835 -1.49012e-8 -0.4569416 0.8070171 -0.3740695 0.3008372 -0.5443764 0.07886682 0.8351253 0 0 0 0 1 0.6434187 0.7296289 0.2316336 -3.72529e-8 -0.6571773 0.6816483 -0.3216733 0.3008373 -0.3925949 0.05474629 0.9180806 3.72529e-9 0 0 0 1 0.5769422 0.8069732 0.1262211 -2.23517e-8 -0.7636965 0.5877665 -0.2670172 0.3008372 -0.2896643 0.05765894 0.95539 0 0 0 0 1 0.5487229 0.8311131 0.09030132 -2.23517e-8 -0.7968371 0.5526296 -0.2442357 0.3008372 -0.2528907 0.06206232 0.9655021 0 0 0 0 1</float_array>
          <technique_common>
            <accessor source="#Armature_Armature_Armature_ArmatureAction_uppertorso_pose_matrix-output-array" count="80" stride="16">
              <param name="TRANSFORM" type="float4x4"/>
            </accessor>
          </technique_common>
        </source>
        <source id="Armature_Armature_Armature_ArmatureAction_uppertorso_pose_matrix-interpolation">
          <Name_array id="Armature_Armature_Armature_ArmatureAction_uppertorso_pose_matrix-interpolation-array" count="80">LINEAR LINEAR LINEAR LINEAR LINEAR LINEAR LINEAR LINEAR LINEAR LINEAR LINEAR LINEAR LINEAR LINEAR LINEAR LINEAR LINEAR LINEAR LINEAR LINEAR LINEAR LINEAR LINEAR LINEAR LINEAR LINEAR LINEAR LINEAR LINEAR LINEAR LINEAR LINEAR LINEAR LINEAR LINEAR LINEAR LINEAR LINEAR LINEAR LINEAR LINEAR LINEAR LINEAR LINEAR LINEAR LINEAR LINEAR LINEAR LINEAR LINEAR LINEAR LINEAR LINEAR LINEAR LINEAR LINEAR LINEAR LINEAR LINEAR LINEAR LINEAR LINEAR LINEAR LINEAR LINEAR LINEAR LINEAR LINEAR LINEAR LINEAR LINEAR LINEAR LINEAR LINEAR LINEAR LINEAR LINEAR LINEAR LINEAR LINEAR</Name_array>
          <technique_common>
            <accessor source="#Armature_Armature_Armature_ArmatureAction_uppertorso_pose_matrix-interpolation-array" count="80" stride="1">
              <param name="INTERPOLATION" type="name"/>
            </accessor>
          </technique_common>
        </source>
        <sampler id="Armature_Armature_Armature_ArmatureAction_uppertorso_pose_matrix-sampler">
          <input semantic="INPUT" source="#Armature_Armature_Armature_ArmatureAction_uppertorso_pose_matrix-input"/>
          <input semantic="OUTPUT" source="#Armature_Armature_Armature_ArmatureAction_uppertorso_pose_matrix-output"/>
          <input semantic="INTERPOLATION" source="#Armature_Armature_Armature_ArmatureAction_uppertorso_pose_matrix-interpolation"/>
        </sampler>
        <channel source="#Armature_Armature_Armature_ArmatureAction_uppertorso_pose_matrix-sampler" target="Armature_uppertorso/transform"/>
      </animation>
      <animation id="Armature_Armature_Armature_ArmatureAction_l_upperarm_pose_matrix" name="Armature">
        <source id="Armature_Armature_Armature_ArmatureAction_l_upperarm_pose_matrix-input">
          <float_array id="Armature_Armature_Armature_ArmatureAction_l_upperarm_pose_matrix-input-array" count="80">0.04166662 0.08333331 0.125 0.1666666 0.2083333 0.25 0.2916666 0.3333333 0.375 0.4166666 0.4583333 0.5 0.5416667 0.5833333 0.625 0.6666667 0.7083333 0.75 0.7916667 0.8333333 0.875 0.9166667 0.9583333 1 1.041667 1.083333 1.125 1.166667 1.208333 1.25 1.291667 1.333333 1.375 1.416667 1.458333 1.5 1.541667 1.583333 1.625 1.666667 1.708333 1.75 1.791667 1.833333 1.875 1.916667 1.958333 2 2.041667 2.083333 2.125 2.166667 2.208333 2.25 2.291667 2.333333 2.375 2.416667 2.458333 2.5 2.541667 2.583333 2.625 2.666667 2.708333 2.75 2.791667 2.833333 2.875 2.916667 2.958333 3 3.041667 3.083333 3.125 3.166667 3.208333 3.25 3.291667 3.333333</float_array>
          <technique_common>
            <accessor source="#Armature_Armature_Armature_ArmatureAction_l_upperarm_pose_matrix-input-array" count="80" stride="1">
              <param name="TIME" type="float"/>
            </accessor>
          </technique_common>
        </source>
        <source id="Armature_Armature_Armature_ArmatureAction_l_upperarm_pose_matrix-output">
          <float_array id="Armature_Armature_Armature_ArmatureAction_l_upperarm_pose_matrix-output-array" count="1280">0.6168851 0.3383749 -0.710602 -0.06531206 0.7862129 -0.2232222 0.57623 0.4776127 0.03635979 -0.914152 -0.4037372 -0.1829766 0 0 0 1 0.6164333 0.3404883 -0.7099844 -0.06531206 0.7865058 -0.223125 0.5758678 0.4776127 0.03766115 -0.9133907 -0.4053378 -0.1829766 0 0 0 1 0.6159181 0.3440159 -0.7087297 -0.06531206 0.7867174 -0.2212173 0.5763146 0.4776126 0.04147816 -0.9125325 -0.406895 -0.1829765 0 0 0 0.9999999 0.6153255 0.3488789 -0.7068651 -0.06531203 0.7868297 -0.2175935 0.5775396 0.4776127 0.04768231 -0.911557 -0.4083991 -0.1829766 0 0 0 0.9999999 0.6146324 0.3565614 -0.7036273 -0.06531206 0.7868133 -0.213632 0.5790394 0.4776127 0.05614589 -0.9095193 -0.4118522 -0.1829766 0 0 0 1 0.6131448 0.366302 -0.6999117 -0.06531201 0.7871463 -0.2084391 0.5804775 0.4776128 0.06674115 -0.9068493 -0.4161366 -0.1829766 0 0 0 1 0.6114916 0.3777871 -0.6952375 -0.06531204 0.7872635 -0.2023854 0.5824575 0.4776128 0.07933916 -0.9035026 -0.4211747 -0.1829766 0 0 0 0.9999999 0.6092563 0.3909785 -0.6898856 -0.06531201 0.7874048 -0.1953661 0.5846584 0.4776127 0.09380881 -0.8994262 -0.4268865 -0.1829765 0 0 0 1 0.6064995 0.4057063 -0.6837843 -0.06531204 0.7874359 -0.1875021 0.5871863 0.4776127 0.1100142 -0.8945643 -0.4331875 -0.1829766 0 0 0 1 0.60316 0.4218276 -0.6769488 -0.06531206 0.7873125 -0.1788601 0.5900407 0.4776126 0.1278165 -0.8888588 -0.4399914 -0.1829766 0 0 0 0.9999999 0.5991777 0.4391951 -0.669398 -0.06531206 0.786992 -0.1695103 0.5932199 0.4776127 0.1470695 -0.882255 -0.4472098 -0.1829766 0 0 0 0.9999999 0.5944964 0.4576564 -0.6611539 -0.06531206 0.7864327 -0.1595246 0.5967206 0.4776127 0.1676227 -0.8747012 -0.4547529 -0.1829766 0 0 0 1 0.5890656 0.4770544 -0.6522431 -0.06531205 0.7855958 -0.1489788 0.6005372 0.4776128 0.1893185 -0.8661548 -0.46253 -0.1829767 0 0 0 1 0.5828428 0.497228 -0.6426964 -0.06531206 0.7844442 -0.1379512 0.6046627 0.4776128 0.2119946 -0.8565825 -0.4704514 -0.1829767 0 0 0 1 0.5757958 0.5180137 -0.6325513 -0.06531209 0.7829477 -0.1265227 0.6090853 0.4776127 0.2354826 -0.8459632 -0.4784287 -0.1829766 0 0 0 1 0.5679036 0.539246 -0.6218516 -0.06531204 0.7810814 -0.1147756 0.6137905 0.4776128 0.2596105 -0.8342901 -0.4863765 -0.1829767 0 0 0 1 0.55916 0.5607588 -0.6106468 -0.06531209 0.778825 -0.1027957 0.6187606 0.4776127 0.2842037 -0.821573 -0.4942122 -0.1829765 0 0 0 1 0.5495716 0.5823887 -0.5989945 -0.06531203 0.7761682 -0.09066725 0.6239731 0.4776128 0.3090858 -0.8078382 -0.5018598 -0.1829766 0 0 0 1 0.5391628 0.6039742 -0.586957 -0.06531206 0.7731062 -0.07847601 0.6294031 0.4776127 0.3340813 -0.7931308 -0.5092475 -0.1829765 0 0 0 1 0.527971 0.6253608 -0.5746044 -0.06531201 0.7696445 -0.0663051 0.6350203 0.4776127 0.3590178 -0.7775133 -0.5163128 -0.1829765 0 0 0 1 0.5160525 0.6464009 -0.5620105 -0.06531207 0.7657956 -0.05423632 0.6407928 0.4776127 0.3837278 -0.7610679 -0.5229996 -0.1829766 0 0 0 1 0.5034779 0.6669553 -0.5492548 -0.06531205 0.7615811 -0.0423488 0.6466843 0.4776127 0.4080494 -0.7438932 -0.5292621 -0.1829765 0 0 0 1 0.4903325 0.6868975 -0.5364195 -0.06531205 0.7570313 -0.03071699 0.6526563 0.4776128 0.431831 -0.7261049 -0.5350643 -0.1829766 0 0 0 1 0.4767157 0.7061125 -0.523591 -0.06531203 0.7521837 -0.01940939 0.6586677 0.4776128 0.454931 -0.7078336 -0.5403789 -0.1829766 0 0 0 1 0.46274 0.7244985 -0.5108557 -0.06531207 0.7470834 -0.008491158 0.6646762 0.4776127 0.4772192 -0.6892239 -0.54519 -0.1829766 0 0 0 1 0.4485282 0.7419689 -0.4983015 -0.06531207 0.741782 0.001981139 0.6706381 0.4776127 0.49858 -0.6704311 -0.5494904 -0.1829765 0 0 0 0.9999999 0.4342113 0.7584513 -0.4860162 -0.06531203 0.7363374 0.0119561 0.6765089 0.4776127 0.5189101 -0.6516196 -0.5532846 -0.1829766 0 0 0 1 0.4199282 0.7738882 -0.4740858 -0.06531206 0.730812 0.0213899 0.6822435 0.4776127 0.5381209 -0.6329609 -0.5565844 -0.1829765 0 0 0 1 0.4058236 0.7882349 -0.4625936 -0.06531207 0.7252712 0.03024355 0.6877986 0.4776127 0.5561374 -0.6146307 -0.5594104 -0.1829765 0 0 0 1 0.3920437 0.8014607 -0.451622 -0.06531207 0.7197844 0.03848711 0.6931301 0.4776128 0.5728983 -0.5968075 -0.5617903 -0.1829766 0 0 0 0.9999999 0.378737 0.8135458 -0.44125 -0.06531206 0.7144223 0.04609478 0.698195 0.4776128 0.5883529 -0.5796709 -0.5637574 -0.1829766 0 0 0 1 0.366053 0.8244807 -0.4315515 -0.06531209 0.7092561 0.05304515 0.7029523 0.4776127 0.6024622 -0.5633984 -0.5653507 -0.1829766 0 0 0 1 0.354139 0.8342631 -0.4226002 -0.06531205 0.7043579 0.05932263 0.7073619 0.4776128 0.6151957 -0.5481661 -0.5666112 -0.1829766 0 0 0 1 0.3431392 0.8428968 -0.4144639 -0.06531204 0.6997981 0.06491333 0.7113851 0.4776127 0.6265285 -0.5341452 -0.5675832 -0.1829765 0 0 0 1 0.3331942 0.8503893 -0.4072103 -0.06531209 0.6956469 0.0698072 0.7149844 0.4776128 0.6364409 -0.5215031 -0.5683112 -0.1829766 0 0 0 1 0.3244422 0.8567468 -0.400902 -0.06531205 0.6919711 0.07399195 0.7181233 0.4776127 0.6449133 -0.5104021 -0.5688378 -0.1829766 0 0 0 1 0.3170139 0.8619752 -0.3956024 -0.06531209 0.6888357 0.07745785 0.7207674 0.4776129 0.6519262 -0.5009983 -0.5692039 -0.1829766 0 0 0 1 0.3110361 0.8660741 -0.3913726 -0.06531209 0.6863023 0.08019099 0.722882 0.4776127 0.657454 -0.4934422 -0.5694462 -0.1829766 0 0 0 1 0.3066293 0.8690349 -0.3882741 -0.06531207 0.6844293 0.08217478 0.7244336 0.4776128 0.6614645 -0.4878786 -0.5695955 -0.1829765 0 0 0 1 0.3039072 0.8694351 -0.3895165 -0.06531206 0.68327 0.08601081 0.7250823 0.4776127 0.6639146 -0.4865025 -0.5679195 -0.1829766 0 0 0 1 0.3039315 0.8694077 -0.3895584 -0.06531207 0.6832803 0.08602101 0.7250715 0.4776127 0.6638929 -0.4865495 -0.5679044 -0.1829766 0 0 0 0.9999999 0.3039556 0.8693804 -0.3896005 -0.06531207 0.6832902 0.08603144 0.7250607 0.4776127 0.6638714 -0.4865963 -0.5678895 -0.1829765 0 0 0 1 0.3068153 0.868911 -0.3884047 -0.065312 0.6845084 0.08209148 0.7243682 0.4776127 0.6612963 -0.4881134 -0.5695897 -0.1829766 0 0 0 1 0.3114415 0.865799 -0.3916586 -0.06531206 0.6864744 0.08000717 0.7227389 0.4776127 0.657082 -0.4939546 -0.5694312 -0.1829766 0 0 0 1 0.3177108 0.8614909 -0.3960975 -0.06531203 0.6891306 0.07713595 0.72052 0.4776128 0.6512746 -0.5018799 -0.5691729 -0.1829766 0 0 0 1 0.3254931 0.8559949 -0.4016555 -0.06531207 0.6924134 0.07349521 0.7177479 0.4776127 0.6439084 -0.5117335 -0.5687799 -0.1829766 0 0 0 0.9999999 0.3346504 0.8493103 -0.4082659 -0.065312 0.6962561 0.06909963 0.7144597 0.4776128 0.6350091 -0.5233517 -0.5682133 -0.1829766 0 0 0 1 0.3450395 0.8414317 -0.4158612 -0.06531203 0.7005885 0.06396107 0.7106931 0.4776127 0.6245986 -0.5365647 -0.5674282 -0.1829766 0 0 0 1 0.3565133 0.8323503 -0.4243718 -0.06531204 0.7053373 0.05809006 0.7064879 0.4776128 0.612697 -0.5511974 -0.5663776 -0.1829766 0 0 0 1 0.3689175 0.8220593 -0.433726 -0.06531204 0.7104272 0.05150031 0.701884 0.4776127 0.5993272 -0.567068 -0.5650138 -0.1829766 0 0 0 0.9999999 0.3820955 0.8105565 -0.4438481 -0.06531204 0.7157813 0.04420595 0.696924 0.4776128 0.584517 -0.5839895 -0.5632902 -0.1829765 0 0 0 1 0.3958887 0.7978453 -0.4546593 -0.06531204 0.7213222 0.03622541 0.6916513 0.4776127 0.568301 -0.6017728 -0.5611622 -0.1829765 0 0 0 1 0.4101355 0.783939 -0.4660779 -0.06531205 0.7269736 0.02758318 0.6861113 0.4776127 0.5507252 -0.6202249 -0.5585899 -0.1829765 0 0 0 1 0.424677 0.768862 -0.4780176 -0.06531204 0.7326587 0.01830736 0.68035 0.4776127 0.5318465 -0.6391525 -0.5555388 -0.1829766 0 0 0 1 0.4393537 0.7526526 -0.4903902 -0.06531203 0.7383049 0.008435756 0.6744146 0.4776127 0.5117368 -0.6583638 -0.5519806 -0.1829766 0 0 0 1 0.4540139 0.7353629 -0.5031033 -0.06531206 0.7438414 -0.00199008 0.6683533 0.4776127 0.4904811 -0.6776704 -0.5478967 -0.1829766 0 0 0 1 0.4685096 0.7170616 -0.5160634 -0.06531203 0.749203 -0.01291975 0.6622145 0.4776127 0.4681813 -0.6968898 -0.5432777 -0.1829766 0 0 0 1 0.482702 0.6978329 -0.5291766 -0.06531207 0.7543306 -0.02429393 0.656045 0.4776127 0.4449542 -0.7158482 -0.5381233 -0.1829766 0 0 0 1 0.4964642 0.6777772 -0.5423479 -0.06531201 0.7591707 -0.03604907 0.6498925 0.4776127 0.4209312 -0.7343829 -0.5324457 -0.1829766 0 0 0 1 0.5096804 0.6570106 -0.5554844 -0.06531206 0.7636786 -0.04811248 0.6438016 0.4776128 0.3962588 -0.7523444 -0.5262669 -0.1829766 0 0 0 1 0.5222514 0.6356634 -0.5684942 -0.06531204 0.7678167 -0.06040755 0.6378155 0.4776127 0.3710946 -0.7695991 -0.5196208 -0.1829766 0 0 0 1 0.5340916 0.613879 -0.5812905 -0.06531204 0.7715577 -0.07285115 0.6319742 0.4776127 0.3456081 -0.7860312 -0.5125521 -0.1829766 0 0 0 0.9999999 0.5451335 0.5918124 -0.5937907 -0.065312 0.7748831 -0.08535603 0.6263151 0.4776127 0.3199775 -0.8015435 -0.5051159 -0.1829766 0 0 0 0.9999999 0.5553273 0.5696276 -0.6059174 -0.06531204 0.7777841 -0.0978331 0.6208708 0.4776127 0.2943867 -0.8160592 -0.4973768 -0.1829766 0 0 0 1 0.5646414 0.547496 -0.617599 -0.06531204 0.7802606 -0.110191 0.6156717 0.4776128 0.269024 -0.8295216 -0.4894077 -0.1829766 0 0 0 1 0.5730605 0.5255927 -0.6287717 -0.065312 0.7823215 -0.1223378 0.6107425 0.4776127 0.2440793 -0.8418939 -0.4812894 -0.1829766 0 0 0 1 0.5805864 0.504097 -0.6393793 -0.06531203 0.7839852 -0.1341821 0.6061043 0.4776128 0.2197421 -0.8531595 -0.4731087 -0.1829766 0 0 0 0.9999999 0.5872371 0.4831863 -0.6493717 -0.06531203 0.7852759 -0.1456332 0.6017745 0.4776127 0.1961993 -0.8633201 -0.4649559 -0.1829765 0 0 0 0.9999999 0.5930426 0.4630395 -0.6587068 -0.06531203 0.7862263 -0.1566036 0.5977653 0.4776127 0.1736331 -0.872393 -0.4569264 -0.1829766 0 0 0 1 0.5980461 0.4438308 -0.6673493 -0.06531206 0.7868732 -0.1670074 0.5940868 0.4776127 0.1522219 -0.8804103 -0.4491166 -0.1829766 0 0 0 1 0.6023 0.4257305 -0.6752689 -0.06531201 0.7872577 -0.1767628 0.5907456 0.4776127 0.1321362 -0.8874167 -0.4416237 -0.1829766 0 0 0 1 0.6058639 0.4089045 -0.6824414 -0.06531206 0.7874246 -0.1857906 0.5877452 0.4776128 0.1135405 -0.8934645 -0.4345451 -0.1829766 0 0 0 1 0.6088016 0.3935128 -0.6888456 -0.06531207 0.7874199 -0.1940147 0.585088 0.4776127 0.09659353 -0.8986131 -0.4279763 -0.1829765 0 0 0 1 0.6111793 0.3797106 -0.6944637 -0.06531207 0.7872906 -0.2013631 0.582775 0.4776128 0.08144668 -0.9029244 -0.4220116 -0.1829766 0 0 0 0.9999999 0.6129341 0.3676818 -0.6993726 -0.06531206 0.7871811 -0.2077053 0.5806931 0.4776128 0.06824708 -0.9064591 -0.4167418 -0.1829766 0 0 0 1 0.6145095 0.3574699 -0.7032734 -0.06531204 0.7868377 -0.2131517 0.5791829 0.4776128 0.05713661 -0.9092752 -0.4122545 -0.1829766 0 0 0 1 0.6153532 0.3493791 -0.7065939 -0.06531203 0.7867733 -0.2173574 0.5777056 0.4776128 0.04825488 -0.9114218 -0.4086336 -0.1829766 0 0 0 1 0.6160886 0.3438079 -0.7086825 -0.06531206 0.7865701 -0.2208586 0.5766531 0.4776128 0.04173943 -0.9126979 -0.4064974 -0.1829766 0 0 0 1 0.6167417 0.3396351 -0.710125 -0.06531203 0.7862608 -0.2225592 0.5764211 0.4776128 0.03772811 -0.9138463 -0.4043033 -0.1829766 0 0 0 0.9999999 0.6168851 0.3383749 -0.710602 -0.06531206 0.7862129 -0.2232222 0.57623 0.4776127 0.03635979 -0.914152 -0.4037372 -0.1829766 0 0 0 1</float_array>
          <technique_common>
            <accessor source="#Armature_Armature_Armature_ArmatureAction_l_upperarm_pose_matrix-output-array" count="80" stride="16">
              <param name="TRANSFORM" type="float4x4"/>
            </accessor>
          </technique_common>
        </source>
        <source id="Armature_Armature_Armature_ArmatureAction_l_upperarm_pose_matrix-interpolation">
          <Name_array id="Armature_Armature_Armature_ArmatureAction_l_upperarm_pose_matrix-interpolation-array" count="80">LINEAR LINEAR LINEAR LINEAR LINEAR LINEAR LINEAR LINEAR LINEAR LINEAR LINEAR LINEAR LINEAR LINEAR LINEAR LINEAR LINEAR LINEAR LINEAR LINEAR LINEAR LINEAR LINEAR LINEAR LINEAR LINEAR LINEAR LINEAR LINEAR LINEAR LINEAR LINEAR LINEAR LINEAR LINEAR LINEAR LINEAR LINEAR LINEAR LINEAR LINEAR LINEAR LINEAR LINEAR LINEAR LINEAR LINEAR LINEAR LINEAR LINEAR LINEAR LINEAR LINEAR LINEAR LINEAR LINEAR LINEAR LINEAR LINEAR LINEAR LINEAR LINEAR LINEAR LINEAR LINEAR LINEAR LINEAR LINEAR LINEAR LINEAR LINEAR LINEAR LINEAR LINEAR LINEAR LINEAR LINEAR LINEAR LINEAR LINEAR</Name_array>
          <technique_common>
            <accessor source="#Armature_Armature_Armature_ArmatureAction_l_upperarm_pose_matrix-interpolation-array" count="80" stride="1">
              <param name="INTERPOLATION" type="name"/>
            </accessor>
          </technique_common>
        </source>
        <sampler id="Armature_Armature_Armature_ArmatureAction_l_upperarm_pose_matrix-sampler">
          <input semantic="INPUT" source="#Armature_Armature_Armature_ArmatureAction_l_upperarm_pose_matrix-input"/>
          <input semantic="OUTPUT" source="#Armature_Armature_Armature_ArmatureAction_l_upperarm_pose_matrix-output"/>
          <input semantic="INTERPOLATION" source="#Armature_Armature_Armature_ArmatureAction_l_upperarm_pose_matrix-interpolation"/>
        </sampler>
        <channel source="#Armature_Armature_Armature_ArmatureAction_l_upperarm_pose_matrix-sampler" target="Armature_l_upperarm/transform"/>
      </animation>
      <animation id="Armature_Armature_Armature_ArmatureAction_l_leg_pose_matrix" name="Armature">
        <source id="Armature_Armature_Armature_ArmatureAction_l_leg_pose_matrix-input">
          <float_array id="Armature_Armature_Armature_ArmatureAction_l_leg_pose_matrix-input-array" count="80">0.04166662 0.08333331 0.125 0.1666666 0.2083333 0.25 0.2916666 0.3333333 0.375 0.4166666 0.4583333 0.5 0.5416667 0.5833333 0.625 0.6666667 0.7083333 0.75 0.7916667 0.8333333 0.875 0.9166667 0.9583333 1 1.041667 1.083333 1.125 1.166667 1.208333 1.25 1.291667 1.333333 1.375 1.416667 1.458333 1.5 1.541667 1.583333 1.625 1.666667 1.708333 1.75 1.791667 1.833333 1.875 1.916667 1.958333 2 2.041667 2.083333 2.125 2.166667 2.208333 2.25 2.291667 2.333333 2.375 2.416667 2.458333 2.5 2.541667 2.583333 2.625 2.666667 2.708333 2.75 2.791667 2.833333 2.875 2.916667 2.958333 3 3.041667 3.083333 3.125 3.166667 3.208333 3.25 3.291667 3.333333</float_array>
          <technique_common>
            <accessor source="#Armature_Armature_Armature_ArmatureAction_l_leg_pose_matrix-input-array" count="80" stride="1">
              <param name="TIME" type="float"/>
            </accessor>
          </technique_common>
        </source>
        <source id="Armature_Armature_Armature_ArmatureAction_l_leg_pose_matrix-output">
          <float_array id="Armature_Armature_Armature_ArmatureAction_l_leg_pose_matrix-output-array" count="1280">0.8777837 -0.3234417 0.3533851 -1.49012e-8 0.4752212 0.681062 -0.5570632 0.326944 -0.06049975 0.6569172 0.7515317 2.98023e-8 0 0 0 1 0.8779055 -0.3217649 0.3546106 1.49012e-8 0.4747681 0.681219 -0.5572573 0.3269439 -0.06226174 0.6575773 0.75081 0 0 0 0 0.9999999 0.8782322 -0.3169844 0.358091 -2.98023e-8 0.4734784 0.6816615 -0.5578131 0.326944 -0.06727885 0.6594378 0.7487426 4.47035e-8 0 0 0 0.9999999 0.8786823 -0.3094648 0.363523 0 0.471455 0.6823414 -0.5586952 0.3269439 -0.07515034 0.6623003 0.7454601 1.49012e-8 0 0 0 0.9999999 0.8791578 -0.2995656 0.3705967 1.49012e-8 0.4688019 0.6832058 -0.5598701 0.326944 -0.08547603 0.6659509 0.7410827 0 0 0 0 1 0.8795568 -0.2876465 0.3789979 1.49012e-8 0.4656227 0.6842014 -0.5613055 0.326944 -0.09785323 0.6701702 0.7357287 0 0 0 0 0.9999999 0.8797834 -0.2740733 0.3884131 0 0.4620223 0.6852764 -0.5629669 0.3269439 -0.1118761 0.6747445 0.7295228 -2.98023e-8 0 0 0 1 0.8797584 -0.2592212 0.3985343 -1.49012e-8 0.4581071 0.6863812 -0.5648174 0.326944 -0.1271338 0.6794742 0.7226008 0 0 0 0 1 0.8794255 -0.2434762 0.40906 1.49012e-8 0.4539837 0.6874732 -0.566815 0.3269439 -0.1432119 0.6841782 0.7151158 -2.98023e-8 0 0 0 1 0.8787575 -0.2272359 0.4197011 1.49012e-8 0.4497592 0.6885154 -0.5689142 0.3269441 -0.159693 0.688702 0.7072395 1.49012e-8 0 0 0 1 0.8777592 -0.2109084 0.4301815 -1.49012e-8 0.4455407 0.6894785 -0.5710627 0.3269439 -0.176159 0.6929191 0.6991646 -5.96046e-8 0 0 0 0.9999999 0.8764681 -0.1949108 0.4402424 0 0.4414355 0.6903407 -0.5732054 0.326944 -0.1921933 0.6967349 0.6911023 -4.47035e-8 0 0 0 1 0.8749533 -0.1796661 0.4496405 0 0.4375486 0.6910885 -0.5752807 0.326944 -0.207383 0.7000834 0.6832829 0 0 0 0 1 0.8733126 -0.1656009 0.4581496 2.98023e-8 0.4339837 0.6917155 -0.577224 0.3269439 -0.2213204 0.7029267 0.6759524 -1.49012e-8 0 0 0 0.9999999 0.8716666 -0.1531428 0.4655582 2.98023e-8 0.4308436 0.6922208 -0.5789682 0.326944 -0.2336043 0.7052501 0.6693665 0 0 0 0 1 0.8701511 -0.1427185 0.4716657 2.98023e-8 0.4282283 0.6926076 -0.5804441 0.326944 -0.243839 0.7070546 0.6637893 0 0 0 0 1 0.8689088 -0.1347528 0.4762764 0 0.4262371 0.6928814 -0.5815817 0.326944 -0.2516333 0.7083482 0.6594874 2.98023e-8 0 0 0 0.9999999 0.8679668 -0.1298478 0.4793466 2.98023e-8 0.4251957 0.6930124 -0.5821877 0.326944 -0.2565974 0.7091357 0.6567225 0 0 0 0 1 0.8677785 -0.1284566 0.480062 2.98023e-8 0.4245245 0.6938019 -0.5817369 0.326944 -0.2583401 0.7086168 0.6565993 0 0 0 0 1 0.8677828 -0.1289035 0.4799342 2.98023e-8 0.4247028 0.6938394 -0.581562 0.326944 -0.2580318 0.7084991 0.6568477 2.98023e-8 0 0 0 1 0.8677871 -0.1293504 0.479806 2.98023e-8 0.424881 0.6938768 -0.5813872 0.326944 -0.2577236 0.7083809 0.657096 -1.49012e-8 0 0 0 1 0.8678982 -0.1300913 0.4794047 2.98023e-8 0.4251115 0.6937699 -0.5813462 0.3269439 -0.2569684 0.7083499 0.657425 0 0 0 0 0.9999999 0.8680763 -0.1310191 0.4788292 5.96046e-8 0.4253749 0.6935712 -0.5813907 0.3269439 -0.2559288 0.7083736 0.657805 2.98023e-8 0 0 0 0.9999999 0.8683179 -0.1321269 0.4780858 0 0.4256697 0.6932837 -0.5815178 0.3269439 -0.2546149 0.7084489 0.6582334 0 0 0 0 0.9999999 0.8686203 -0.133408 0.4771804 0 0.4259942 0.6929111 -0.5817243 0.326944 -0.2530369 0.7085738 0.6587077 1.49012e-8 0 0 0 1 0.8689792 -0.1352225 0.4760149 2.98023e-8 0.4263467 0.6929046 -0.5814736 0.3269439 -0.2512047 0.7082359 0.6597713 1.49012e-8 0 0 0 1 0.8692991 -0.1373437 0.4748216 -5.96046e-8 0.4269122 0.6927897 -0.5811957 0.3269439 -0.249128 0.7079401 0.6608753 0 0 0 0 1 0.8696681 -0.1397334 0.4734467 2.98023e-8 0.4275023 0.6927432 -0.5808172 0.3269439 -0.2468174 0.7075179 0.6621932 1.49012e-8 0 0 0 0.9999999 0.8700823 -0.1422659 0.4719289 -2.98023e-8 0.4281151 0.6926236 -0.5805086 0.326944 -0.2442826 0.7071303 0.6635459 0 0 0 0 1 0.8704958 -0.1451089 0.4702982 0 0.428834 0.6925517 -0.5800634 0.326944 -0.2415335 0.7066228 0.6650911 0 0 0 0 1 0.8709462 -0.1480796 0.4685351 0 0.4295719 0.6924125 -0.5796832 0.3269439 -0.2385803 0.7061424 0.6666651 -4.47035e-8 0 0 0 1 0.8713974 -0.1512958 0.4666645 -2.98023e-8 0.4303922 0.6922895 -0.5792218 0.3269439 -0.2354331 0.7055813 0.6683759 -2.98023e-8 0 0 0 1 0.871878 -0.1546699 0.4646566 -2.98023e-8 0.4312276 0.6921612 -0.5787532 0.326944 -0.2321016 0.7049753 0.6701782 1.49012e-8 0 0 0 0.9999999 0.872353 -0.1582409 0.4625583 2.98023e-8 0.4321389 0.6920174 -0.5782454 0.326944 -0.2285963 0.7043235 0.6720656 0 0 0 0 1 0.8728488 -0.161949 0.4603339 5.96046e-8 0.4330617 0.6918684 -0.5777332 0.3269439 -0.2249271 0.7036268 0.6740306 -1.49012e-8 0 0 0 0.9999999 0.8733328 -0.1658311 0.458028 2.98023e-8 0.4340535 0.6917037 -0.5771859 0.326944 -0.2211042 0.7028842 0.6760673 -2.98023e-8 0 0 0 1 0.8738303 -0.1698296 0.4556076 -2.98023e-8 0.4350534 0.6915333 -0.5766368 0.326944 -0.2171379 0.7020966 0.6781679 1.49012e-8 0 0 0 1 0.87431 -0.1739784 0.4531153 0 0.4361153 0.691347 -0.5760579 0.3269439 -0.2130384 0.7012638 0.6803263 -1.49012e-8 0 0 0 1 0.8747957 -0.1782234 0.4505203 0 0.4371819 0.6911557 -0.5754787 0.326944 -0.2088158 0.7003857 0.6825362 1.49012e-8 0 0 0 0.9999999 0.8752585 -0.1825951 0.4478632 0 0.4383034 0.6909482 -0.5748744 0.3269439 -0.204481 0.6994638 0.6847904 -1.49012e-8 0 0 0 0.9999999 0.8757209 -0.1870428 0.4451159 1.49012e-8 0.4394263 0.6907356 -0.5742725 0.326944 -0.2000439 0.6984981 0.6870832 2.98023e-8 0 0 0 1 0.8761553 -0.1915933 0.442316 1.49012e-8 0.4405965 0.6905077 -0.5736496 0.326944 -0.1955152 0.6974891 0.6894075 -1.49012e-8 0 0 0 1 0.8765835 -0.1961996 0.4394394 0 0.4417651 0.6902742 -0.5730313 0.3269439 -0.1909051 0.696439 0.6917573 2.98023e-8 0 0 0 1 0.8769805 -0.2008851 0.4365204 1.49012e-8 0.4429733 0.6900262 -0.572397 0.3269439 -0.1862246 0.695348 0.6941264 -2.23517e-8 0 0 0 1 0.8773654 -0.2056065 0.4335387 0 0.4441772 0.689773 -0.5717689 0.326944 -0.1814839 0.6942183 0.6965088 -2.23517e-8 0 0 0 1 0.8777212 -0.2103765 0.4305195 0 0.4454039 0.6895084 -0.5711335 0.326944 -0.1766938 0.6930512 0.6988989 2.98023e-8 0 0 0 1 0.8780515 -0.2151764 0.4274631 -4.47035e-8 0.4466407 0.6892349 -0.5704973 0.326944 -0.171865 0.6918486 0.7012903 1.49012e-8 0 0 0 1 0.8783548 -0.2199951 0.4243754 -1.49012e-8 0.4478848 0.688953 -0.5698623 0.326944 -0.1670079 0.6906127 0.7036779 -2.23517e-8 0 0 0 1 0.8786306 -0.2248224 0.4212638 2.98023e-8 0.4491336 0.6886633 -0.5692291 0.326944 -0.1621334 0.6893457 0.7060562 -7.45058e-9 0 0 0 1 0.8788773 -0.2296474 0.4181344 0 0.4503842 0.6883664 -0.5685997 0.3269439 -0.1572523 0.6880507 0.7084193 7.45058e-9 0 0 0 0.9999999 0.879095 -0.2344594 0.4149948 1.49012e-8 0.4516345 0.6880623 -0.5679757 0.326944 -0.1523751 0.6867308 0.7107622 5.21541e-8 0 0 0 0.9999999 0.879283 -0.2392478 0.4118514 2.98023e-8 0.4528809 0.6877528 -0.5673577 0.3269439 -0.1475129 0.6853879 0.7130803 0 0 0 0 0.9999999 0.8794416 -0.2440024 0.4087115 0 0.4541208 0.6874382 -0.5667477 0.3269439 -0.1426761 0.684026 0.7153684 7.45058e-9 0 0 0 1 0.8795707 -0.2487127 0.4055824 0 0.4553519 0.6871191 -0.5661466 0.3269439 -0.1378757 0.6826488 0.7176219 -4.47035e-8 0 0 0 0.9999999 0.8796711 -0.2533682 0.4024713 1.49012e-8 0.456571 0.6867967 -0.5655556 0.3269439 -0.1331221 0.6812596 0.7198361 -7.45058e-9 0 0 0 1 0.879743 -0.2579588 0.3993858 -1.49012e-8 0.4577754 0.6864719 -0.5649761 0.3269439 -0.1284266 0.6798629 0.7220063 -1.49012e-8 0 0 0 0.9999999 0.879788 -0.2624745 0.3963334 0 0.4589626 0.6861454 -0.5644093 0.3269439 -0.1237994 0.6784629 0.7241286 -4.47035e-8 0 0 0 1 0.8798066 -0.2669051 0.3933216 0 0.4601295 0.6858186 -0.5638559 0.326944 -0.1192513 0.6770632 0.7261989 1.49012e-8 0 0 0 1 0.8798006 -0.2712408 0.3903581 1.49012e-8 0.4612738 0.6854927 -0.5633172 0.326944 -0.114793 0.6756689 0.728213 -1.49012e-8 0 0 0 1 0.8797713 -0.2754712 0.387451 2.98023e-8 0.4623922 0.6851681 -0.5627947 0.3269439 -0.1104353 0.6742849 0.730167 -1.49012e-8 0 0 0 1 0.8797204 -0.2795872 0.3846076 -1.49012e-8 0.4634824 0.6848471 -0.5622888 0.326944 -0.1061887 0.6729157 0.7320578 0 0 0 0 1 0.8796501 -0.2835786 0.3818364 -1.49012e-8 0.4645414 0.6845301 -0.5618005 0.326944 -0.1020638 0.6715666 0.733881 0 0 0 0 0.9999999 0.8795681 -0.2874272 0.3791373 4.47035e-8 0.4655551 0.6842222 -0.5613359 0.3269439 -0.09807096 0.6702427 0.7356335 -1.49012e-8 0 0 0 0.9999999 0.8794591 -0.2911501 0.376541 -1.49012e-8 0.4665553 0.6839139 -0.5608813 0.326944 -0.09422095 0.6689495 0.737312 -2.98023e-8 0 0 0 1 0.879351 -0.2946999 0.3740241 0 0.4674905 0.6836221 -0.5604582 0.3269439 -0.09052417 0.6676921 0.7389131 0 0 0 0 1 0.8792166 -0.2981095 0.3716295 -2.98023e-8 0.4684125 0.6833299 -0.5600445 0.3269439 -0.08699109 0.6664764 0.7404335 -1.49012e-8 0 0 0 1 0.8790918 -0.3013228 0.3693266 0 0.4692581 0.6830595 -0.5596662 0.326944 -0.08363199 0.6653076 0.7418703 0 0 0 0 1 0.8789431 -0.304382 0.367166 1.49012e-8 0.4700913 0.6827894 -0.5592968 0.3269439 -0.08045716 0.6641915 0.7432203 1.49012e-8 0 0 0 1 0.8788117 -0.3072213 0.3651092 0 0.4708363 0.682546 -0.5589669 0.3269439 -0.07747735 0.6631336 0.7444806 -2.98023e-8 0 0 0 1 0.8786588 -0.3098931 0.3632151 1.49012e-8 0.4715701 0.6823032 -0.5586447 0.326944 -0.07470255 0.6621395 0.745648 0 0 0 0 1 0.8785319 -0.3122997 0.361456 0 0.4722043 0.682058 -0.5584084 0.326944 -0.0721432 0.661261 0.7466791 1.49012e-8 0 0 0 1 0.8783849 -0.3145694 0.3598412 -1.49012e-8 0.4728277 0.681882 -0.5580955 0.3269439 -0.06980954 0.6603658 0.7476923 -4.47035e-8 0 0 0 1 0.8782733 -0.3165264 0.358395 1.49012e-8 0.4733403 0.6816717 -0.5579183 0.3269439 -0.06771187 0.6596475 0.7485188 2.98023e-8 0 0 0 1 0.878143 -0.3183367 0.3571084 0 0.4738428 0.6815373 -0.5576555 0.326944 -0.06586048 0.6589147 0.7493289 -1.49012e-8 0 0 0 0.9999999 0.8780723 -0.3197838 0.3559876 -1.49012e-8 0.4741927 0.6813778 -0.5575533 0.326944 -0.06426551 0.6583789 0.7499382 -1.49012e-8 0 0 0 1 0.8779845 -0.321074 0.3550414 1.49012e-8 0.4745331 0.6813013 -0.5573566 0.3269439 -0.06293747 0.6578297 0.7505324 -1.49012e-8 0 0 0 0.9999999 0.8778799 -0.3220358 0.3544284 2.98023e-8 0.4748648 0.6810498 -0.5573819 0.326944 -0.06188646 0.6576201 0.7508036 1.49012e-8 0 0 0 1 0.8778643 -0.3226791 0.3538815 1.49012e-8 0.4749924 0.6809593 -0.5573833 0.3269438 -0.06112297 0.6573983 0.7510602 -2.98023e-8 0 0 0 0.9999999 0.8778324 -0.3231496 0.3535314 1.49012e-8 0.4751114 0.6809624 -0.5572783 0.3269439 -0.06065732 0.657164 0.751303 -1.49012e-8 0 0 0 1 0.8777837 -0.3234417 0.3533851 -1.49012e-8 0.4752212 0.681062 -0.5570632 0.326944 -0.06049975 0.6569172 0.7515317 2.98023e-8 0 0 0 1</float_array>
          <technique_common>
            <accessor source="#Armature_Armature_Armature_ArmatureAction_l_leg_pose_matrix-output-array" count="80" stride="16">
              <param name="TRANSFORM" type="float4x4"/>
            </accessor>
          </technique_common>
        </source>
        <source id="Armature_Armature_Armature_ArmatureAction_l_leg_pose_matrix-interpolation">
          <Name_array id="Armature_Armature_Armature_ArmatureAction_l_leg_pose_matrix-interpolation-array" count="80">LINEAR LINEAR LINEAR LINEAR LINEAR LINEAR LINEAR LINEAR LINEAR LINEAR LINEAR LINEAR LINEAR LINEAR LINEAR LINEAR LINEAR LINEAR LINEAR LINEAR LINEAR LINEAR LINEAR LINEAR LINEAR LINEAR LINEAR LINEAR LINEAR LINEAR LINEAR LINEAR LINEAR LINEAR LINEAR LINEAR LINEAR LINEAR LINEAR LINEAR LINEAR LINEAR LINEAR LINEAR LINEAR LINEAR LINEAR LINEAR LINEAR LINEAR LINEAR LINEAR LINEAR LINEAR LINEAR LINEAR LINEAR LINEAR LINEAR LINEAR LINEAR LINEAR LINEAR LINEAR LINEAR LINEAR LINEAR LINEAR LINEAR LINEAR LINEAR LINEAR LINEAR LINEAR LINEAR LINEAR LINEAR LINEAR LINEAR LINEAR</Name_array>
          <technique_common>
            <accessor source="#Armature_Armature_Armature_ArmatureAction_l_leg_pose_matrix-interpolation-array" count="80" stride="1">
              <param name="INTERPOLATION" type="name"/>
            </accessor>
          </technique_common>
        </source>
        <sampler id="Armature_Armature_Armature_ArmatureAction_l_leg_pose_matrix-sampler">
          <input semantic="INPUT" source="#Armature_Armature_Armature_ArmatureAction_l_leg_pose_matrix-input"/>
          <input semantic="OUTPUT" source="#Armature_Armature_Armature_ArmatureAction_l_leg_pose_matrix-output"/>
          <input semantic="INTERPOLATION" source="#Armature_Armature_Armature_ArmatureAction_l_leg_pose_matrix-interpolation"/>
        </sampler>
        <channel source="#Armature_Armature_Armature_ArmatureAction_l_leg_pose_matrix-sampler" target="Armature_l_leg/transform"/>
      </animation>
    </animation>
  </library_animations>
  <library_visual_scenes>
    <visual_scene id="Scene" name="Scene">
      <node id="Armature" name="Armature" type="NODE">
        <matrix sid="transform">1 0 0 0 0 1 1.62921e-7 0 0 -1.62921e-7 1 7.45058e-9 0 0 0 1</matrix>
        <node id="Armature_hip" name="hip" sid="hip" type="JOINT">
          <matrix sid="transform">-2.8213e-7 0 1 1.66697e-9 0.9919327 0.1267656 2.66358e-7 -0.03813581 -0.1267656 0.9919328 -1.2666e-7 -0.1191744 0 0 0 1</matrix>
          <node id="Armature_uppertorso" name="uppertorso" sid="uppertorso" type="JOINT">
            <matrix sid="transform">0.9681352 -0.2504281 1.15444e-8 -1.86265e-9 0.2504281 0.9681352 7.02904e-8 0.3008372 -2.87792e-8 -6.51595e-8 1 5.55112e-16 0 0 0 1</matrix>
            <node id="Armature_head" name="head" sid="head" type="JOINT">
              <matrix sid="transform">0.930557 0.3661471 -3.06905e-8 2.23517e-8 -0.3661471 0.930557 -8.96577e-8 0.5689346 -4.26873e-9 9.46689e-8 1 7.10543e-15 0 0 0 1</matrix>
              <extra>
                <technique profile="blender">
                  <roll sid="roll" type="float">1.570797</roll>
                  <tip_x sid="tip_x" type="float">0</tip_x>
                  <tip_y sid="tip_y" type="float">0.1313683</tip_y>
                  <tip_z sid="tip_z" type="float">0.5169588</tip_z>
                </technique>
              </extra>
            </node>
            <node id="Armature_l_upperarm" name="l.upperarm" sid="l_upperarm" type="JOINT">
              <matrix sid="transform">0.9933034 -0.01127457 0.1149831 -0.06531204 -0.109664 -0.4052143 0.9076205 0.4776129 0.03635978 -0.9141521 -0.4037371 -0.1829766 0 0 0 1</matrix>
              <node id="Armature_l_arm" name="l.arm" sid="l_arm" type="JOINT">
                <matrix sid="transform">0.9992469 -0.03880202 -1.27809e-4 0 0.03880221 0.9992446 0.002222836 0.3892873 4.14596e-5 -0.002226174 0.9999976 -1.49012e-8 0 0 0 1</matrix>
                <node id="Armature_l_hand" name="l.hand" sid="l_hand" type="JOINT">
                  <matrix sid="transform">0.9985993 0.02738165 0.04527429 -7.45058e-9 -0.03575012 0.9799843 0.1958388 0.3705217 -0.0390057 -0.1971831 0.9795905 5.96046e-8 0 0 0 1</matrix>
                  <extra>
                    <technique profile="blender">
                      <connect sid="connect" type="bool">1</connect>
                      <roll sid="roll" type="float">-0.5709337</roll>
                      <tip_x sid="tip_x" type="float">-0.3022142</tip_x>
                      <tip_y sid="tip_y" type="float">0.01049005</tip_y>
                      <tip_z sid="tip_z" type="float">-0.2141095</tip_z>
                    </technique>
                  </extra>
                </node>
                <extra>
                  <technique profile="blender">
                    <connect sid="connect" type="bool">1</connect>
                    <roll sid="roll" type="float">-0.4178636</roll>
                  </technique>
                </extra>
              </node>
              <extra>
                <technique profile="blender">
                  <roll sid="roll" type="float">-0.415598</roll>
                </technique>
              </extra>
            </node>
            <node id="Armature_r_upperarm" name="r.upperarm" sid="r_upperarm" type="JOINT">
              <matrix sid="transform">-0.9933035 -0.01127507 0.114983 -0.06531215 0.1096642 -0.4052143 0.9076205 0.4776128 0.03635928 0.9141521 0.4037372 0.1829766 0 0 0 1</matrix>
              <node id="Armature_r_arm" name="r.arm" sid="r_arm" type="JOINT">
                <matrix sid="transform">0.9992469 0.03880204 1.28282e-4 0 -0.03880224 0.9992444 0.002222389 0.3892875 -4.19518e-5 -0.002225757 0.9999975 -5.96046e-8 0 0 0 1</matrix>
                <node id="Armature_r_hand" name="r.hand" sid="r_hand" type="JOINT">
                  <matrix sid="transform">0.9985994 -0.02738157 -0.04527465 1.49012e-8 0.03575013 0.9799841 0.1958393 0.3705214 0.03900604 -0.1971836 0.9795904 -2.98023e-8 0 0 0 1</matrix>
                  <extra>
                    <technique profile="blender">
                      <connect sid="connect" type="bool">1</connect>
                      <roll sid="roll" type="float">0.5709337</roll>
                      <tip_x sid="tip_x" type="float">0.302214</tip_x>
                      <tip_y sid="tip_y" type="float">0.01049005</tip_y>
                      <tip_z sid="tip_z" type="float">-0.2141094</tip_z>
                    </technique>
                  </extra>
                </node>
                <extra>
                  <technique profile="blender">
                    <connect sid="connect" type="bool">1</connect>
                    <roll sid="roll" type="float">0.4178636</roll>
                  </technique>
                </extra>
              </node>
              <extra>
                <technique profile="blender">
                  <roll sid="roll" type="float">0.4155981</roll>
                </technique>
              </extra>
            </node>
            <extra>
              <technique profile="blender">
                <roll sid="roll" type="float">1.570797</roll>
                <tip_x sid="tip_x" type="float">0</tip_x>
                <tip_y sid="tip_y" type="float">-0.06703722</tip_y>
                <tip_z sid="tip_z" type="float">0.5291596</tip_z>
              </technique>
            </extra>
          </node>
          <node id="Armature_l_upperleg" name="l.upperleg" sid="l_upperleg" type="JOINT">
            <matrix sid="transform">0.006937567 0.06598256 -0.9978065 0.001765385 -0.0668511 -0.9955578 -0.06629998 -0.07345415 -0.9977484 0.06716442 -0.002515216 -0.09297626 0 0 0 1</matrix>
            <node id="Armature_l_leg" name="l.leg" sid="l_leg" type="JOINT">
              <matrix sid="transform">0.9984554 0.05554172 -0.001373083 1.49012e-8 -0.0555235 0.9983976 0.01092189 0.326944 0.001977503 -0.01082877 0.9999394 7.45058e-9 0 0 0 1</matrix>
              <node id="Armature_l_foot" name="l.foot" sid="l_foot" type="JOINT">
                <matrix sid="transform">0.9999821 0.004029858 0.004378361 -7.45058e-9 -0.005416904 0.311906 0.9500974 0.4729059 0.002463121 -0.9501043 0.3119223 0 0 0 0 1</matrix>
                <extra>
                  <technique profile="blender">
                    <connect sid="connect" type="bool">1</connect>
                    <roll sid="roll" type="float">3.135014</roll>
                    <tip_x sid="tip_x" type="float">0</tip_x>
                    <tip_y sid="tip_y" type="float">0.4413842</tip_y>
                    <tip_z sid="tip_z" type="float">-0.1697646</tip_z>
                  </technique>
                </extra>
              </node>
              <extra>
                <technique profile="blender">
                  <connect sid="connect" type="bool">1</connect>
                  <roll sid="roll" type="float">3.129738</roll>
                </technique>
              </extra>
            </node>
            <extra>
              <technique profile="blender">
                <roll sid="roll" type="float">3.072676</roll>
              </technique>
            </extra>
          </node>
          <node id="Armature_r_upperleg" name="r.upperleg" sid="r_upperleg" type="JOINT">
            <matrix sid="transform">-0.006937166 0.06598262 -0.9978063 0.001765341 0.06685369 -0.9955579 -0.06630261 -0.07345416 -0.9977482 -0.06716441 0.002514588 0.09297626 0 0 0 1</matrix>
            <node id="Armature_r_leg" name="r.leg" sid="r_leg" type="JOINT">
              <matrix sid="transform">0.9984554 -0.05554175 0.001373052 -7.45058e-9 0.05552352 0.9983975 0.01092184 0.326944 -0.001977469 -0.01082873 0.9999394 7.45058e-9 0 0 0 1</matrix>
              <node id="Armature_r_foot" name="r.foot" sid="r_foot" type="JOINT">
                <matrix sid="transform">0.9999822 -0.004029823 -0.004377172 7.45058e-9 0.00541577 0.3119082 0.9500968 0.472906 -0.002463446 -0.9501036 0.3119245 7.45058e-9 0 0 0 1</matrix>
                <extra>
                  <technique profile="blender">
                    <connect sid="connect" type="bool">1</connect>
                    <roll sid="roll" type="float">-3.135013</roll>
                    <tip_x sid="tip_x" type="float">0</tip_x>
                    <tip_y sid="tip_y" type="float">0.441384</tip_y>
                    <tip_z sid="tip_z" type="float">-0.1697646</tip_z>
                  </technique>
                </extra>
              </node>
              <extra>
                <technique profile="blender">
                  <connect sid="connect" type="bool">1</connect>
                  <roll sid="roll" type="float">-3.129738</roll>
                </technique>
              </extra>
            </node>
            <extra>
              <technique profile="blender">
                <roll sid="roll" type="float">-3.072676</roll>
              </technique>
            </extra>
          </node>
          <extra>
            <technique profile="blender">
              <roll sid="roll" type="float">1.570797</roll>
              <tip_x sid="tip_x" type="float">0</tip_x>
              <tip_y sid="tip_y" type="float">0.02272671</tip_y>
              <tip_z sid="tip_z" type="float">0.1778355</tip_z>
            </technique>
          </extra>
        </node>
      </node>
    </visual_scene>
  </library_visual_scenes>
  <scene>
    <instance_visual_scene url="#Scene"/>
  </scene>
</COLLADA>