# Blender 4.4.0
# www.blender.org
mtllib Untitled.mtl
o Cylinder
v 0.000000 -0.356739 -0.291425
v 0.000000 1.967766 -0.291425
v 0.111523 -0.356739 -0.269241
v 0.111523 1.967766 -0.269241
v 0.206068 -0.356739 -0.206068
v 0.206068 1.967766 -0.206068
v 0.269241 -0.356739 -0.111523
v 0.269241 1.967766 -0.111523
v 0.291425 -0.356739 0.000000
v 0.291425 1.967766 -0.000000
v 0.269241 -0.356739 0.111523
v 0.269241 1.967766 0.111523
v 0.206068 -0.356739 0.206068
v 0.206068 1.967766 0.206068
v 0.111523 -0.356739 0.269241
v 0.111523 1.967766 0.269241
v 0.000000 -0.356739 0.291425
v 0.000000 1.967766 0.291425
v -0.111523 -0.356739 0.269241
v -0.111523 1.967766 0.269241
v -0.206068 -0.356739 0.206068
v -0.206068 1.967766 0.206068
v -0.269241 -0.356739 0.111523
v -0.269241 1.967766 0.111523
v -0.291425 -0.356739 0.000000
v -0.291425 1.967766 -0.000000
v -0.269241 -0.356739 -0.111523
v -0.269241 1.967766 -0.111523
v -0.206068 -0.356739 -0.206068
v -0.206068 1.967766 -0.206068
v -0.111523 -0.356739 -0.269241
v -0.111523 1.967766 -0.269241
v 0.079137 2.172900 -0.191053
v 0.000000 2.172900 -0.206794
v 0.146225 2.172900 -0.146225
v 0.191053 2.172900 -0.079137
v 0.206794 2.172900 -0.000000
v 0.191053 2.172900 0.079137
v 0.146225 2.172900 0.146225
v 0.079137 2.172900 0.191053
v 0.000000 2.172900 0.206794
v -0.079137 2.172900 0.191053
v -0.146225 2.172900 0.146225
v -0.191053 2.172900 0.079137
v -0.206794 2.172900 -0.000000
v -0.191053 2.172900 -0.079137
v -0.146225 2.172900 -0.146225
v -0.079137 2.172900 -0.191053
v 0.072378 2.571189 -0.174735
v 0.000000 2.571189 -0.189132
v 0.133736 2.571189 -0.133736
v 0.174735 2.571189 -0.072378
v 0.189132 2.571189 -0.000000
v 0.174735 2.571189 0.072378
v 0.133736 2.571189 0.133736
v 0.072378 2.571189 0.174735
v 0.000000 2.571189 0.189132
v -0.072378 2.571189 0.174735
v -0.133736 2.571189 0.133736
v -0.174735 2.571189 0.072378
v -0.189132 2.571189 -0.000000
v -0.174735 2.571189 -0.072378
v -0.133736 2.571189 -0.133736
v -0.072378 2.571189 -0.174735
v 0.000000 -0.457327 -0.242024
v 0.092618 -0.457327 -0.223601
v 0.171137 -0.457327 -0.171137
v 0.223601 -0.457327 -0.092618
v 0.242024 -0.457327 0.000000
v 0.223601 -0.457327 0.092618
v 0.171137 -0.457327 0.171137
v 0.092618 -0.457327 0.223601
v 0.000000 -0.457327 0.242024
v -0.092618 -0.457327 0.223601
v -0.171137 -0.457327 0.171137
v -0.223601 -0.457327 0.092618
v -0.242024 -0.457327 0.000000
v -0.223601 -0.457327 -0.092618
v -0.171137 -0.457327 -0.171137
v -0.092618 -0.457327 -0.223601
v 0.000000 -0.527447 -0.242024
v 0.092618 -0.527447 -0.223601
v 0.171137 -0.527447 -0.171137
v 0.223601 -0.527447 -0.092618
v 0.242024 -0.527447 0.000000
v 0.223601 -0.527447 0.092618
v 0.171137 -0.527447 0.171137
v 0.092618 -0.527447 0.223601
v 0.000000 -0.527447 0.242024
v -0.092618 -0.527447 0.223601
v -0.171137 -0.527447 0.171137
v -0.223601 -0.527447 0.092618
v -0.242024 -0.527447 0.000000
v -0.223601 -0.527447 -0.092618
v -0.171137 -0.527447 -0.171137
v -0.092618 -0.527447 -0.223601
v 0.000000 -0.527447 -0.292334
v 0.111872 -0.527447 -0.270082
v 0.206712 -0.527447 -0.206712
v 0.270082 -0.527447 -0.111872
v 0.292334 -0.527447 0.000000
v 0.270082 -0.527447 0.111872
v 0.206712 -0.527447 0.206712
v 0.111872 -0.527447 0.270082
v 0.000000 -0.527447 0.292334
v -0.111872 -0.527447 0.270082
v -0.206712 -0.527447 0.206712
v -0.270082 -0.527447 0.111872
v -0.292334 -0.527447 0.000000
v -0.270082 -0.527447 -0.111872
v -0.206712 -0.527447 -0.206712
v -0.111872 -0.527447 -0.270082
v 0.000000 -0.569571 -0.115503
v 0.044201 -0.569571 -0.106711
v 0.081673 -0.569571 -0.081673
v 0.106711 -0.569571 -0.044201
v 0.115503 -0.569571 0.000000
v 0.106711 -0.569571 0.044201
v 0.081673 -0.569571 0.081673
v 0.044201 -0.569571 0.106711
v 0.000000 -0.569571 0.115503
v -0.044201 -0.569571 0.106711
v -0.081673 -0.569571 0.081673
v -0.106711 -0.569571 0.044201
v -0.115503 -0.569571 0.000000
v -0.106711 -0.569571 -0.044201
v -0.081673 -0.569571 -0.081673
v -0.044201 -0.569571 -0.106711
v 0.079137 2.571189 -0.191053
v 0.000000 2.571189 -0.206794
v 0.146225 2.571189 -0.146225
v 0.191053 2.571189 -0.079137
v 0.206794 2.571189 -0.000000
v 0.191053 2.571189 0.079137
v 0.146225 2.571189 0.146225
v 0.079137 2.571189 0.191053
v 0.000000 2.571189 0.206794
v -0.079137 2.571189 0.191053
v -0.146225 2.571189 0.146225
v -0.191053 2.571189 0.079137
v -0.206794 2.571189 -0.000000
v -0.191053 2.571189 -0.079137
v -0.146225 2.571189 -0.146225
v -0.079137 2.571189 -0.191053
v 0.084496 -0.319021 -0.203993
v 0.000000 -0.319021 -0.220800
v 0.156129 -0.319021 -0.156129
v 0.203993 -0.319021 -0.084497
v 0.220800 -0.319021 0.000000
v 0.203993 -0.319021 0.084497
v 0.156129 -0.319021 0.156129
v 0.084496 -0.319021 0.203993
v 0.000000 -0.319021 0.220800
v -0.084497 -0.319021 0.203993
v -0.156129 -0.319021 0.156129
v -0.203993 -0.319021 0.084497
v -0.220800 -0.319021 0.000000
v -0.203993 -0.319021 -0.084497
v -0.156129 -0.319021 -0.156129
v -0.084497 -0.319021 -0.203993
v 0.000000 -0.569571 -0.292334
v 0.111872 -0.569571 -0.270082
v 0.206712 -0.569571 -0.206712
v 0.270082 -0.569571 -0.111872
v 0.292334 -0.569571 0.000000
v 0.270082 -0.569571 0.111872
v 0.206712 -0.569571 0.206712
v 0.111872 -0.569571 0.270082
v 0.000000 -0.569571 0.292334
v -0.111872 -0.569571 0.270082
v -0.206712 -0.569571 0.206712
v -0.270082 -0.569571 0.111872
v -0.292334 -0.569571 0.000000
v -0.270082 -0.569571 -0.111872
v -0.206712 -0.569571 -0.206712
v -0.111872 -0.569571 -0.270082
v 0.000000 -0.510787 -0.115503
v 0.044201 -0.510787 -0.106711
v 0.081673 -0.510787 -0.081673
v 0.106711 -0.510787 -0.044201
v 0.115503 -0.510787 0.000000
v 0.106711 -0.510787 0.044201
v 0.081673 -0.510787 0.081673
v 0.044201 -0.510787 0.106711
v 0.000000 -0.510787 0.115503
v -0.044201 -0.510787 0.106711
v -0.081673 -0.510787 0.081673
v -0.106711 -0.510787 0.044201
v -0.115503 -0.510787 0.000000
v -0.106711 -0.510787 -0.044201
v -0.081673 -0.510787 -0.081673
v -0.044201 -0.510787 -0.106711
vn -0.0000 -0.2203 -0.9754
vn -0.0000 0.1899 -0.9818
vn 0.3757 0.1899 -0.9071
vn 0.3733 -0.2203 -0.9012
vn 0.6942 0.1899 -0.6942
vn 0.6897 -0.2203 -0.6897
vn 0.9071 0.1899 -0.3757
vn 0.9012 -0.2203 -0.3733
vn 0.9818 0.1899 -0.0000
vn 0.9754 -0.2203 -0.0000
vn 0.9071 0.1899 0.3757
vn 0.9012 -0.2203 0.3733
vn 0.6942 0.1899 0.6942
vn 0.6897 -0.2203 0.6897
vn 0.3757 0.1899 0.9071
vn 0.3733 -0.2203 0.9012
vn -0.0000 0.1899 0.9818
vn -0.0000 -0.2203 0.9754
vn -0.3757 0.1899 0.9071
vn -0.3733 -0.2203 0.9012
vn -0.6942 0.1899 0.6942
vn -0.6897 -0.2203 0.6897
vn -0.9071 0.1899 0.3757
vn -0.9012 -0.2203 0.3733
vn -0.9818 0.1899 -0.0000
vn -0.9754 -0.2203 -0.0000
vn -0.9071 0.1899 -0.3757
vn -0.9012 -0.2203 -0.3733
vn -0.6942 0.1899 -0.6942
vn -0.6897 -0.2203 -0.6897
vn -0.3757 0.1899 -0.9071
vn -0.6929 0.1992 -0.6929
vn -0.3750 0.1992 -0.9054
vn -0.3733 -0.2203 -0.9012
vn 0.8985 -0.2327 -0.3722
vn 0.6877 -0.2327 -0.6877
vn -0.9800 0.1992 -0.0000
vn -0.9054 0.1992 0.3750
vn -0.6894 0.6657 0.2856
vn -0.7462 0.6657 -0.0000
vn 0.6929 0.1992 -0.6929
vn 0.9054 0.1992 -0.3750
vn 0.3750 0.1992 0.9054
vn -0.0000 0.1992 0.9800
vn -0.0000 0.1992 -0.9800
vn 0.3750 0.1992 -0.9054
vn -0.9054 0.1992 -0.3750
vn 0.9054 0.1992 0.3750
vn 0.6929 0.1992 0.6929
vn -0.6929 0.1992 0.6929
vn 0.9800 0.1992 -0.0000
vn -0.3750 0.1992 0.9054
vn -0.2530 0.7502 -0.6109
vn -0.4675 0.7502 -0.4676
vn -0.5302 0.6617 -0.5302
vn -0.2869 0.6617 -0.6927
vn 0.7462 0.6657 -0.0000
vn 0.6894 0.6657 0.2856
vn -0.6894 0.6657 -0.2856
vn 0.5276 0.6657 0.5276
vn -0.5276 0.6657 -0.5276
vn 0.2856 0.6657 0.6894
vn -0.2856 0.6657 -0.6894
vn -0.0000 0.6657 0.7462
vn -0.0000 0.6657 -0.7462
vn 0.2856 0.6657 -0.6894
vn -0.2856 0.6657 0.6894
vn 0.5276 0.6657 -0.5276
vn -0.5276 0.6657 0.5276
vn 0.6894 0.6657 -0.2856
vn 0.6877 -0.2327 0.6877
vn 0.3722 -0.2327 0.8985
vn 0.2515 0.7538 0.6071
vn 0.4647 0.7538 0.4647
vn -0.0000 -0.2327 0.9725
vn 0.3722 -0.2327 -0.8985
vn -0.0000 -0.2327 -0.9725
vn -0.8985 -0.2327 -0.3722
vn -0.9725 -0.2327 -0.0000
vn 0.8985 -0.2327 0.3722
vn -0.8985 -0.2327 0.3722
vn -0.6877 -0.2327 0.6877
vn -0.3722 -0.2327 -0.8985
vn 0.9725 -0.2327 -0.0000
vn -0.3722 -0.2327 0.8985
vn -0.6877 -0.2327 -0.6877
vn -0.6071 0.7538 0.2515
vn -0.6571 0.7538 -0.0000
vn -0.2515 0.7538 -0.6071
vn -0.4647 0.7538 -0.4647
vn -0.0000 0.7538 0.6571
vn 0.2515 0.7538 -0.6071
vn -0.0000 0.7538 -0.6571
vn -0.2515 0.7538 0.6071
vn 0.4647 0.7538 -0.4647
vn -0.4647 0.7538 0.4647
vn 0.6071 0.7538 -0.2515
vn 0.6571 0.7538 -0.0000
vn 0.6071 0.7538 0.2515
vn -0.6071 0.7538 -0.2515
vn -0.5276 -0.6657 0.5276
vn -0.2856 -0.6657 0.6894
vn 0.2515 -0.7538 -0.6071
vn 0.4647 -0.7538 -0.4647
vn 0.5276 -0.6657 -0.5276
vn 0.2856 -0.6657 -0.6894
vn 0.6894 -0.6657 -0.2856
vn -0.6894 -0.6657 0.2856
vn 0.7462 -0.6657 -0.0000
vn -0.7462 -0.6657 -0.0000
vn 0.6894 -0.6657 0.2856
vn -0.6894 -0.6657 -0.2856
vn 0.5276 -0.6657 0.5276
vn -0.5276 -0.6657 -0.5276
vn 0.2856 -0.6657 0.6894
vn -0.2856 -0.6657 -0.6894
vn -0.0000 -0.6657 0.7462
vn -0.0000 -0.6657 -0.7462
vn -0.0000 0.7502 0.6612
vn -0.2530 0.7502 0.6109
vn -0.4675 0.7502 0.4676
vn -0.6109 0.7502 0.2530
vn -0.6612 0.7502 -0.0000
vn -0.6109 0.7502 -0.2530
vn -0.0000 0.7502 -0.6612
vn 0.2530 0.7502 -0.6109
vn 0.4675 0.7502 -0.4675
vn 0.6109 0.7502 -0.2530
vn 0.6612 0.7502 -0.0000
vn 0.6109 0.7502 0.2530
vn 0.4675 0.7502 0.4676
vn 0.2530 0.7502 0.6109
vn -0.2869 0.6617 0.6927
vn -0.0000 0.6617 0.7498
vn 0.2869 0.6617 0.6927
vn 0.5302 0.6617 0.5302
vn 0.6927 0.6617 0.2869
vn 0.7498 0.6617 -0.0000
vn 0.6927 0.6617 -0.2869
vn 0.5302 0.6617 -0.5302
vn 0.2869 0.6617 -0.6927
vn -0.0000 0.6617 -0.7498
vn -0.6927 0.6617 -0.2869
vn -0.7498 0.6617 -0.0000
vn -0.6927 0.6617 0.2869
vn -0.5302 0.6617 0.5302
vn -0.2515 -0.7538 0.6071
vn -0.0000 -0.7538 0.6571
vn -0.4647 -0.7538 0.4647
vn -0.6071 -0.7538 0.2515
vn -0.6571 -0.7538 -0.0000
vn -0.6071 -0.7538 -0.2515
vn -0.4647 -0.7538 -0.4647
vn -0.2515 -0.7538 -0.6071
vn -0.0000 -0.7538 -0.6571
vn 0.6071 -0.7538 -0.2515
vn 0.6571 -0.7538 -0.0000
vn 0.6071 -0.7538 0.2515
vn 0.4647 -0.7538 0.4647
vn 0.2515 -0.7538 0.6071
vt 1.000000 0.500000
vt 1.000000 1.000000
vt 0.937500 1.000000
vt 0.937500 0.500000
vt 0.875000 1.000000
vt 0.875000 0.500000
vt 0.812500 1.000000
vt 0.812500 0.500000
vt 0.750000 1.000000
vt 0.750000 0.500000
vt 0.687500 1.000000
vt 0.687500 0.500000
vt 0.625000 1.000000
vt 0.625000 0.500000
vt 0.562500 1.000000
vt 0.562500 0.500000
vt 0.500000 1.000000
vt 0.500000 0.500000
vt 0.437500 1.000000
vt 0.437500 0.500000
vt 0.375000 1.000000
vt 0.375000 0.500000
vt 0.312500 1.000000
vt 0.312500 0.500000
vt 0.250000 1.000000
vt 0.250000 0.500000
vt 0.187500 1.000000
vt 0.187500 0.500000
vt 0.125000 1.000000
vt 0.125000 0.500000
vt 0.062500 1.000000
vt 0.062500 0.500000
vt 0.000000 1.000000
vt 0.000000 0.500000
vt 0.334000 0.047207
vt 0.405211 0.094789
vt 0.709809 0.152971
vt 0.675737 0.175737
vt 0.250000 0.469502
vt 0.334000 0.452793
vt 0.341844 0.471731
vt 0.250000 0.490000
vt 0.405211 0.405211
vt 0.419706 0.419706
vt 0.452793 0.334000
vt 0.471731 0.341844
vt 0.469502 0.250000
vt 0.490000 0.250000
vt 0.452793 0.166000
vt 0.471731 0.158156
vt 0.419706 0.080294
vt 0.341844 0.028269
vt 0.250000 0.030498
vt 0.250000 0.010000
vt 0.166000 0.047207
vt 0.158156 0.028269
vt 0.094789 0.094789
vt 0.080294 0.080294
vt 0.047207 0.166000
vt 0.028269 0.158156
vt 0.030498 0.250000
vt 0.010000 0.250000
vt 0.047207 0.334000
vt 0.028269 0.341844
vt 0.094789 0.405211
vt 0.080294 0.419706
vt 0.166000 0.452793
vt 0.158156 0.471731
vt 0.790191 0.347029
vt 0.750000 0.355023
vt 0.750000 0.490000
vt 0.841844 0.471731
vt 0.824263 0.324263
vt 0.919706 0.419706
vt 0.847029 0.290191
vt 0.971731 0.341844
vt 0.855023 0.250000
vt 0.990000 0.250000
vt 0.847029 0.209809
vt 0.971731 0.158156
vt 0.824262 0.175737
vt 0.919706 0.080294
vt 0.790191 0.152971
vt 0.841844 0.028269
vt 0.750000 0.144977
vt 0.750000 0.010000
vt 0.658156 0.028269
vt 0.580294 0.080294
vt 0.652971 0.209809
vt 0.528269 0.158156
vt 0.644977 0.250000
vt 0.510000 0.250000
vt 0.652971 0.290191
vt 0.528269 0.341844
vt 0.675737 0.324263
vt 0.580294 0.419706
vt 0.709809 0.347029
vt 0.658156 0.471731
s 1
f 1/1/1 2/2/2 4/3/3 3/4/4
f 3/4/4 4/3/3 6/5/5 5/6/6
f 5/6/6 6/5/5 8/7/7 7/8/8
f 7/8/8 8/7/7 10/9/9 9/10/10
f 9/10/10 10/9/9 12/11/11 11/12/12
f 11/12/12 12/11/11 14/13/13 13/14/14
f 13/14/14 14/13/13 16/15/15 15/16/16
f 15/16/16 16/15/15 18/17/17 17/18/18
f 17/18/18 18/17/17 20/19/19 19/20/20
f 19/20/20 20/19/19 22/21/21 21/22/22
f 21/22/22 22/21/21 24/23/23 23/24/24
f 23/24/24 24/23/23 26/25/25 25/26/26
f 25/26/26 26/25/25 28/27/27 27/28/28
f 27/28/28 28/27/27 30/29/29 29/30/30
f 32/31/31 30/29/29 47/29/32 48/31/33
f 29/30/30 30/29/29 32/31/31 31/32/34
f 31/32/34 32/31/31 2/33/2 1/34/1
f 5/6/6 7/8/8 68/8/35 67/6/36
f 45/25/37 44/23/38 140/23/39 141/25/40
f 8/7/7 6/5/5 35/5/41 36/7/42
f 18/17/17 16/15/15 40/15/43 41/17/44
f 4/3/3 2/2/2 34/2/45 33/3/46
f 28/27/27 26/25/25 45/25/37 46/27/47
f 14/13/13 12/11/11 38/11/48 39/13/49
f 24/23/23 22/21/21 43/21/50 44/23/38
f 2/33/2 32/31/31 48/31/33 34/33/45
f 10/9/9 8/7/7 36/7/42 37/9/51
f 20/19/19 18/17/17 41/17/44 42/19/52
f 30/29/29 28/27/27 46/27/47 47/29/32
f 6/5/5 4/3/3 33/3/46 35/5/41
f 16/15/15 14/13/13 39/13/49 40/15/43
f 26/25/25 24/23/23 44/23/38 45/25/37
f 12/11/11 10/9/9 37/9/51 38/11/48
f 22/21/21 20/19/19 42/19/52 43/21/50
f 56/35/53 55/36/54 151/36/55 152/35/56
f 38/11/48 37/9/51 133/9/57 134/11/58
f 46/27/47 45/25/37 141/25/40 142/27/59
f 39/13/49 38/11/48 134/11/58 135/13/60
f 47/29/32 46/27/47 142/27/59 143/29/61
f 40/15/43 39/13/49 135/13/60 136/15/62
f 48/31/33 47/29/32 143/29/61 144/31/63
f 41/17/44 40/15/43 136/15/62 137/17/64
f 33/3/46 34/2/45 130/2/65 129/3/66
f 34/33/45 48/31/33 144/31/63 130/33/65
f 42/19/52 41/17/44 137/17/64 138/19/67
f 35/5/41 33/3/46 129/3/66 131/5/68
f 43/21/50 42/19/52 138/19/67 139/21/69
f 36/7/42 35/5/41 131/5/68 132/7/70
f 44/23/38 43/21/50 139/21/69 140/23/39
f 37/9/51 36/7/42 132/7/70 133/9/57
f 71/14/71 72/16/72 88/16/73 87/14/74
f 15/16/16 17/18/18 73/18/75 72/16/72
f 1/1/1 3/4/4 66/4/76 65/1/77
f 25/26/26 27/28/28 78/28/78 77/26/79
f 11/12/12 13/14/14 71/14/71 70/12/80
f 21/22/22 23/24/24 76/24/81 75/22/82
f 31/32/34 1/34/1 65/34/77 80/32/83
f 7/8/8 9/10/10 69/10/84 68/8/35
f 17/18/18 19/20/20 74/20/85 73/18/75
f 27/28/28 29/30/30 79/30/86 78/28/78
f 3/4/4 5/6/6 67/6/36 66/4/76
f 13/14/14 15/16/16 72/16/72 71/14/71
f 23/24/24 25/26/26 77/26/79 76/24/81
f 9/10/10 11/12/12 70/12/80 69/10/84
f 19/20/20 21/22/22 75/22/82 74/20/85
f 29/30/30 31/32/34 80/32/83 79/30/86
f 92/24/87 93/26/88 109/26/40 108/24/39
f 79/30/86 80/32/83 96/32/89 95/30/90
f 72/16/72 73/18/75 89/18/91 88/16/73
f 65/1/77 66/4/76 82/4/92 81/1/93
f 80/32/83 65/34/77 81/34/93 96/32/89
f 73/18/75 74/20/85 90/20/94 89/18/91
f 66/4/76 67/6/36 83/6/95 82/4/92
f 74/20/85 75/22/82 91/22/96 90/20/94
f 67/6/36 68/8/35 84/8/97 83/6/95
f 75/22/82 76/24/81 92/24/87 91/22/96
f 68/8/35 69/10/84 85/10/98 84/8/97
f 76/24/81 77/26/79 93/26/88 92/24/87
f 69/10/84 70/12/80 86/12/99 85/10/98
f 77/26/79 78/28/78 94/28/100 93/26/88
f 70/12/80 71/14/71 87/14/74 86/12/99
f 78/28/78 79/30/86 95/30/90 94/28/100
f 106/20/67 107/22/69 171/22/101 170/20/102
f 85/10/98 86/12/99 102/12/58 101/10/57
f 93/26/88 94/28/100 110/28/59 109/26/40
f 86/12/99 87/14/74 103/14/60 102/12/58
f 94/28/100 95/30/90 111/30/61 110/28/59
f 87/14/74 88/16/73 104/16/62 103/14/60
f 95/30/90 96/32/89 112/32/63 111/30/61
f 88/16/73 89/18/91 105/18/64 104/16/62
f 81/1/93 82/4/92 98/4/66 97/1/65
f 96/32/89 81/34/93 97/34/65 112/32/63
f 89/18/91 90/20/94 106/20/67 105/18/64
f 82/4/92 83/6/95 99/6/68 98/4/66
f 90/20/94 91/22/96 107/22/69 106/20/67
f 83/6/95 84/8/97 100/8/70 99/6/68
f 91/22/96 92/24/87 108/24/39 107/22/69
f 84/8/97 85/10/98 101/10/57 100/8/70
f 122/37/103 123/38/104 187/38/105 186/37/106
f 99/6/68 100/8/70 164/8/107 163/6/105
f 107/22/69 108/24/39 172/24/108 171/22/101
f 100/8/70 101/10/57 165/10/109 164/8/107
f 108/24/39 109/26/40 173/26/110 172/24/108
f 101/10/57 102/12/58 166/12/111 165/10/109
f 109/26/40 110/28/59 174/28/112 173/26/110
f 102/12/58 103/14/60 167/14/113 166/12/111
f 110/28/59 111/30/61 175/30/114 174/28/112
f 103/14/60 104/16/62 168/16/115 167/14/113
f 111/30/61 112/32/63 176/32/116 175/30/114
f 104/16/62 105/18/64 169/18/117 168/16/115
f 97/1/65 98/4/66 162/4/106 161/1/118
f 112/32/63 97/34/65 161/34/118 176/32/116
f 105/18/64 106/20/67 170/20/102 169/18/117
f 98/4/66 99/6/68 163/6/105 162/4/106
f 50/39/119 49/40/120 129/41/66 130/42/65
f 49/40/120 51/43/121 131/44/68 129/41/66
f 51/43/121 52/45/122 132/46/70 131/44/68
f 52/45/122 53/47/123 133/48/57 132/46/70
f 53/47/123 54/49/124 134/50/58 133/48/57
f 54/49/124 55/36/54 135/51/60 134/50/58
f 55/36/54 56/35/53 136/52/62 135/51/60
f 56/35/53 57/53/125 137/54/64 136/52/62
f 57/53/125 58/55/126 138/56/67 137/54/64
f 58/55/126 59/57/127 139/58/69 138/56/67
f 59/57/127 60/59/128 140/60/39 139/58/69
f 60/59/128 61/61/129 141/62/40 140/60/39
f 61/61/129 62/63/130 142/64/59 141/62/40
f 62/63/130 63/65/131 143/66/61 142/64/59
f 63/65/131 64/67/132 144/68/63 143/66/61
f 64/67/132 50/39/119 130/42/65 144/68/63
f 145/40/133 146/39/134 160/67/135 159/65/136 158/63/137 157/61/138 156/59/139 155/57/140 154/55/141 153/53/142 152/35/56 151/36/55 150/49/143 149/47/144 148/45/145 147/43/146
f 64/67/132 63/65/131 159/65/136 160/67/135
f 57/53/125 56/35/53 152/35/56 153/53/142
f 49/40/120 50/39/119 146/39/134 145/40/133
f 50/39/119 64/67/132 160/67/135 146/39/134
f 58/55/126 57/53/125 153/53/142 154/55/141
f 51/43/121 49/40/120 145/40/133 147/43/146
f 59/57/127 58/55/126 154/55/141 155/57/140
f 52/45/122 51/43/121 147/43/146 148/45/145
f 60/59/128 59/57/127 155/57/140 156/59/139
f 53/47/123 52/45/122 148/45/145 149/47/144
f 61/61/129 60/59/128 156/59/139 157/61/138
f 54/49/124 53/47/123 149/47/144 150/49/143
f 62/63/130 61/61/129 157/61/138 158/63/137
f 55/36/54 54/49/124 150/49/143 151/36/55
f 63/65/131 62/63/130 158/63/137 159/65/136
f 114/69/147 113/70/148 161/71/118 162/72/106
f 115/73/149 114/69/147 162/72/106 163/74/105
f 116/75/150 115/73/149 163/74/105 164/76/107
f 117/77/151 116/75/150 164/76/107 165/78/109
f 118/79/152 117/77/151 165/78/109 166/80/111
f 119/81/153 118/79/152 166/80/111 167/82/113
f 120/83/154 119/81/153 167/82/113 168/84/115
f 121/85/155 120/83/154 168/84/115 169/86/117
f 122/37/103 121/85/155 169/86/117 170/87/102
f 123/38/104 122/37/103 170/87/102 171/88/101
f 124/89/156 123/38/104 171/88/101 172/90/108
f 125/91/157 124/89/156 172/90/108 173/92/110
f 126/93/158 125/91/157 173/92/110 174/94/112
f 127/95/159 126/93/158 174/94/112 175/96/114
f 128/97/160 127/95/159 175/96/114 176/98/116
f 113/70/148 128/97/160 176/98/116 161/71/118
f 177/70/117 178/69/102 179/73/101 180/75/108 181/77/110 182/79/112 183/81/114 184/83/116 185/85/118 186/37/106 187/38/105 188/89/107 189/91/109 190/93/111 191/95/113 192/97/115
f 115/73/149 116/75/150 180/75/108 179/73/101
f 123/38/104 124/89/156 188/89/107 187/38/105
f 116/75/150 117/77/151 181/77/110 180/75/108
f 124/89/156 125/91/157 189/91/109 188/89/107
f 117/77/151 118/79/152 182/79/112 181/77/110
f 125/91/157 126/93/158 190/93/111 189/91/109
f 118/79/152 119/81/153 183/81/114 182/79/112
f 126/93/158 127/95/159 191/95/113 190/93/111
f 119/81/153 120/83/154 184/83/116 183/81/114
f 127/95/159 128/97/160 192/97/115 191/95/113
f 120/83/154 121/85/155 185/85/118 184/83/116
f 113/70/148 114/69/147 178/69/102 177/70/117
f 128/97/160 113/70/148 177/70/117 192/97/115
f 121/85/155 122/37/103 186/37/106 185/85/118
f 114/69/147 115/73/149 179/73/101 178/69/102
o Cylinder.001
v 0.000000 2.336913 -0.171348
v 0.000000 2.781507 -0.171348
v 0.065572 2.336913 -0.158305
v 0.065572 2.781507 -0.158305
v 0.121162 2.336913 -0.121162
v 0.121162 2.781507 -0.121162
v 0.158305 2.336913 -0.065572
v 0.158305 2.781507 -0.065572
v 0.171348 2.336913 -0.000000
v 0.171348 2.781507 -0.000000
v 0.158305 2.336913 0.065572
v 0.158305 2.781507 0.065572
v 0.121162 2.336913 0.121162
v 0.121162 2.781507 0.121162
v 0.065572 2.336913 0.158305
v 0.065572 2.781507 0.158305
v 0.000000 2.336913 0.171348
v 0.000000 2.781507 0.171348
v -0.065572 2.336913 0.158305
v -0.065572 2.781507 0.158305
v -0.121162 2.336913 0.121162
v -0.121162 2.781507 0.121162
v -0.158305 2.336913 0.065572
v -0.158305 2.781507 0.065572
v -0.171348 2.336913 -0.000000
v -0.171348 2.781507 -0.000000
v -0.158305 2.336913 -0.065572
v -0.158305 2.781507 -0.065572
v -0.121162 2.336913 -0.121162
v -0.121162 2.781507 -0.121162
v -0.065572 2.336913 -0.158305
v -0.065572 2.781507 -0.158305
v 0.000000 2.206204 -0.142372
v 0.054484 2.206204 -0.131535
v 0.100672 2.206204 -0.100672
v 0.131535 2.206204 -0.054484
v 0.142372 2.206204 -0.000000
v 0.131535 2.206204 0.054484
v 0.100672 2.206204 0.100672
v 0.054484 2.206204 0.131535
v 0.000000 2.206204 0.142372
v -0.054484 2.206204 0.131535
v -0.100672 2.206204 0.100672
v -0.131535 2.206204 0.054484
v -0.142372 2.206204 -0.000000
v -0.131535 2.206204 -0.054484
v -0.100672 2.206204 -0.100672
v -0.054484 2.206204 -0.131535
v 0.000000 3.048973 -0.122817
v 0.047000 3.048973 -0.113468
v 0.086845 3.048973 -0.086845
v 0.113468 3.048973 -0.047000
v 0.122817 3.048973 -0.000000
v 0.113468 3.048973 0.047000
v 0.086845 3.048973 0.086845
v 0.047000 3.048973 0.113468
v 0.000000 3.048973 0.122817
v -0.047000 3.048973 0.113468
v -0.086845 3.048973 0.086845
v -0.113468 3.048973 0.047000
v -0.122817 3.048973 -0.000000
v -0.113468 3.048973 -0.047000
v -0.086845 3.048973 -0.086845
v -0.047000 3.048973 -0.113468
v 0.000000 3.227060 -0.000000
vn -0.0000 -0.1074 -0.9942
vn -0.0000 0.0886 -0.9961
vn 0.3812 0.0887 -0.9202
vn 0.3805 -0.1074 -0.9185
vn 0.7043 0.0887 -0.7043
vn 0.7030 -0.1074 -0.7030
vn 0.9202 0.0887 -0.3812
vn 0.9185 -0.1074 -0.3805
vn 0.9961 0.0887 -0.0000
vn 0.9942 -0.1074 -0.0000
vn 0.9202 0.0887 0.3812
vn 0.9185 -0.1074 0.3805
vn 0.7043 0.0887 0.7043
vn 0.7030 -0.1074 0.7030
vn 0.3812 0.0887 0.9202
vn 0.3805 -0.1074 0.9185
vn -0.0000 0.0887 0.9961
vn -0.0000 -0.1074 0.9942
vn -0.3812 0.0887 0.9202
vn -0.3805 -0.1074 0.9185
vn -0.7043 0.0887 0.7043
vn -0.7030 -0.1074 0.7030
vn -0.9202 0.0887 0.3812
vn -0.9185 -0.1074 0.3805
vn -0.9961 0.0887 -0.0000
vn -0.9942 -0.1074 -0.0000
vn -0.9202 0.0887 -0.3812
vn -0.9185 -0.1074 -0.3805
vn -0.7043 0.0887 -0.7043
vn -0.7030 -0.1074 -0.7030
vn 0.3551 0.3728 -0.8573
vn 0.6561 0.3728 -0.6561
vn -0.3812 0.0887 -0.9202
vn -0.3805 -0.1074 -0.9185
vn 0.6181 -0.7432 0.2560
vn 0.6691 -0.7432 -0.0000
vn -0.0000 -0.7432 -0.6691
vn 0.2560 -0.7432 -0.6181
vn 0.4731 -0.7432 -0.4731
vn 0.6181 -0.7432 -0.2560
vn 0.4731 -0.7432 0.4731
vn 0.2560 -0.7432 0.6181
vn -0.0000 -0.7432 0.6691
vn -0.2560 -0.7432 0.6181
vn -0.4731 -0.7432 0.4731
vn -0.6181 -0.7432 0.2560
vn -0.6691 -0.7432 -0.0000
vn -0.6181 -0.7432 -0.2560
vn -0.4731 -0.7432 -0.4731
vn -0.2560 -0.7432 -0.6181
vn 0.3551 0.3728 0.8573
vn 0.6561 0.3728 0.6561
vn -0.0000 1.0000 -0.0000
vn -0.8573 0.3728 0.3551
vn -0.9279 0.3728 -0.0000
vn 0.9279 0.3728 -0.0000
vn 0.8573 0.3728 0.3551
vn -0.3551 0.3728 0.8573
vn -0.6561 0.3728 0.6561
vn -0.6561 0.3728 -0.6561
vn -0.3551 0.3728 -0.8573
vn 0.8573 0.3728 -0.3551
vn -0.0000 0.3728 0.9279
vn -0.0000 0.3728 -0.9279
vn -0.8573 0.3728 -0.3551
vt 1.000000 0.500000
vt 1.000000 1.000000
vt 0.937500 1.000000
vt 0.937500 0.500000
vt 0.875000 1.000000
vt 0.875000 0.500000
vt 0.812500 1.000000
vt 0.812500 0.500000
vt 0.750000 1.000000
vt 0.750000 0.500000
vt 0.687500 1.000000
vt 0.687500 0.500000
vt 0.625000 1.000000
vt 0.625000 0.500000
vt 0.562500 1.000000
vt 0.562500 0.500000
vt 0.500000 1.000000
vt 0.500000 0.500000
vt 0.437500 1.000000
vt 0.437500 0.500000
vt 0.375000 1.000000
vt 0.375000 0.500000
vt 0.312500 1.000000
vt 0.312500 0.500000
vt 0.250000 1.000000
vt 0.250000 0.500000
vt 0.187500 1.000000
vt 0.187500 0.500000
vt 0.125000 1.000000
vt 0.125000 0.500000
vt 0.062500 1.000000
vt 0.062500 0.500000
vt 0.000000 1.000000
vt 0.000000 0.500000
vt 0.750000 0.490000
vt 0.841844 0.471731
vt 0.919706 0.419706
vt 0.971731 0.341844
vt 0.990000 0.250000
vt 0.971731 0.158156
vt 0.919706 0.080294
vt 0.841844 0.028269
vt 0.750000 0.010000
vt 0.658156 0.028269
vt 0.580294 0.080294
vt 0.528269 0.158156
vt 0.510000 0.250000
vt 0.528269 0.341844
vt 0.580294 0.419706
vt 0.658156 0.471731
s 1
f 193/99/161 194/100/162 196/101/163 195/102/164
f 195/102/164 196/101/163 198/103/165 197/104/166
f 197/104/166 198/103/165 200/105/167 199/106/168
f 199/106/168 200/105/167 202/107/169 201/108/170
f 201/108/170 202/107/169 204/109/171 203/110/172
f 203/110/172 204/109/171 206/111/173 205/112/174
f 205/112/174 206/111/173 208/113/175 207/114/176
f 207/114/176 208/113/175 210/115/177 209/116/178
f 209/116/178 210/115/177 212/117/179 211/118/180
f 211/118/180 212/117/179 214/119/181 213/120/182
f 213/120/182 214/119/181 216/121/183 215/122/184
f 215/122/184 216/121/183 218/123/185 217/124/186
f 217/124/186 218/123/185 220/125/187 219/126/188
f 219/126/188 220/125/187 222/127/189 221/128/190
f 198/103/165 196/101/163 242/101/191 243/103/192
f 221/128/190 222/127/189 224/129/193 223/130/194
f 223/130/194 224/129/193 194/131/162 193/132/161
f 201/108/170 203/110/172 230/110/195 229/108/196
f 225/133/197 226/134/198 227/135/199 228/136/200 229/137/196 230/138/195 231/139/201 232/140/202 233/141/203 234/142/204 235/143/205 236/144/206 237/145/207 238/146/208 239/147/209 240/148/210
f 211/118/180 213/120/182 235/120/205 234/118/204
f 221/128/190 223/130/194 240/130/210 239/128/209
f 197/104/166 199/106/168 228/106/200 227/104/199
f 207/114/176 209/116/178 233/116/203 232/114/202
f 193/99/161 195/102/164 226/102/198 225/99/197
f 217/124/186 219/126/188 238/126/208 237/124/207
f 203/110/172 205/112/174 231/112/201 230/110/195
f 213/120/182 215/122/184 236/122/206 235/120/205
f 223/130/194 193/132/161 225/132/197 240/130/210
f 199/106/168 201/108/170 229/108/196 228/106/200
f 209/116/178 211/118/180 234/118/204 233/116/203
f 219/126/188 221/128/190 239/128/209 238/126/208
f 195/102/164 197/104/166 227/104/199 226/102/198
f 205/112/174 207/114/176 232/114/202 231/112/201
f 215/122/184 217/124/186 237/124/207 236/122/206
f 248/113/211 247/111/212 257/113/213
f 208/113/175 206/111/173 247/111/212 248/113/211
f 218/123/185 216/121/183 252/121/214 253/123/215
f 204/109/171 202/107/169 245/107/216 246/109/217
f 214/119/181 212/117/179 250/117/218 251/119/219
f 224/129/193 222/127/189 255/127/220 256/129/221
f 200/105/167 198/103/165 243/103/192 244/105/222
f 210/115/177 208/113/175 248/113/211 249/115/223
f 196/101/163 194/100/162 241/100/224 242/101/191
f 220/125/187 218/123/185 253/123/215 254/125/225
f 206/111/173 204/109/171 246/109/217 247/111/212
f 216/121/183 214/119/181 251/119/219 252/121/214
f 194/131/162 224/129/193 256/129/221 241/131/224
f 202/107/169 200/105/167 244/105/222 245/107/216
f 212/117/179 210/115/177 249/115/223 250/117/218
f 222/127/189 220/125/187 254/125/225 255/127/220
f 256/129/221 255/127/220 257/129/213
f 249/115/223 248/113/211 257/115/213
f 242/101/191 241/100/224 257/101/213
f 241/131/224 256/129/221 257/131/213
f 250/117/218 249/115/223 257/117/213
f 243/103/192 242/101/191 257/103/213
f 251/119/219 250/117/218 257/119/213
f 244/105/222 243/103/192 257/105/213
f 252/121/214 251/119/219 257/121/213
f 245/107/216 244/105/222 257/107/213
f 253/123/215 252/121/214 257/123/213
f 246/109/217 245/107/216 257/109/213
f 254/125/225 253/123/215 257/125/213
f 247/111/212 246/109/217 257/111/213
f 255/127/220 254/125/225 257/127/213
